<?xml version="1.0" encoding="UTF-8"?>
<svg version="1.1" xmlns="http://www.w3.org/2000/svg" width="1898" height="380">
<path d="M0 0 C3.74593527 0.42022562 6.77563798 0.12180987 10.49609375 -0.5859375 C30.88393744 -1.76759329 48.12483777 0.67243003 64.19140625 14.30078125 C82.88791493 31.44452904 92.18792673 57.5744378 93.61856079 82.55224609 C93.82607679 88.02637777 93.83394729 93.49924937 93.80859375 98.9765625 C93.80536102 100.23288483 93.80536102 100.23288483 93.80206299 101.5145874 C93.71816157 121.84928514 91.16734096 140.14206112 84.49609375 159.4140625 C84.10550781 160.54457031 83.71492187 161.67507812 83.3125 162.83984375 C75.66964358 182.80647556 60.37381312 200.35721727 41.12109375 209.7265625 C29.96702606 214.55864959 18.6569175 217.62373188 6.49609375 217.4140625 C6.70105469 218.52523437 6.90601563 219.63640625 7.1171875 220.78125 C7.38952778 222.28381705 7.66165148 223.78642337 7.93359375 225.2890625 C8.1356543 226.37960937 8.1356543 226.37960937 8.34179688 227.4921875 C10.2201954 237.9379159 10.73367426 248.28614895 10.79125977 258.88305664 C10.80285847 260.36752799 10.82343272 261.85195516 10.8527832 263.33618164 C10.89560897 265.51216137 10.91163516 267.68693185 10.921875 269.86328125 C10.94374878 271.78660278 10.94374878 271.78660278 10.96606445 273.7487793 C10.38183193 278.30518596 9.04358685 280.61986694 6.49609375 284.4140625 C3.47879368 286.66006909 0.75958877 286.68459507 -2.94140625 286.6640625 C-3.86824219 286.66921875 -4.79507813 286.674375 -5.75 286.6796875 C-8.50390625 286.4140625 -8.50390625 286.4140625 -10.84082031 285.42333984 C-13.67964969 284.34745786 -15.84226815 284.10273609 -18.8671875 284 C-20.50204102 283.94175049 -20.50204102 283.94175049 -22.16992188 283.88232422 C-23.97493164 283.83615967 -23.97493164 283.83615967 -25.81640625 283.7890625 C-27.10095703 283.75184082 -28.38550781 283.71461914 -29.70898438 283.67626953 C-60.29178315 282.86800308 -90.94170415 283.04268164 -121.50390625 284.4140625 C-121.50390625 281.1140625 -121.50390625 277.8140625 -121.50390625 274.4140625 C-120.07498047 274.15882813 -120.07498047 274.15882813 -118.6171875 273.8984375 C-117.36292969 273.65609375 -116.10867188 273.41375 -114.81640625 273.1640625 C-113.57503906 272.93203125 -112.33367188 272.7 -111.0546875 272.4609375 C-106.71051307 271.1801468 -103.75243418 269.50666565 -101.39453125 265.5546875 C-101.183125 264.93078125 -100.97171875 264.306875 -100.75390625 263.6640625 C-100.5321875 263.05046875 -100.31046875 262.436875 -100.08203125 261.8046875 C-97.98648352 253.13931447 -98.30833223 244.2184475 -98.24755859 235.36279297 C-98.23309082 233.73589834 -98.21833293 232.10900628 -98.20330811 230.4821167 C-98.07363367 215.70071974 -98.00727755 200.91860024 -97.95546532 186.13674736 C-97.91648296 175.21760379 -97.84793094 164.29948498 -97.74091756 153.38079154 C-97.66809863 145.69144475 -97.62963777 138.00237893 -97.61643946 130.31270134 C-97.60757536 125.72339822 -97.58332888 121.13536815 -97.52177048 116.54644394 C-97.46455776 112.23342698 -97.44984002 107.92234077 -97.46764374 103.60900116 C-97.46676505 102.02789559 -97.45049582 100.44671127 -97.41759872 98.86594772 C-96.95530259 90.43084815 -96.95530259 90.43084815 -100.50262833 83.19836807 C-102.77827784 81.68762628 -105.0360643 80.56835434 -107.50390625 79.4140625 C-109.625 76.921875 -109.625 76.921875 -110.94140625 74.5390625 C-111.39386719 73.75789063 -111.84632813 72.97671875 -112.3125 72.171875 C-116.73318134 61.93908476 -117.43390552 48.95731032 -113.87890625 38.3515625 C-112.08391955 34.10299685 -109.70206556 30.63621042 -106.67578125 27.16796875 C-105.13353651 25.21130557 -105.13353651 25.21130557 -105.50390625 21.4140625 C-109.05817192 17.74600678 -112.3829585 16.66071861 -117.31640625 15.6640625 C-118.47785156 15.42171875 -119.63929688 15.179375 -120.8359375 14.9296875 C-122.15658203 14.67445312 -122.15658203 14.67445312 -123.50390625 14.4140625 C-123.50390625 11.1140625 -123.50390625 7.8140625 -123.50390625 4.4140625 C-122.04090088 4.44024658 -120.57789551 4.46643066 -119.07055664 4.4934082 C-83.23746981 5.23109848 -83.23746981 5.23109848 -47.73046875 1.20581055 C-32.09999648 -1.59999733 -15.78309386 -1.8173937 0 0 Z M-38.50390625 25.4140625 C-38.50390625 27.7240625 -38.50390625 30.0340625 -38.50390625 32.4140625 C-35.52715166 29.32078355 -35.52715166 29.32078355 -34.50390625 25.4140625 C-35.82390625 25.4140625 -37.14390625 25.4140625 -38.50390625 25.4140625 Z M-32.2578125 33.96875 C-35.31476804 38.38182826 -35.31476804 38.38182826 -36.50390625 43.4140625 C-35.74078125 43.9503125 -34.97765625 44.4865625 -34.19140625 45.0390625 C-28.35381023 50.19786829 -27.38029424 58.98074575 -26.50390625 66.4140625 C-26.4581339 67.7795182 -26.42885269 69.1455899 -26.4128418 70.51171875 C-26.21028734 84.82377739 -23.10692347 97.88429807 -19.44140625 111.6640625 C-18.86605782 113.88495611 -18.29247958 116.10630909 -17.72070312 118.328125 C-16.33539478 123.69555266 -14.92861923 129.05696732 -13.50390625 134.4140625 C-11.89864223 133.77553334 -10.2937289 133.13612252 -8.68896484 132.49633789 C-7.79519135 132.14036026 -6.90141785 131.78438263 -5.9805603 131.4176178 C7.09051164 126.12113988 18.07566841 116.71678502 26.49609375 105.4140625 C26.91971191 104.85976562 27.34333008 104.30546875 27.77978516 103.734375 C31.54607122 98.37954188 32.2296464 94.25007288 31.99609375 87.7890625 C31.97764404 86.88317383 31.95919434 85.97728516 31.94018555 85.04394531 C31.51645946 71.46136471 29.77042324 57.95407832 26.12109375 44.8515625 C25.93651611 44.16739258 25.75193848 43.48322266 25.56176758 42.77832031 C24.15317964 38.16202799 22.22279746 35.45124394 18.49609375 32.4140625 C4.21291778 25.17125516 -22.09370799 19.16401871 -32.2578125 33.96875 Z M25.12109375 140.4140625 C16.99084461 147.75900348 9.26200247 153.56354248 -1.0703125 157.40625 C-3.62901854 158.28400605 -3.62901854 158.28400605 -5.50390625 160.4140625 C-5.11194344 165.88900498 -3.98252358 171.09937316 -2.65625 176.4140625 C-2.48009659 177.1352124 -2.30394318 177.8563623 -2.12245178 178.59936523 C-1.56631125 180.8719883 -1.00397708 183.14302367 -0.44140625 185.4140625 C-0.06013383 186.96734659 0.32072928 188.52073121 0.70117188 190.07421875 C1.62809044 193.85534394 2.56056168 197.63505968 3.49609375 201.4140625 C20.82528177 190.04473402 25.227561 172.02850391 29.25 152.8125 C30.25188186 147.27762817 30.71226289 142.03446004 30.49609375 136.4140625 C28.4423093 136.4140625 26.49802002 139.12835216 25.12109375 140.4140625 Z M-39.50390625 163.4140625 C-39.55891746 168.00520667 -39.56129522 172.59234014 -39.51611328 177.18359375 C-39.50803098 178.74315538 -39.51401957 180.30285881 -39.53466797 181.86230469 C-39.9521992 190.79199775 -39.9521992 190.79199775 -36.75292969 198.75927734 C-34.7157131 200.30508865 -32.8470579 201.40573432 -30.50390625 202.4140625 C-29.59640625 202.8678125 -28.68890625 203.3215625 -27.75390625 203.7890625 C-25.25075976 204.59249174 -25.25075976 204.59249174 -21.50390625 204.4140625 C-22.84908917 196.09264947 -24.82810898 188.0365433 -27.06640625 179.9140625 C-27.38287109 178.74875 -27.69933594 177.5834375 -28.02539062 176.3828125 C-29.65373677 170.3651658 -29.65373677 170.3651658 -31.50390625 164.4140625 C-34.14390625 164.0840625 -36.78390625 163.7540625 -39.50390625 163.4140625 Z M-38.50390625 206.4140625 C-38.60594043 213.06676015 -38.67563609 219.71925347 -38.72363281 226.37255859 C-38.74365714 228.63240093 -38.77088487 230.89219205 -38.80566406 233.15185547 C-38.85458703 236.41386612 -38.87696757 239.67518737 -38.89453125 242.9375 C-38.91517639 243.93582855 -38.93582153 244.9341571 -38.95709229 245.96273804 C-38.95940317 253.30742364 -37.9682965 260.83288286 -32.65264893 266.32772827 C-27.54867297 270.56334122 -21.18408594 273.4140625 -14.50390625 273.4140625 C-12.7093766 242.71593356 -12.7093766 242.71593356 -20.50390625 214.4140625 C-22.17846703 213.39268391 -22.17846703 213.39268391 -24.12890625 212.625 C-24.8353125 212.32335937 -25.54171875 212.02171875 -26.26953125 211.7109375 C-27.006875 211.40671875 -27.74421875 211.1025 -28.50390625 210.7890625 C-29.96231148 210.1720449 -31.42064797 209.55486482 -32.87890625 208.9375 C-34.07515625 208.43476563 -35.27140625 207.93203125 -36.50390625 207.4140625 C-37.16390625 207.0840625 -37.82390625 206.7540625 -38.50390625 206.4140625 Z " fill="#FDC600" transform="translate(738.50390625,93.5859375)"/>
<path d="M0 0 C4.71093738 0.83871599 9.0841473 1.19627765 13.89404297 1.06787109 C32.77225618 0.69163472 48.11648459 8.31533047 61.65576172 21.01318359 C83.19696316 43.27383577 87.04937228 76.89645724 86.73388672 106.33349609 C86.12274741 136.33488018 79.50675303 169.34011484 58.58154297 192.06787109 C57.81068359 192.91865234 57.03982422 193.76943359 56.24560547 194.64599609 C40.84725993 210.87012041 21.16911649 217.1914266 -0.41845703 220.06787109 C-0.28213867 220.91490601 -0.28213867 220.91490601 -0.14306641 221.77905273 C1.75872216 234.00779701 2.90999504 246.1503973 3.00341797 258.52145386 C3.01877846 260.53322859 3.0519582 262.54484189 3.08544922 264.55639648 C3.07050754 271.81011466 2.75815058 277.01949733 -1.41845703 283.06787109 C-4.50406537 285.08478848 -6.96304468 285.31575654 -10.60699463 285.30838013 C-11.65584839 285.31112946 -12.70470215 285.31387878 -13.78533936 285.31671143 C-14.93044983 285.30952087 -16.0755603 285.30233032 -17.25537109 285.29492188 C-18.46539795 285.29521393 -19.6754248 285.29550598 -20.92211914 285.29580688 C-24.23592407 285.29465271 -27.54947947 285.2846258 -30.86324024 285.27065897 C-34.32790707 285.25815213 -37.79257726 285.25698115 -41.25726318 285.25460815 C-47.81619914 285.24839325 -54.37506839 285.2319823 -60.93397498 285.21190917 C-68.40187273 285.1895505 -75.86977367 285.17855683 -83.33769655 285.1685183 C-98.69798867 285.14761606 -114.05821425 285.11243989 -129.41845703 285.06787109 C-129.41845703 282.09787109 -129.41845703 279.12787109 -129.41845703 276.06787109 C-127.98953125 275.81263672 -127.98953125 275.81263672 -126.53173828 275.55224609 C-125.27748047 275.30990234 -124.02322266 275.06755859 -122.73095703 274.81787109 C-121.48958984 274.58583984 -120.24822266 274.35380859 -118.96923828 274.11474609 C-115.20301227 273.00435163 -113.21165519 271.7900987 -110.41845703 269.06787109 C-106.77866187 262.17825883 -106.30241543 255.42365883 -106.24436951 247.7434082 C-106.23787056 247.03999518 -106.2313716 246.33658216 -106.22467571 245.6118536 C-106.20442183 243.27298509 -106.19110873 240.9341334 -106.17797852 238.59521484 C-106.16515377 236.91097789 -106.15201802 235.22674328 -106.13859558 233.54251099 C-106.02308629 218.22119897 -105.96612914 202.89925675 -105.92182827 187.57759094 C-105.88854321 176.25859867 -105.82885709 164.94040308 -105.73431724 153.62175274 C-105.67000888 145.65300136 -105.63629602 137.68446745 -105.62507874 129.7154665 C-105.61751975 124.95913536 -105.59634937 120.20376989 -105.54205132 115.44772339 C-105.49158923 110.97560973 -105.47901515 106.50497279 -105.4953022 102.03261948 C-105.49469893 100.39390512 -105.48044188 98.75512882 -105.45135498 97.11667252 C-105.03020898 88.42557253 -105.03020898 88.42557253 -108.17799568 80.64035034 C-110.25157098 78.76724608 -110.25157098 78.76724608 -112.46901035 77.41062927 C-117.52243184 73.9298862 -119.04775499 66.70749685 -120.41845703 61.06787109 C-120.73333316 58.16646323 -120.79970416 55.29746803 -120.79345703 52.38037109 C-120.7918457 51.59380127 -120.79023437 50.80723145 -120.78857422 49.99682617 C-120.60559494 41.21651149 -118.8435094 32.49292347 -112.41845703 26.06787109 C-113.89215858 22.18265791 -115.76500623 20.93519039 -119.41845703 19.06787109 C-122.52849965 18.28974158 -122.52849965 18.28974158 -125.73095703 17.88037109 C-126.79958984 17.72181641 -127.86822266 17.56326172 -128.96923828 17.39990234 C-130.18160156 17.23554687 -130.18160156 17.23554687 -131.41845703 17.06787109 C-131.41845703 13.76787109 -131.41845703 10.46787109 -131.41845703 7.06787109 C-129.56220703 7.11500244 -129.56220703 7.11500244 -127.66845703 7.16308594 C-95.82634987 8.06574542 -95.82634987 8.06574542 -64.81689453 1.79882812 C-44.4401518 -4.41126631 -20.73585589 -3.70507419 0 0 Z M-46.41845703 25.06787109 C-46.49051214 26.75396075 -46.50231771 28.44287769 -46.48095703 30.13037109 C-46.47193359 31.04947266 -46.46291016 31.96857422 -46.45361328 32.91552734 C-46.44201172 33.62580078 -46.43041016 34.33607422 -46.41845703 35.06787109 C-44.48856027 32.56840595 -42.76881525 30.07540997 -41.23095703 27.31787109 C-40.63283203 26.24537109 -40.03470703 25.17287109 -39.41845703 24.06787109 C-43.22466748 23.62939751 -43.22466748 23.62939751 -46.41845703 25.06787109 Z M-40.07080078 36.13818359 C-41.50652127 38.19396887 -42.19958337 39.56863928 -42.41845703 42.06787109 C-41.20936075 43.44489741 -39.99659646 44.81894033 -38.76220703 46.17333984 C-34.00267638 52.88372462 -33.44128105 63.11000261 -33.29760742 71.13745117 C-33.04764563 84.823863 -30.14112988 97.51383252 -26.85595703 110.75537109 C-26.32902168 112.93273222 -25.80362169 115.1104655 -25.27978516 117.28857422 C-24.01028648 122.55274776 -22.72213289 127.81206315 -21.41845703 133.06787109 C-19.3572644 132.30927052 -17.29928996 131.54192281 -15.24267578 130.77099609 C-14.09629639 130.34463867 -12.94991699 129.91828125 -11.76879883 129.47900391 C-6.74176597 127.36166441 -2.64665935 124.47660098 1.58154297 121.06787109 C2.41427734 120.39884766 3.24701172 119.72982422 4.10498047 119.04052734 C10.64176835 113.47922934 15.805514 107.18545512 20.58154297 100.06787109 C21.33693359 99.05595703 22.09232422 98.04404297 22.87060547 97.00146484 C25.77583772 91.77404744 24.64410454 85.98783758 24.08154297 80.25537109 C23.92359253 78.45592041 23.92359253 78.45592041 23.76245117 76.62011719 C21.60369364 52.19237784 21.60369364 52.19237784 10.58154297 31.06787109 C8.08586481 30.0099841 5.79243093 29.18364552 3.20654297 28.44287109 C2.49626953 28.23122314 1.78599609 28.0195752 1.05419922 27.80151367 C-5.36206193 25.95569078 -11.7747682 24.75514925 -18.41845703 24.06787109 C-19.17771484 23.96087891 -19.93697266 23.85388672 -20.71923828 23.74365234 C-29.33974721 22.99040399 -34.86838211 30.23657881 -40.07080078 36.13818359 Z M16.01904297 139.69287109 C13.54414791 141.82287314 11.06331096 143.9458839 8.58154297 146.06787109 C7.45039062 147.03660156 7.45039062 147.03660156 6.29638672 148.02490234 C1.64896626 151.76454641 -3.31498193 153.87667802 -8.87939453 155.98974609 C-11.52727568 156.92702564 -11.52727568 156.92702564 -13.41845703 159.06787109 C-13.34732736 161.18974301 -13.34732736 161.18974301 -12.77001953 163.64990234 C-12.56924805 164.63684082 -12.36847656 165.6237793 -12.16162109 166.640625 C-11.91637695 167.77161621 -11.67113281 168.90260742 -11.41845703 170.06787109 C-11.14485352 171.35483887 -10.87125 172.64180664 -10.58935547 173.96777344 C-9.67583714 178.23441243 -8.73566079 182.49499218 -7.79345703 186.75537109 C-7.46514942 188.24686737 -7.13702317 189.73840357 -6.80908203 191.22998047 C-6.0142935 194.84307261 -5.21706528 198.45562106 -4.41845703 202.06787109 C5.02489766 198.61529233 9.96100419 190.02622951 14.13623047 181.32958984 C20.45835004 167.06210379 23.85165607 149.66402914 23.58154297 134.06787109 C21.08130491 134.06787109 17.9434724 138.01251202 16.01904297 139.69287109 Z M-46.41845703 162.06787109 C-46.61690259 167.08472753 -46.76168896 172.0992809 -46.85791016 177.11914062 C-46.89803156 178.82462367 -46.95254656 180.52983337 -47.02197266 182.234375 C-47.78599067 191.8292025 -47.78599067 191.8292025 -44.6965332 200.50683594 C-42.64216878 202.06441471 -40.80350326 203.11046666 -38.41845703 204.06787109 C-37.53158203 204.52162109 -36.64470703 204.97537109 -35.73095703 205.44287109 C-33.2001221 206.12688053 -31.02860405 206.21702235 -28.41845703 206.06787109 C-29.02823187 197.51196788 -31.22822675 189.44718242 -33.41845703 181.19287109 C-33.7914069 179.76593245 -34.16380697 178.33884999 -34.53564453 176.91162109 C-36.32531406 169.94556381 -36.32531406 169.94556381 -38.41845703 163.06787109 C-41.05845703 162.73787109 -43.69845703 162.40787109 -46.41845703 162.06787109 Z M-46.41845703 208.06787109 C-46.49491657 214.59652145 -46.54722791 221.12505506 -46.58325195 227.65405273 C-46.5982798 229.87219559 -46.6187078 232.09030902 -46.64477539 234.30834961 C-46.68142327 237.50821217 -46.69824391 240.7076797 -46.71142578 243.90771484 C-46.72690964 244.8893309 -46.74239349 245.87094696 -46.75834656 246.88230896 C-46.7601209 254.2453025 -45.86116922 260.81092151 -41.35595703 266.81787109 C-35.48251908 271.31667463 -29.71620102 273.94523784 -22.41845703 275.06787109 C-22.1138051 260.0852454 -22.05380109 245.29018959 -23.79345703 230.38037109 C-23.98258667 228.73512451 -23.98258667 228.73512451 -24.17553711 227.05664062 C-24.83429631 221.23416744 -24.83429631 221.23416744 -27.41845703 216.06787109 C-30.310562 214.71041202 -30.310562 214.71041202 -33.66845703 213.56787109 C-38.09170317 211.97794852 -42.23043632 210.19926141 -46.41845703 208.06787109 Z " fill="#FDC600" transform="translate(1329.41845703125,94.93212890625)"/>
<path d="M0 0 C0.00496522 1.33764514 0.00496522 1.33764514 0.01003075 2.70231342 C0.09134959 24.42878616 0.18347106 46.15518986 0.28752708 67.88156605 C0.33758949 78.38839585 0.38403304 88.8952181 0.421875 99.40209961 C0.45487799 108.56286147 0.49475485 117.72356359 0.54279006 126.8842594 C0.5679726 131.73206443 0.589778 136.57983026 0.60334396 141.42768288 C0.61623943 145.99704615 0.63837349 150.56627441 0.66738319 155.1355629 C0.67640076 156.80637458 0.68213548 158.47720796 0.68421364 160.14804268 C0.15100812 177.13107454 0.15100812 177.13107454 7 192 C13.00437738 197.55404908 18.44199886 197.36446275 26.3984375 197.265625 C36.47083699 196.52275823 43.33860488 191.34019013 50 184 C58.31653219 172.82958413 60.1467877 161.30931462 60.16113281 147.70898438 C60.16609772 146.57967499 60.17106262 145.4503656 60.17617798 144.28683472 C60.19076482 140.55580023 60.19759712 136.82480831 60.203125 133.09375 C60.20888089 130.49027506 60.21463856 127.88680013 60.22039795 125.2833252 C60.22995911 120.51988436 60.23586158 115.75645262 60.2388947 110.99300337 C60.24336291 104.01677544 60.26085807 97.04074467 60.2898953 90.06457663 C60.31427266 83.99374887 60.32184666 77.92300133 60.32357025 71.85212708 C60.32658152 69.2847232 60.33455794 66.71731984 60.34775543 64.14994812 C61.581304 40.08134947 61.581304 40.08134947 52 19 C46.7183401 15.89314124 40.97107027 15.06334128 35 14 C35 10.7 35 7.4 35 4 C36.49442627 4.02094727 37.98885254 4.04189453 39.52856445 4.06347656 C76.93557322 5.04732157 76.93557322 5.04732157 113.92431641 0.3671875 C116 0 116 0 120 0 C120.00238835 0.91145657 120.00477671 1.82291313 120.00723743 2.76198959 C120.06645671 24.97285473 120.14205109 47.18361199 120.23571491 69.39435959 C120.28061863 80.13545498 120.32004578 90.87651762 120.34643555 101.61767578 C120.36945957 110.98319248 120.40290671 120.34860505 120.44870156 129.71403909 C120.47257442 134.66976464 120.49134205 139.62538745 120.49761391 144.58116913 C120.50369169 149.25318264 120.52378817 153.92493346 120.55427551 158.59684944 C120.56301276 160.30432621 120.56678734 162.01183736 120.56500816 163.71933556 C120.54481385 180.63919951 120.54481385 180.63919951 127 196 C132.21175816 199.98404608 138.68743713 200.94790619 145 202 C145 205.3 145 208.6 145 212 C143.55044922 211.98428955 142.10089844 211.9685791 140.60742188 211.95239258 C135.10552782 211.89710568 129.60365687 211.86329992 124.1015625 211.83520508 C121.74344727 211.82033898 119.38535852 211.80004021 117.02734375 211.77368164 C101.6901561 211.60683084 86.8505702 212.31900987 71.67492676 214.61405945 C68.12352765 215.12645813 64.56046504 215.55494187 61 216 C60.67 205.77 60.34 195.54 60 185 C58.02 187.97 56.04 190.94 54 194 C44.82950297 206.83869585 28.82785869 214.02392126 13.61914062 216.67480469 C8.17838463 217.35033479 2.72664615 217.40573725 -2.75 217.4375 C-3.8740625 217.4475708 -4.998125 217.4576416 -6.15625 217.46801758 C-20.06908805 217.32411278 -31.72020412 213.46778974 -43.3125 205.8125 C-60.93187551 187.37361865 -59.29461184 161.1208203 -59.30592227 137.43120408 C-59.31045244 133.97750865 -59.32848648 130.52388769 -59.34571838 127.07023621 C-59.39450278 116.83302268 -59.42576589 106.59576637 -59.44702148 96.35845947 C-59.46360761 88.37794691 -59.48655852 80.39757673 -59.53004223 72.41715926 C-59.54811762 68.99304808 -59.56045206 65.56913103 -59.55874443 62.14496803 C-59.55893756 58.32669106 -59.5772806 54.50887827 -59.59936523 50.69067383 C-59.59478806 49.57918976 -59.59021088 48.46770569 -59.585495 47.32254028 C-59.6709106 37.98223707 -60.49316174 27.22982029 -67 20 C-72.43067544 16.08991368 -77.43099631 15.07983622 -84 14 C-84 10.7 -84 7.4 -84 4 C-82.50968262 4.01571045 -81.01936523 4.0314209 -79.48388672 4.04760742 C-73.84413264 4.10276415 -68.20440123 4.13665521 -62.56445312 4.16479492 C-60.14416468 4.1796895 -57.72390225 4.20001193 -55.30371094 4.22631836 C-38.67800717 4.40223348 -22.47295883 3.82370858 -6.15185547 0.40307617 C-4 0 -4 0 0 0 Z " fill="#263059" transform="translate(378,94)"/>
<path d="M0 0 C0.99402832 0.06058594 1.98805664 0.12117188 3.01220703 0.18359375 C34.31853778 2.06715885 65.17866543 2.36338667 96.50488281 0.62402344 C97.39324326 0.57623245 98.2816037 0.52844147 99.19688416 0.47920227 C100.88119332 0.3879644 102.56526792 0.29226027 104.2490387 0.1915741 C106.16431823 0.08851245 108.08233539 0.03846856 110 0 C111 1 111 1 111.09765625 3.06640625 C111.08605469 3.89011719 111.07445313 4.71382813 111.0625 5.5625 C111.05347656 6.38878906 111.04445313 7.21507813 111.03515625 8.06640625 C111.02355469 8.70449219 111.01195313 9.34257813 111 10 C110.42032471 10.06993164 109.84064941 10.13986328 109.2434082 10.21191406 C106.59733505 10.54092106 103.95523273 10.89519713 101.3125 11.25 C100.40048828 11.35957031 99.48847656 11.46914062 98.54882812 11.58203125 C94.62118331 12.12476035 91.40693446 12.81165031 87.79296875 14.484375 C85.31073238 17.96707701 85.98717429 20.14613855 86.49043274 24.26931763 C87.30568733 28.63812528 88.89831588 32.53204093 90.65625 36.59765625 C91.03039536 37.49319214 91.40454071 38.38872803 91.7900238 39.31140137 C93.01426039 42.23383637 94.2570589 45.14797744 95.5 48.0625 C96.36277248 50.11327803 97.22416258 52.16463815 98.08422852 54.21655273 C99.84963045 58.42434115 101.62164269 62.62924794 103.39892578 66.83203125 C106.93538941 75.20400084 110.40701622 83.60263031 113.87869263 92.00161743 C115.6118653 96.19355243 117.3485159 100.3840433 119.0859375 104.57421875 C119.41564041 105.36954514 119.74534332 106.16487152 120.08503723 106.98429871 C121.98916883 111.57417475 123.90224856 116.16018439 125.82426453 120.74259949 C126.97385546 123.48431155 128.11982765 126.22752835 129.26541138 128.97091675 C130.0395574 130.82019477 130.81937605 132.66709492 131.59936523 134.51391602 C132.05255127 135.59987061 132.5057373 136.6858252 132.97265625 137.8046875 C133.36718994 138.74296387 133.76172363 139.68124023 134.16821289 140.64794922 C135 143 135 143 135 146 C135.66 146 136.32 146 137 146 C137.2460498 144.75484619 137.49209961 143.50969238 137.74560547 142.22680664 C139.03855716 136.42773956 141.0288495 130.9425178 143.0703125 125.37109375 C143.47023407 124.26435806 143.87015564 123.15762238 144.28219604 122.01734924 C145.5579325 118.4888236 146.84089334 114.96298726 148.125 111.4375 C153.02091591 97.96521826 157.90482961 84.49129851 162.4921875 70.91015625 C162.81889435 69.95523788 163.1456012 69.00031952 163.48220825 68.01646423 C167.86535 54.888202 170.97030229 39.64178864 166.09765625 26.1796875 C162.77346572 19.57862588 158.21755429 15.41143248 151.35546875 12.7421875 C147.60490523 11.5604179 143.86310093 10.73582875 140 10 C140 6.7 140 3.4 140 0 C163.1 0 186.2 0 210 0 C210 3.3 210 6.6 210 10 C201.21319018 14.91027607 201.21319018 14.91027607 198.828125 15.9140625 C196.50974722 17.29121853 196.06583966 18.55669806 195 21 C194.09466092 22.27892779 193.17695433 23.54915095 192.25 24.8125 C183.16193098 38.48455109 179.00663043 56.03707576 173.58675766 71.41890717 C172.37513039 74.85516399 171.15985284 78.29012874 169.94458008 81.72509766 C169.69884152 82.41968708 169.45310297 83.1142765 169.19991779 83.82991409 C168.70057148 85.24128582 168.20120752 86.65265131 167.7018261 88.06401062 C166.94706835 90.19748478 166.19268902 92.33109245 165.43836975 94.46472168 C160.55321566 108.27952984 155.6234662 122.07826825 150.6875 135.875 C144.80830663 152.31309821 138.95284001 168.75922496 133.13467407 185.21902466 C132.07723997 188.20833094 131.01791417 191.19695883 129.95776367 194.18530273 C129.61749649 195.14447098 129.27722931 196.10363922 128.926651 197.09187317 C128.25398752 198.98788612 127.58124899 200.88387245 126.90843201 202.77983093 C125.00951371 208.13572496 123.12547476 213.4965479 121.2532196 218.86181641 C103.8831168 268.58013387 103.8831168 268.58013387 86.9375 277.5 C73.1069973 284.02632775 54.14206638 284.58349812 39.5 280.375 C29.60458006 276.54841291 20.71883439 271.36610982 16.125 261.4375 C13.69139264 254.00630609 13.53245672 243.99824844 16.8359375 236.8046875 C21.79180017 229.12143733 28.55590801 224.59496629 37.3515625 222.41796875 C48.97832643 220.58306648 60.352977 221.87040973 70.2421875 228.4765625 C75.10984973 232.6952031 77.63044361 238.15297856 78.23828125 244.48046875 C78.51728739 254.65685045 75.45274305 260.90844586 68.68359375 268.37109375 C67 270 67 270 64 272 C72.99336871 272.68885377 79.62290759 270.83223626 87.1875 265.9375 C94.56850144 259.09860601 98.52680719 249.21298223 102 240 C102.47953125 238.79214844 102.9590625 237.58429688 103.453125 236.33984375 C103.92234375 235.11394531 104.3915625 233.88804687 104.875 232.625 C105.30554688 231.50351562 105.73609375 230.38203125 106.1796875 229.2265625 C107.84562223 222.6738859 105.04467302 217.33040472 102.37890625 211.44921875 C102.00776703 210.61529099 101.63662781 209.78136322 101.25424194 208.92216492 C100.02987401 206.17445621 98.79607025 203.43108805 97.5625 200.6875 C96.69850062 198.75182151 95.83531302 196.81578049 94.97290039 194.87939453 C93.19157365 190.88032373 91.40758211 186.8824577 89.62207031 182.88525391 C86.06079952 174.90284191 82.54831719 166.89916634 79.04077148 158.89303589 C77.9283847 156.35419582 76.8149425 153.81582116 75.70117188 151.27758789 C73.0950388 145.33818975 70.49020973 139.39822002 67.88537598 133.45825195 C58.19093278 111.35199179 48.49202542 89.24770539 38.71240234 67.17895508 C37.93193043 65.4174963 37.15149362 63.65602195 36.37109375 61.89453125 C35.99448608 61.04454056 35.61787842 60.19454987 35.2298584 59.31880188 C33.20393638 54.74051026 31.19347179 50.15609816 29.20672607 45.56066895 C28.37575446 43.639191 27.54084141 41.71947799 26.70458984 39.80029297 C25.73671912 37.57515599 24.77658697 35.34662586 23.82666016 33.11376953 C19.76035324 23.80720097 15.3288568 16.57188022 6 12 C2.69607984 10.70095992 2.69607984 10.70095992 0 10 C0 6.7 0 3.4 0 0 Z " fill="#263059" transform="translate(0,98)"/>
<path d="M0 0 C13.26901107 12.42693922 19.12718089 30.48729676 21.59375 48.02734375 C21.59375 55.94734375 21.59375 63.86734375 21.59375 72.02734375 C-15.03625 72.02734375 -51.66625 72.02734375 -89.40625 72.02734375 C-89.22326398 112.62131615 -89.22326398 112.62131615 -73.40625 148.02734375 C-72.93445312 148.69636719 -72.46265625 149.36539063 -71.9765625 150.0546875 C-65.82587755 157.99497852 -55.2488635 163.44299143 -45.40625 165.02734375 C-28.42215522 166.05788392 -13.89027821 162.40347646 -0.59375 151.27734375 C4.60156723 146.37972492 9.38968748 140.43546878 12.59375 134.02734375 C15.56375 135.01734375 18.53375 136.00734375 21.59375 137.02734375 C16.06848474 159.47373389 0.79754737 178.596864 -18.5625 190.79296875 C-37.24248756 202.00470477 -62.42955289 203.08880925 -83.34375 198.33984375 C-105.65264879 192.76199345 -123.95773704 180.38370205 -136.40625 161.02734375 C-141.96692629 151.51240876 -145.74448989 141.68438142 -148.40625 131.02734375 C-148.57141113 130.37894531 -148.73657227 129.73054687 -148.90673828 129.0625 C-154.24498973 106.75998104 -154.03929267 78.23794311 -148.40625 56.02734375 C-148.15681641 55.01269043 -148.15681641 55.01269043 -147.90234375 53.97753906 C-141.72516776 29.76072135 -127.72373225 7.95218513 -106 -4.97265625 C-73.66809947 -23.33829305 -29.4533411 -24.14600203 0 0 Z M-74.40625 2.02734375 C-88.04308792 17.87816242 -88.6675419 43.90155469 -90.40625 63.02734375 C-70.27625 63.02734375 -50.14625 63.02734375 -29.40625 63.02734375 C-29.24197621 47.76892073 -29.24197621 47.76892073 -30.59375 32.77734375 C-30.79230591 31.40304199 -30.79230591 31.40304199 -30.99487305 30.00097656 C-32.97252475 17.32890399 -36.42136492 3.39135015 -46.21875 -5.53515625 C-57.53776689 -10.63981093 -66.30696952 -6.56025094 -74.40625 2.02734375 Z " fill="#263059" transform="translate(1876.40625,113.97265625)"/>
<path d="M0 0 C8.83920897 7.08150776 13.57069725 16.49666967 15.73046875 27.44921875 C16.13730521 31.35710343 16.20887369 35.20984478 16.16796875 39.13671875 C16.15894531 40.18472656 16.14992188 41.23273438 16.140625 42.3125 C15.80102497 57.66996788 11.2045033 70.16610312 3.73046875 83.44921875 C3.18519531 84.43664062 2.63992188 85.4240625 2.078125 86.44140625 C-2.6426692 94.40558229 -8.84269498 100.86110912 -15.26953125 107.44921875 C-15.85782715 108.05797852 -16.44612305 108.66673828 -17.05224609 109.29394531 C-23.42807502 115.87643786 -29.66071896 122.2752264 -37.26953125 127.44921875 C-33.81622337 135.75582418 -23.98970681 141.56291292 -17.1796875 147.0703125 C-14.60051229 149.17865841 -12.06015773 151.32223937 -9.52978516 153.48828125 C-2.62839325 159.39021807 4.44989831 165.02163851 11.73046875 170.44921875 C12.40207031 170.95211426 13.07367187 171.45500977 13.765625 171.97314453 C32.42566434 185.88774283 52.44840779 200.28033358 75.42578125 205.66015625 C84.05516331 207.72059972 84.05516331 207.72059972 87.10546875 211.01171875 C89.14769364 215.33180985 89.72022259 218.75222903 88.73046875 223.44921875 C85.25311553 228.29643838 80.66331275 230.72180248 74.80859375 231.8046875 C43.37842248 233.99062046 6.55987004 199.13175801 -15.59326172 180.82568359 C-17.83716437 178.98310813 -20.11474123 177.18460194 -22.39453125 175.38671875 C-26.41273501 172.18566231 -30.31425606 168.86277244 -34.20703125 165.51171875 C-35.41535157 164.47654731 -36.62368476 163.44139089 -37.83203125 162.40625 C-39.93081151 160.60688182 -42.01127815 158.79297878 -44.08203125 156.9609375 C-51.21391202 150.81605808 -58.88283463 146.60295378 -67.26953125 142.44921875 C-67.03878906 143.47273437 -66.80804687 144.49625 -66.5703125 145.55078125 C-64.27121313 155.98699467 -62.34371861 166.47272038 -60.58203125 177.01171875 C-60.36780518 178.28289551 -60.1535791 179.55407227 -59.93286133 180.86376953 C-55.46724596 207.94223593 -55.46724596 207.94223593 -58.39453125 216.88671875 C-61.37785046 220.96392167 -65.35167033 224.91238721 -70.26953125 226.44921875 C-74.31069205 226.44921875 -75.8495858 225.83843649 -78.83203125 223.07421875 C-92.26696946 204.57435176 -93.50060967 175.83298698 -94.6484375 153.74609375 C-95.38377371 139.91699672 -97.46877634 127.67652797 -101.51953125 114.43359375 C-104.19488066 105.60953359 -105.82352673 96.54739512 -107.26953125 87.44921875 C-107.44532715 86.35327393 -107.62112305 85.2573291 -107.80224609 84.12817383 C-108.52993644 78.39903811 -108.49395304 72.67410977 -108.50976562 66.90844727 C-108.51942869 64.78426293 -108.55049588 62.66106585 -108.58203125 60.53710938 C-108.66656261 49.61878104 -107.89635058 38.53742812 -101.26953125 29.44921875 C-97.92401328 26.475425 -96.3346372 25.42985319 -91.83203125 25.51171875 C-88.0509883 26.50673005 -84.80279173 27.79074954 -81.26953125 29.44921875 C-81.06328125 28.68609375 -80.85703125 27.92296875 -80.64453125 27.13671875 C-77.3248011 18.23380607 -72.28880535 10.73281527 -66.26953125 3.44921875 C-65.64691406 2.62421875 -65.02429688 1.79921875 -64.3828125 0.94921875 C-46.88395009 -19.75183845 -19.94551891 -13.62886576 0 0 Z M-49.33203125 21.01171875 C-65.80502627 44.47715696 -69.27319438 82.5139283 -68.26953125 110.44921875 C-56.48670687 109.94782197 -48.08294398 106.2191491 -39.26953125 98.44921875 C-38.61339844 97.8871875 -37.95726562 97.32515625 -37.28125 96.74609375 C-25.50986713 85.89471876 -18.5113944 70.91930216 -12.26953125 56.44921875 C-11.90907715 55.65330322 -11.54862305 54.8573877 -11.17724609 54.03735352 C-9.52639927 49.33035319 -9.90045159 44.4522464 -9.89453125 39.51171875 C-9.85779297 37.90393555 -9.85779297 37.90393555 -9.8203125 36.26367188 C-9.7895227 27.97608297 -11.10910516 24.68489308 -16.89453125 18.76171875 C-22.84700649 14.12536869 -30.63013291 12.82072663 -38.01953125 13.109375 C-43.22837011 13.8961267 -46.1616103 17.10287064 -49.33203125 21.01171875 Z " fill="#FFC700" transform="translate(957.26953125,132.55078125)"/>
<path d="M0 0 C1.65322266 0.01740234 1.65322266 0.01740234 3.33984375 0.03515625 C4.44457031 0.04417969 5.54929687 0.05320312 6.6875 0.0625 C7.54214844 0.07410156 8.39679688 0.08570312 9.27734375 0.09765625 C9.27734375 0.75765625 9.27734375 1.41765625 9.27734375 2.09765625 C7.73828125 3.359375 7.73828125 3.359375 5.65234375 4.78515625 C1.09307056 8.0914377 -3.46602003 11.92479195 -5.5859375 17.27734375 C-5.96105469 17.87804687 -6.33617187 18.47875 -6.72265625 19.09765625 C-8.9296875 19.56640625 -8.9296875 19.56640625 -11.53515625 19.59765625 C-16.12137936 19.86938334 -18.47703775 20.64264301 -21.72265625 24.09765625 C-27.96908529 36.59051433 -20.02913983 61.33908509 -17.31542969 74.26855469 C-16.2020056 79.58254084 -15.11634996 84.90203477 -14.03515625 90.22265625 C-13.82076904 91.25326172 -13.60638184 92.28386719 -13.38549805 93.34570312 C-12.11684934 99.58419584 -11.21560341 105.74975765 -10.72265625 112.09765625 C-14.65672845 111.69068326 -18.09854767 111.30985317 -21.84765625 110.03515625 C-25.10927452 108.97158508 -27.3133923 108.67149826 -30.72265625 109.09765625 C-34.94747371 111.37353855 -34.94747371 111.37353855 -37.72265625 115.09765625 C-38.10085747 119.63607085 -38.17011868 122.14679859 -36.22265625 126.28515625 C-30.20347088 133.0567398 -23.24262834 135.06491692 -14.6015625 137.30078125 C-11.72265625 138.09765625 -11.72265625 138.09765625 -10.72265625 139.09765625 C-10.67386059 141.69202217 -10.68352186 144.26602024 -10.72265625 146.859375 C-10.72381528 148.46940115 -10.7224309 150.07943076 -10.71875 151.68945312 C-10.71433868 154.23404733 -10.72245016 156.7749706 -10.77392578 159.3190918 C-11.31281629 168.95747569 -11.31281629 168.95747569 -7.84790039 177.51464844 C-5.51061645 179.12307044 -3.39475381 180.16245021 -0.72265625 181.09765625 C0.28925781 181.50757813 1.30117187 181.9175 2.34375 182.33984375 C3.57931641 182.65308594 3.57931641 182.65308594 4.83984375 182.97265625 C7.03640625 183.52953125 7.03640625 183.52953125 9.27734375 184.09765625 C9.60734375 187.39765625 9.93734375 190.69765625 10.27734375 194.09765625 C5.02647649 193.08787408 0.75421698 191.45090792 -4.01953125 189.01171875 C-5.62586426 188.19501709 -5.62586426 188.19501709 -7.26464844 187.36181641 C-8.07579102 186.94464355 -8.88693359 186.5274707 -9.72265625 186.09765625 C-9.7991322 192.48388948 -9.85143387 198.87000327 -9.88745117 205.2565918 C-9.90247661 207.42623305 -9.92290278 209.59584423 -9.94897461 211.76538086 C-9.98563331 214.89574635 -10.00244551 218.02570795 -10.015625 221.15625 C-10.03110886 222.11599228 -10.04659271 223.07573456 -10.06254578 224.06455994 C-10.0643557 231.4152948 -9.11260547 237.93448817 -4.59765625 243.91015625 C0.21150897 247.5693037 5.27320249 249.64510822 11.15234375 250.97265625 C14.27734375 252.09765625 14.27734375 252.09765625 16.21484375 255.09765625 C17.27734375 258.09765625 17.27734375 258.09765625 17.27734375 260.09765625 C18.59734375 260.75765625 19.91734375 261.41765625 21.27734375 262.09765625 C-16.67265625 262.09765625 -54.62265625 262.09765625 -93.72265625 262.09765625 C-93.72265625 259.12765625 -93.72265625 256.15765625 -93.72265625 253.09765625 C-92.77003906 252.9275 -91.81742188 252.75734375 -90.8359375 252.58203125 C-89.58167969 252.3396875 -88.32742188 252.09734375 -87.03515625 251.84765625 C-85.79378906 251.615625 -84.55242187 251.38359375 -83.2734375 251.14453125 C-79.50721149 250.03413678 -77.51585441 248.81988386 -74.72265625 246.09765625 C-71.0728994 239.18918792 -70.60381482 232.42709745 -70.56443787 224.72608948 C-70.55949989 224.0177375 -70.55456191 223.30938552 -70.5494743 222.57956833 C-70.53421084 220.22435308 -70.52576921 217.86916485 -70.51733398 215.51391602 C-70.50774667 213.81832139 -70.4977361 212.12272911 -70.48733521 210.42713928 C-70.46037251 205.83680617 -70.43931636 201.24646288 -70.41933322 196.65609479 C-70.39742022 191.85412074 -70.37005759 187.0521778 -70.34327698 182.25022888 C-70.29342181 173.16274184 -70.24845644 164.07523746 -70.20525461 154.98771662 C-70.15582081 144.63948395 -70.10092551 134.29128251 -70.04557502 123.94308007 C-69.93186517 102.66130123 -69.8250023 81.37949257 -69.72265625 60.09765625 C-67.93245015 59.42707738 -66.14044136 58.76130935 -64.34765625 58.09765625 C-63.34992188 57.72640625 -62.3521875 57.35515625 -61.32421875 56.97265625 C-58.72265625 56.09765625 -58.72265625 56.09765625 -56.72265625 56.09765625 C-54.65471311 51.96176997 -54.52305424 49.55332085 -55.72265625 45.09765625 C-56.40622355 43.78310376 -57.09416703 42.47082264 -57.78515625 41.16015625 C-60.7361061 34.71178435 -60.80472163 28.02747924 -59.72265625 21.09765625 C-56.41079681 13.4576628 -47.94087129 9.89729599 -40.63720703 6.84082031 C-30.90311211 3.06237286 -21.11693464 1.44822213 -10.72265625 1.09765625 C-10.22765625 5.55265625 -10.22765625 5.55265625 -9.72265625 10.09765625 C-9.30113281 9.45957031 -8.87960937 8.82148437 -8.4453125 8.1640625 C-7.89746094 7.33777344 -7.34960938 6.51148437 -6.78515625 5.66015625 C-6.23988281 4.83644531 -5.69460938 4.01273437 -5.1328125 3.1640625 C-3.04820506 0.10933304 -3.04820506 0.10933304 0 0 Z " fill="#263058" transform="translate(1293.72265625,117.90234375)"/>
<path d="M0 0 C1.22589844 0.01353516 1.22589844 0.01353516 2.4765625 0.02734375 C3.10304688 0.03894531 3.72953125 0.05054687 4.375 0.0625 C4.375 0.7225 4.375 1.3825 4.375 2.0625 C3.529375 2.68125 2.68375 3.3 1.8125 3.9375 C-1.56544384 6.54198941 -3.01985637 9.53993939 -4.9375 13.3125 C-7.97016286 18.82094294 -7.97016286 18.82094294 -10.859375 19.88671875 C-13.1875 20 -13.1875 20 -15.31640625 19.77734375 C-18.94649913 20.22573086 -21.35601718 22.32364681 -23.625 25.0625 C-24.4287528 28.56315461 -24.4287528 28.56315461 -24.12890625 32.41015625 C-24.10502335 33.11205582 -24.08114044 33.81395538 -24.05653381 34.53712463 C-23.73477994 41.91929318 -22.74076619 49.21131154 -21.5625 56.5 C-21.45539703 57.19018219 -21.34829407 57.88036438 -21.23794556 58.59146118 C-19.26247432 71.32148993 -16.69878453 83.91235369 -13.86108398 96.47631836 C-13.71249939 97.14254211 -13.56391479 97.80876587 -13.41082764 98.49517822 C-13.00910908 100.29000729 -12.59899121 102.08295068 -12.18823242 103.87573242 C-11.63407069 107.01117808 -11.52089288 109.8861827 -11.625 113.0625 C-12.470625 112.77375 -13.31625 112.485 -14.1875 112.1875 C-23.23515421 109.1708015 -23.23515421 109.1708015 -32.625 109.0625 C-34.96761608 110.44176773 -34.96761608 110.44176773 -36.625 112.0625 C-37.285 112.0625 -37.945 112.0625 -38.625 112.0625 C-40.34132824 117.21148472 -40.3925665 121.36050471 -38.1875 126.25 C-34.80381572 129.96379982 -31.12244193 131.91969705 -26.625 134.0625 C-25.820625 134.454375 -25.01625 134.84625 -24.1875 135.25 C-20.75957049 136.33690448 -17.27928597 136.91267747 -13.734375 137.5 C-13.03828125 137.685625 -12.3421875 137.87125 -11.625 138.0625 C-10.13486142 141.04277715 -10.57199959 143.72689604 -10.625 147.046875 C-10.62615889 148.47135429 -10.62477508 149.8958375 -10.62109375 151.3203125 C-10.61668206 153.5643928 -10.62481209 155.80430718 -10.67626953 158.04785156 C-11.1413828 166.75324516 -11.1413828 166.75324516 -7.71289062 174.35229492 C-5.38648648 175.93575529 -3.24538112 177.04858504 -0.625 178.0625 C0.14263672 178.38033447 0.91027344 178.69816895 1.70117188 179.02563477 C3.57283016 179.75693521 5.47208994 180.4168698 7.375 181.0625 C8.375 182.0625 8.375 182.0625 8.47265625 184.12890625 C8.46105469 184.95261719 8.44945312 185.77632812 8.4375 186.625 C8.42847656 187.45128906 8.41945313 188.27757812 8.41015625 189.12890625 C8.39855469 189.76699219 8.38695312 190.40507812 8.375 191.0625 C6.31026568 190.29767162 4.2482979 189.52537235 2.1875 188.75 C0.46466797 188.10611328 0.46466797 188.10611328 -1.29296875 187.44921875 C-4.29081115 186.20158211 -6.87014108 184.76143238 -9.625 183.0625 C-9.72705759 189.57277927 -9.79673938 196.08284955 -9.84472656 202.59375 C-9.86474747 204.80509145 -9.89197259 207.01638058 -9.92675781 209.22753906 C-9.97569627 212.42005378 -9.99806467 215.61186396 -10.015625 218.8046875 C-10.04659271 220.26936966 -10.04659271 220.26936966 -10.07818604 221.76364136 C-10.08032469 228.4191945 -9.068824 234.26672928 -5.625 240.0625 C-1.27221633 244.1138098 2.98641369 246.07735045 8.75 247.375 C13.00345366 248.45817764 13.00345366 248.45817764 14.671875 251.171875 C15.68123394 254.16186279 16.375 256.90006004 16.375 260.0625 C15.65699219 260.03220703 14.93898438 260.00191406 14.19921875 259.97070312 C-21.71714517 258.51705203 -57.71342623 258.45108323 -93.625 260.0625 C-93.625 256.7625 -93.625 253.4625 -93.625 250.0625 C-92.67238281 249.89234375 -91.71976563 249.7221875 -90.73828125 249.546875 C-89.48402344 249.30453125 -88.22976563 249.0621875 -86.9375 248.8125 C-85.69613281 248.58046875 -84.45476563 248.3484375 -83.17578125 248.109375 C-78.83160682 246.8285843 -75.87352793 245.15510315 -73.515625 241.203125 C-73.30421875 240.57921875 -73.0928125 239.9553125 -72.875 239.3125 C-72.65328125 238.69890625 -72.4315625 238.0853125 -72.203125 237.453125 C-70.78889663 231.60509957 -70.49819203 225.71743637 -70.46678162 219.72253418 C-70.46184364 219.02966198 -70.45690566 218.33678979 -70.45181805 217.62292147 C-70.43659116 215.32609045 -70.42812312 213.02928704 -70.41967773 210.73242188 C-70.41008753 209.07608807 -70.40007679 207.41975666 -70.38967896 205.76342773 C-70.36274757 201.28472082 -70.34167464 196.80600349 -70.32167697 192.32726097 C-70.29974446 187.64007059 -70.27239145 182.95291187 -70.24562073 178.26574707 C-70.19579177 169.39787264 -70.15081676 160.52998055 -70.10759836 151.6620717 C-70.05814204 141.56290385 -70.00325515 131.46376778 -69.94791877 121.3646307 C-69.8342492 100.59728343 -69.72737769 79.8299058 -69.625 59.0625 C-69.0057666 58.87349121 -68.3865332 58.68448242 -67.74853516 58.48974609 C-66.93690918 58.23273926 -66.1252832 57.97573242 -65.2890625 57.7109375 C-64.0817749 57.33461182 -64.0817749 57.33461182 -62.85009766 56.95068359 C-59.6356484 55.66758436 -58.21793849 54.1035644 -56.625 51.0625 C-57.02339212 47.31761409 -58.2514986 44.8075436 -60.1875 41.625 C-63.46337479 35.21692913 -63.72991915 29.11373975 -62.625 22.0625 C-60.54151864 15.78126556 -55.22692167 12.84982794 -49.625 9.875 C-38.25386111 4.27827817 -24.35442125 0.50373254 -11.625 1.0625 C-10.635 3.5375 -10.635 3.5375 -9.625 6.0625 C-9.17125 5.258125 -8.7175 4.45375 -8.25 3.625 C-5.85444849 -0.15260046 -4.23700665 -0.06052867 0 0 Z " fill="#273058" transform="translate(710.625,117.9375)"/>
<path d="M0 0 C0.00238835 0.93906881 0.00477671 1.87813763 0.00723743 2.84566307 C0.06608105 25.71509593 0.14199397 48.58442384 0.23571491 71.45374107 C0.2806445 82.51325908 0.32006576 93.5727451 0.34643555 104.63232422 C0.36943855 114.27396059 0.40286239 123.91549546 0.44870156 133.5570513 C0.47260264 138.66026597 0.49135185 143.7633803 0.49761391 148.86664963 C0.50367881 153.67490287 0.52372951 158.4828995 0.55427551 163.29105759 C0.56303321 165.05097672 0.56678304 166.81092942 0.56500816 168.57086945 C0.25373345 183.27456509 0.25373345 183.27456509 5.81640625 196.51953125 C8.48831474 198.33107565 10.78715264 199.00022372 13.9375 199.6875 C15.46697266 200.03361328 15.46697266 200.03361328 17.02734375 200.38671875 C19.68300412 200.93460138 22.33957412 201.47575402 25 202 C25 205.3 25 208.6 25 212 C24.17951172 211.96970703 23.35902344 211.93941406 22.51367188 211.90820312 C-13.35155977 210.62377334 -49.13517209 210.76690058 -85 212 C-85 208.7 -85 205.4 -85 202 C-83.46279297 201.72736328 -83.46279297 201.72736328 -81.89453125 201.44921875 C-80.5337571 201.19583322 -79.17308527 200.9418978 -77.8125 200.6875 C-76.80219727 200.51057617 -76.80219727 200.51057617 -75.77148438 200.33007812 C-71.62452264 199.54114394 -68.35931153 198.59112051 -65 196 C-63.60366447 194.01988489 -63.60366447 194.01988489 -62.75 191.75 C-62.43546875 191.02296875 -62.1209375 190.2959375 -61.796875 189.546875 C-59.47238333 182.11761731 -59.85193509 174.43192976 -59.85473633 166.7277832 C-59.85174032 165.38663134 -59.84833677 164.04548033 -59.84455872 162.70433044 C-59.83575765 159.07595113 -59.83338219 155.44759543 -59.83274293 151.81920648 C-59.83203 149.54680339 -59.82989105 147.27440623 -59.82724571 145.00200462 C-59.81800385 137.0583801 -59.81390921 129.1147723 -59.81469727 121.17114258 C-59.81529714 113.79296906 -59.80476004 106.41486888 -59.7889536 99.0367139 C-59.77582886 92.68144494 -59.77051546 86.32619979 -59.77115268 79.9709174 C-59.7714063 76.18453241 -59.76863106 72.39821257 -59.75797462 68.6118412 C-59.74821066 65.04539951 -59.74827056 61.47908416 -59.75549126 57.91263771 C-59.75701615 55.99939986 -59.74874793 54.0861618 -59.74005127 52.17294312 C-59.77681541 41.93966992 -59.91113848 30.69237472 -66 22 C-71.70204618 16.44416013 -77.35880174 15.68428641 -85 15 C-85 11.7 -85 8.4 -85 5 C-83.07474487 5.01571045 -83.07474487 5.01571045 -81.1105957 5.03173828 C-76.24050815 5.06858694 -71.3704322 5.09113035 -66.50024414 5.10986328 C-64.4126578 5.119776 -62.32508477 5.13331012 -60.23754883 5.15087891 C-41.53648825 5.3040555 -23.30683881 4.3414199 -4.95703125 0.5859375 C-2 0 -2 0 0 0 Z " fill="#263059" transform="translate(1601,97)"/>
<path d="M0 0 C4.70889541 2.67550875 6.3138516 5.94155481 8 11 C8.70753103 14.62609655 8.17884679 15.71631198 6.1875 18.875 C1.45789646 24.06959265 -5.07272176 27.36320307 -11.13671875 30.75390625 C-40.8608133 47.42475978 -53.09805786 85.56173159 -61.83105469 116.47558594 C-63.33445802 121.99044836 -64.4627264 127.30762018 -65 133 C-64.41323486 132.70867187 -63.82646973 132.41734375 -63.22192383 132.1171875 C-52.51020152 126.82631835 -41.77341633 121.68724756 -30.625 117.375 C-29.3716687 116.88 -29.3716687 116.88 -28.09301758 116.375 C-22.89198269 114.41775056 -17.61563029 112.81405198 -12 113 C-8.6875 114.6875 -8.6875 114.6875 -6 117 C-5.21625 117.53625 -4.4325 118.0725 -3.625 118.625 C-1.41053571 121.86152473 -1.34326699 124.52262871 -1.078125 128.3671875 C-2.89400024 133.55320408 -7.89768406 135.98138802 -12.64941406 138.28369141 C-15.57918682 139.53952576 -18.53009403 140.71740388 -21.5 141.875 C-35.21144259 147.41213287 -48.09230594 153.51116512 -60.5234375 161.53125 C-63 163 -63 163 -65 163 C-63.67264928 176.74897614 -60.22343115 186.44869754 -50 196 C-46.77138574 198.51007993 -43.44131039 200.79340489 -40 203 C-38.515 203.99 -38.515 203.99 -37 205 C-18.76948163 209.8415475 -4.90841537 203.69037075 11 195 C11.90105469 194.43539062 12.80210937 193.87078125 13.73046875 193.2890625 C17.13613112 191.35469317 20.25641536 191.15079365 24 192 C27.759946 193.90523176 30.18635887 196.25508287 31.97265625 200.0859375 C32.59417284 202.71011866 32.62892036 204.37076348 32 207 C23.93955422 219.4849296 6.06845129 228.46664935 -8 232 C-24.73138727 235.53791449 -41.44331293 234.43032939 -56.12890625 224.98828125 C-72.73496476 213.07930562 -81.57208946 196.58953143 -89 178 C-89 177.34 -89 176.68 -89 176 C-90.02770508 176.23505249 -90.02770508 176.23505249 -91.07617188 176.47485352 C-94.21452026 177.18447837 -97.35703865 177.87360673 -100.5 178.5625 C-102.11648438 178.9327832 -102.11648438 178.9327832 -103.765625 179.31054688 C-113.58128469 181.43527809 -121.14805527 181.16508366 -130 176 C-133.15180213 173.15569076 -133.8887416 171.76490149 -134.5 167.5625 C-133.7429693 162.16865628 -131.40376017 159.40376017 -127.625 155.625 C-123.69987056 153.86545922 -121.79156253 153.90516171 -117.5625 154.0625 C-109.16156454 154.34848929 -102.74911355 151.99553819 -95 149 C-94.01 148.67 -93.02 148.34 -92 148 C-92.03480469 146.92105469 -92.06960938 145.84210938 -92.10546875 144.73046875 C-93.03222677 103.25570707 -75.68913214 64.57897873 -50.23388672 32.58935547 C-49.07247201 31.09335037 -47.97323072 29.54966475 -46.87890625 28.00390625 C-38.17872299 16.32612016 -15.61498504 -2.81069731 0 0 Z " fill="#FFC700" transform="translate(1150,120)"/>
<path d="M0 0 C19.39372402 0.21636 34.86725123 6.98849551 48.94921875 20.1953125 C70.49042019 42.45596467 74.34282931 76.07858615 74.02734375 105.515625 C73.41620444 135.51700909 66.80021006 168.52224375 45.875 191.25 C45.10414062 192.10078125 44.33328125 192.9515625 43.5390625 193.828125 C32.34975177 205.6174934 18.36105724 213.04763114 2.5625 216.625 C1.82185303 216.79281982 1.08120605 216.96063965 0.31811523 217.13354492 C-4.5776154 218.14885425 -9.12497129 218.4830757 -14.125 218.25 C-16.13981734 216.23518266 -15.8464027 212.45923137 -16.1875 209.6875 C-16.27837891 208.97658203 -16.36925781 208.26566406 -16.46289062 207.53320312 C-16.68739503 205.77261597 -16.90668397 204.01136522 -17.125 202.25 C-16.62871094 201.93289063 -16.13242188 201.61578125 -15.62109375 201.2890625 C-1.03592763 191.27040949 4.22153233 173.34690842 7.48095703 156.71777344 C7.92069173 153.96384637 8.18959678 151.22333383 8.43359375 148.4453125 C10.08793503 130.08167995 10.08793503 130.08167995 18.046875 122.90234375 C29.25610321 112.38982171 36.7336955 96.84055624 40.875 82.25 C41.07996094 81.60546875 41.28492188 80.9609375 41.49609375 80.296875 C43.48906717 73.0946814 43.13120405 65.63656529 42.92382812 58.23291016 C42.88252241 56.55548501 42.88203134 54.87713038 42.890625 53.19921875 C42.53554369 41.21522456 35.0767749 29.58938857 26.875 21.25 C18.15261177 13.19287867 8.64189062 8.42433345 -2.33837891 4.05273438 C-4.125 3.25 -4.125 3.25 -7.125 1.25 C-5.28791637 -0.58708363 -2.46883319 0.0331387 0 0 Z " fill="#263058" transform="translate(1342.125,95.75)"/>
<path d="M0 0 C20.83088259 15.98945422 30.42730597 40.72753176 33.90112305 66.14257812 C34.74284916 73.63474503 34.65203867 81.18177964 34.6171875 88.7109375 C34.61395477 89.96725983 34.61395477 89.96725983 34.61065674 91.2489624 C34.52675532 111.58366014 31.97593471 129.87643612 25.3046875 149.1484375 C24.91410156 150.27894531 24.52351562 151.40945312 24.12109375 152.57421875 C16.47823733 172.54085056 1.18240687 190.09159227 -18.0703125 199.4609375 C-27.88966479 203.71480853 -38.76003164 207.37472963 -49.5703125 207.2109375 C-50.35148438 207.20191406 -51.13265625 207.19289063 -51.9375 207.18359375 C-52.80761719 207.16619141 -52.80761719 207.16619141 -53.6953125 207.1484375 C-54.03618584 205.60842043 -54.36762203 204.06631344 -54.6953125 202.5234375 C-54.8809375 201.66492188 -55.0665625 200.80640625 -55.2578125 199.921875 C-55.74776767 196.81590917 -56.095334 194.28193927 -55.6953125 191.1484375 C-53.5703125 188.9375 -53.5703125 188.9375 -50.6953125 186.7734375 C-36.7017261 175.14671213 -32.65287865 154.99883648 -30.64526367 137.74023438 C-29.60256372 128.82205538 -28.92545181 123.07547031 -21.6953125 117.1484375 C-4.90393605 100.02000787 5.91486014 79.374045 5.6796875 55.0859375 C5.69128906 53.88388672 5.70289063 52.68183594 5.71484375 51.44335938 C5.66691891 36.80232188 0.8803199 25.68568153 -8.99609375 14.82421875 C-18.69754137 5.2565842 -30.58704762 -1.22052745 -43.6953125 -4.8515625 C-44.68273437 -5.12871094 -45.67015625 -5.40585938 -46.6875 -5.69140625 C-49.35287631 -6.42726714 -52.02154984 -7.1468886 -54.6953125 -7.8515625 C-54.6953125 -8.5115625 -54.6953125 -9.1715625 -54.6953125 -9.8515625 C-35.72497116 -13.78521187 -16.03180262 -11.01315137 0 0 Z " fill="#263058" transform="translate(797.6953125,103.8515625)"/>
<path d="M0 0 C0.92232422 0.57621094 0.92232422 0.57621094 1.86328125 1.1640625 C7.92299494 5.58479655 11.67343935 12.76421464 13 20 C13.81957577 30.44959113 12.75308103 38.05932212 6 46.25 C-0.86917143 53.46711965 -9.14838912 56.64867297 -18.96875 57.23828125 C-31.00266753 57.53321718 -42.6923856 56.77281709 -52.3515625 48.703125 C-58.66033197 42.18505986 -61.28142358 34.69890878 -61.375 25.6875 C-61.21530271 16.08687471 -58.5623435 9.82204988 -52.06640625 2.79296875 C-39.13031641 -8.43135117 -14.14315846 -9.06163427 0 0 Z " fill="#263059" transform="translate(1593,5)"/>
<path d="M0 0 C5.97365621 1.07011075 10.90785507 5.38481884 14.625 10.03125 C20.58469122 19.25458165 21.59591883 29.61023145 19.56494141 40.28710938 C17.69319094 48.14946676 15.20726052 55.08678773 11 62 C10.67 62 10.34 62 10 62 C9.96036133 61.19594727 9.92072266 60.39189453 9.87988281 59.56347656 C8.82624357 39.16013107 7.36367695 19.27089926 0 0 Z " fill="#2B3456" transform="translate(760,128)"/>
<path d="M0 0 C19.47 0 38.94 0 59 0 C56.48816893 1.67455405 54.79411905 2.5191182 52.0078125 3.4453125 C42.84946025 6.5912249 34.64896943 9.93699421 26.56640625 15.30078125 C24.41922896 16.72242831 22.32951517 17.91509577 20 19 C19.113125 18.071875 18.22625 17.14375 17.3125 16.1875 C12.34112483 11.84268244 6.34291484 11.08735683 0 10 C0 6.7 0 3.4 0 0 Z " fill="#273058" transform="translate(615,98)"/>
<path d="M0 0 C7.42949623 2.05773219 13.15524904 6.82571791 17.49609375 13.1953125 C22.9849477 23.77090656 21.99484009 36.36187102 19.25 47.625 C19.09313721 48.28733643 18.93627441 48.94967285 18.7746582 49.63208008 C17.63697272 53.89417185 15.96171425 56.75206967 13 60 C11.80116145 57.6023229 11.76689172 55.86432879 11.60546875 53.1875 C10.41033971 35.40031157 7.91714621 19.48286514 1 3 C0.67 2.01 0.34 1.02 0 0 Z " fill="#2B3456" transform="translate(1341,127)"/>
<path d="M0 0 C15.51 0 31.02 0 47 0 C44.06910788 2.93089212 42.19954416 3.96020513 38.5 5.625 C31.78061071 8.86997337 26.57431485 13.06212267 21 18 C20.48953125 17.59007813 19.9790625 17.18015625 19.453125 16.7578125 C13.21360274 12.13348572 7.67036953 10.75276046 0 10 C0 6.7 0 3.4 0 0 Z " fill="#273058" transform="translate(1198,102)"/>
</svg>
