<?xml version="1.0" encoding="UTF-8"?>
<svg version="1.1" viewBox="0 0 1600 320" width="1280" height="1280" xmlns="http://www.w3.org/2000/svg">
<path transform="translate(618 77.8)" d="m0 0c1.32-0.00122 1.32-0.00122 2.67-0.00247 40 0.00419 40 0.00419 53.5 12.2 0.75 0.67 1.5 1.34 2.27 2.03 5.41 5.11 9.25 10.4 12.7 17 0.367 0.668 0.735 1.34 1.11 2.02 1.04 1.97 1.98 3.95 2.89 5.98 0.339 0.75 0.678 1.5 1.03 2.27 12 29.5 8.26 68.4-3.1 97.5-1.98 4.62-4.36 8.94-6.93 13.3h-2c-0.104 0.571-0.209 1.14-0.316 1.73-2.55 8.48-10.5 13.8-17.7 18.3-1.09 0.701-2.19 1.4-3.31 2.12-10.6 5.7-20.9 7.86-32.7 8.88 0.144 2.44 0.29 4.88 0.438 7.31 0.0393 0.671 0.0786 1.34 0.119 2.03 0.243 3.98 0.566 7.93 0.963 11.9 0.575 6.21 0.701 12.4 0.73 18.6 0.0206 1.1 0.0412 2.2 0.0625 3.34 0.00773 1.59 0.00773 1.59 0.0156 3.22 0.00935 0.951 0.0187 1.9 0.0283 2.88-0.426 3.21-1.47 5.08-3.36 7.69-4.14 2.53-7.36 1.99-12 1-1.68-0.639-3.35-1.3-5-2-4.41-1.15-8.75-1.13-13.3-1.11-0.82-1.46e-4 -1.64-2.92e-4 -2.48-4.43e-4 -2.7 6.94e-4 -5.4 0.00847-8.1 0.0163-1.88 0.00187-3.75 0.00329-5.63 0.00429-4.93 0.00381-9.86 0.0136-14.8 0.0247-5.03 0.0102-10.1 0.0148-15.1 0.0198-9.87 0.0107-19.7 0.0278-29.6 0.0488-0.33-0.99-0.66-1.98-1-3 2-3 2-3 4.21-3.55 0.86-0.106 1.72-0.211 2.61-0.32 4.83-0.837 7.14-2.12 10.2-6.12 2.15-3.44 2.25-6.19 2.24-10.2 0.00275-1.28 0.0055-2.55 0.00833-3.87-0.00708-1.41-0.0143-2.82-0.0218-4.24-5.64e-4 -1.49-2.47e-4 -2.98 8.85e-4 -4.46 5.74e-4 -4.04-0.0112-8.08-0.0251-12.1-0.0125-4.22-0.0137-8.44-0.0161-12.7-0.00622-7.99-0.0226-16-0.0427-24-0.0224-9.1-0.0334-18.2-0.0434-27.3-0.0209-18.7-0.0561-37.4-0.101-56.2-0.608-0.295-1.22-0.59-1.84-0.895-6.05-3.1-9.64-7.46-11.8-13.9-1.96-10.6-0.523-20.5 5.35-29.4 0.981-1.38 2.04-2.7 3.12-4 1.32-1.7 1.32-1.7 1.12-3.88-1.47-2.76-3.04-2.93-6-3.88-1.03-0.302-1.03-0.302-2.07-0.609-2.09-0.676-4-1.32-5.93-2.39-1-2.69-1-2.69-1-5 2.93-1.46 5.48-1.07 8.75-1.03 1.4 0.0143 2.8 0.028 4.2 0.0413 0.734 0.00831 1.47 0.0166 2.22 0.0252 21 1.33 21 1.33 40.8-3.04 13.9-2.22 27.9-2.19 41.9-2.19zm-21.7 25.3c-3.94 5.98-3.94 5.98-5.19 12.9h2c4.26 7.77 5.14 16.7 5.5 25.4 0.329 7.77 1.61 15 3.5 22.6 0.328 1.36 0.654 2.72 0.98 4.07 0.966 3.99 1.99 7.96 3.02 11.9 0.258 1.04 0.516 2.09 0.781 3.16 0.237 0.895 0.474 1.79 0.719 2.71 0.294 1.14 0.294 1.14 0.594 2.3 0.814 1.93 0.814 1.93 2.56 3.27 3.62 0.857 6.2-0.793 9.34-2.45 0.592-0.305 1.18-0.61 1.79-0.925 1.8-0.953 3.56-1.94 5.33-2.95 0.594-0.326 1.19-0.652 1.8-0.988 5.73-3.25 9.72-7.47 13.7-12.6 0.57-0.732 1.14-1.46 1.73-2.22 0.544-0.753 1.09-1.51 1.65-2.28 0.545-0.733 1.09-1.47 1.65-2.22 1.89-3.89 2.09-7.44 2.29-11.7 0.0416-0.867 0.0831-1.73 0.126-2.63 0.374-14-1.97-32.1-9.06-44.4-9.38-6.96-36-13-44.8-2.86zm-10.2-3.14 2 1c0.414 2.07 0.414 2.07 0.625 4.56 0.0748 0.826 0.15 1.65 0.227 2.5 0.0735 0.957 0.0735 0.957 0.148 1.93 1.13-1.83 1.13-1.83 2-4-0.33-0.99-0.66-1.98-1-3h3v-3c0.66-0.33 1.32-0.66 2-1-3.27 0-5.85 0.299-9 1zm5 4 1 2zm-2 87 1 4zm53 6c-0.99 0.495-0.99 0.495-2 1v2c-0.722 0.248-1.44 0.495-2.19 0.75-2.86 1.12-2.86 1.12-5.06 3.12-3.05 2.36-6.05 3.81-9.56 5.38-1.16 0.521-2.32 1.04-3.52 1.58-1.32 0.58-1.32 0.58-2.67 1.17-0.378 6.45 0.268 11.9 2.14 18.1 1.26 4.34 2.12 8.77 3.01 13.2 0.857 2.79 1.59 3.95 3.84 5.75 8.45-3.74 13.8-13.5 17.1-21.8 3.85-11.2 6.16-23.4 6.94-35.2-3.45 0-5.48 2.84-8 5zm-54 19c-0.0582 4.06-0.0937 8.12-0.125 12.2-0.0168 1.15-0.0335 2.3-0.0508 3.49-0.00645 1.11-0.0129 2.22-0.0195 3.37-0.0105 1.02-0.0209 2.04-0.0317 3.09 0.242 3.05 0.815 5.15 2.23 7.86 5.05 3.61 9.93 4.95 16 6-0.66-0.33-1.32-0.66-2-1 0.04-0.837 0.0799-1.67 0.121-2.54-0.136-3.91-0.979-7.15-2.06-10.9-1.39-4.87-2.38-9.55-3.06-14.6-0.933-2.2-0.933-2.2-2-4-0.33-0.99-0.66-1.98-1-3-4.1-1.02-4.1-1.02-8 0zm1 35c-1.15 4.13-1.15 8.12-1.12 12.4 0.00411 0.822 0.00822 1.64 0.0125 2.49 0.0579 6.65 0.199 13.3 0.425 19.9 0.0224 0.924 0.0448 1.85 0.0679 2.8 0.248 6.11 0.942 10.8 5.56 15.3 1.08 0.717 1.08 0.717 2.18 1.45 1.06 0.737 1.06 0.737 2.13 1.49 3.83 1.67 7.6 1.91 11.7 2.2 0.252-13.7-0.143-27.1-1.76-40.7-0.216-2.05-0.291-4.12-0.347-6.18-0.627-3.44-0.627-3.44-4.17-5.29-1.36-0.593-2.72-1.16-4.1-1.7-0.686-0.294-1.37-0.588-2.08-0.891-2.82-1.19-5.65-2.27-8.55-3.23zm18 11 1 2z" fill="#235F3C"/>
<path transform="translate(1122 79)" d="m0 0c1.56 0.111 3.12 0.214 4.68 0.308 15 0.932 29.3 4.1 40.5 14.7 0.926 0.845 0.926 0.845 1.87 1.71 1.44 1.37 2.8 2.82 4.13 4.29v2c0.99 0.33 1.98 0.66 3 1 2.34 3.47 4.12 7.26 6 11 0.449 0.862 0.897 1.72 1.36 2.61 5.56 11.3 8.3 23.8 8.64 36.4 0.0205 0.657 0.0409 1.31 0.062 1.99 0.588 21.5-0.43 44-9.06 64-0.312 0.727-0.624 1.45-0.945 2.2-4.74 10.3-11.6 21.3-21.1 27.8-0.674 0.496-1.35 0.993-2.04 1.5-11.6 8.17-24.7 13.2-39 12.5-0.0277 1.79-0.0467 3.58-0.0625 5.38-0.0116 0.998-0.0232 2-0.0352 3.02 0.0747 2.76 0.276 5.35 0.59 8.08 0.721 6.81 0.692 13.6 0.695 20.5 0.0122 1.31 0.0245 2.63 0.0371 3.98 0.00193 1.25 0.00387 2.51 0.00586 3.8 0.00411 1.14 0.00822 2.27 0.0125 3.44-0.243 2.84-0.243 2.84-2.24 5.84h-2v2c-3.73 1.24-7.12 1.04-11 0.914-0.783-0.0212-1.57-0.0425-2.37-0.0644-1.66-0.0462-3.31-0.0952-4.97-0.147-2.53-0.0776-5.05-0.145-7.58-0.211-1.61-0.0463-3.22-0.0931-4.83-0.141-0.752-0.0198-1.5-0.0397-2.28-0.0602-2.89-0.0944-5.68-0.23-8.52-0.805-3.35-0.663-6.66-0.629-10.1-0.619-1.08-0.00144-1.08-0.00144-2.18-0.0029-1.51-6.78e-4 -3.02 0.00115-4.53 0.00534-2.31 0.00537-4.63 3.34e-5 -6.94-0.00635-1.47 6.61e-4 -2.94 0.00194-4.41 0.00391-0.691-0.00202-1.38-0.00405-2.09-0.00613-3.03 0.0148-5.34 0.173-8.24 1.14-1.92 0.149-3.84 0.248-5.76 0.316-1.68 0.0628-1.68 0.0628-3.39 0.127-1.17 0.0393-2.33 0.0786-3.54 0.119-1.18 0.0432-2.36 0.0864-3.57 0.131-2.91 0.106-5.83 0.208-8.74 0.307-1.12-4.75-1.12-4.75 0-7 2.11-0.527 2.11-0.527 4.75-0.938 5.01-0.921 8.35-2.16 12-5.81 2.6-4.68 2.38-10.4 2.44-15.6 0.017-1.24 0.034-2.48 0.0516-3.76 0.0139-1.36 0.0276-2.71 0.0412-4.07 0.0178-1.44 0.0359-2.88 0.0543-4.32 0.0583-4.71 0.106-9.42 0.153-14.1 0.00816-0.803 0.0163-1.61 0.0247-2.43 0.077-7.57 0.151-15.1 0.215-22.7 0.0828-9.67 0.183-19.3 0.306-29 0.0855-6.81 0.152-13.6 0.204-20.4 0.0315-4.07 0.0714-8.13 0.132-12.2 0.0564-3.82 0.0891-7.64 0.103-11.5 0.00939-1.4 0.0274-2.8 0.0547-4.2 0.407-7.14 0.407-7.14-1.62-13.8-1.44-1.55-1.44-1.55-3.91-3.09-6.55-6.58-8.05-12.3-8.31-21.4 0.111-6.82 1.3-12.4 5-18.2 1.77-3.2 1.52-5.78 1.31-9.38-2.09-0.555-4.15-1.02-6.29-1.36-2.34-0.391-4.48-0.813-6.71-1.64-1.56-2.62-1.56-2.62-2-5 1-1 1-1 3.37-1.08 1.56 0.0269 1.56 0.0269 3.14 0.0544 1.14 0.0138 2.29 0.0276 3.47 0.0417 1.84 0.0238 1.84 0.0238 3.71 0.0481 12.7 0.0772 24.2-0.709 36.5-4.27 20.5-5.72 40.6-5.36 61.7-3.84zm-0.808 2.04v1h7v-1h-7zm-41.8 19.2c-1.45 1.86-1.45 1.86-1.04 4.54 0.22 0.986 0.441 1.97 0.668 2.99 0.213 0.994 0.425 1.99 0.645 3.01 0.179 0.759 0.358 1.52 0.543 2.3 0.66-0.33 1.32-0.66 2-1-0.33-1.32-0.66-2.64-1-4 1.65-0.33 3.3-0.66 5-1 0.309-0.949 0.619-1.9 0.938-2.88 1.06-3.12 1.06-3.12 2.06-5.12-1.89-0.0928-1.89-0.0928-3.81-0.188-0.708-0.0348-1.42-0.0696-2.14-0.105-2.11 0.159-2.11 0.159-3.86 1.45zm14.8-1.16c-0.33 0.99-0.66 1.98-1 3-1.52 1.36-1.52 1.36-3.38 2.75-3.78 3.17-5.6 5.36-6.62 10.2 1.97 3.12 1.97 3.12 3.66 5.08 3.77 5.4 3.52 13.3 3.82 19.7 0.588 11.5 2.63 22.3 5.4 33.5 0.171 0.707 0.342 1.41 0.518 2.14 0.495 2.03 1.01 4.04 1.54 6.06 0.301 1.17 0.603 2.33 0.914 3.54 1.23 3.21 2.56 4.8 5.16 7.01 8.05-2.96 14.6-6.26 21-12 0.688-0.619 1.38-1.24 2.09-1.88 7.45-7.08 14-14.5 14.3-25 0.16-13.9-1.95-26.9-6.34-40.1h-2c-0.0825-0.743-0.165-1.48-0.25-2.25-0.922-3.38-2.11-4.48-4.75-6.75-2.58-1.29-2.58-1.29-5.38-2.19-0.915-0.324-1.83-0.647-2.77-0.98-5.96-1.74-11.6-1.96-17.7-1.89-1.18 0.00677-1.18 0.00677-2.38 0.0137-1.92 0.0117-3.83 0.0296-5.75 0.0488zm-67 1 1 2zm52 87c0.256 2.34 0.593 4.68 1 7 0.66 0.33 1.32 0.66 2 1-0.256-2.34-0.593-4.68-1-7-0.66-0.33-1.32-0.66-2-1zm61 4c-0.454 0.474-0.908 0.949-1.38 1.44-1.62 1.56-1.62 1.56-4.62 2.56v2c-0.578 0.248-1.15 0.495-1.75 0.75-2.33 1.15-2.33 1.15-4.06 3.12-4.58 4.45-10.5 6.77-16.3 9.2-2.09 0.884-2.09 0.884-3.92 2.93-0.798 12.2 4.71 26.5 8 38 4.31-0.848 6.03-2.74 9-6 0.804-0.825 1.61-1.65 2.44-2.5 10.9-13.4 13.9-34.6 13.6-51.5h-1zm-63 24c0.99 0.495 0.99 0.495 2 1-0.0105 0.792-0.0209 1.58-0.0317 2.4-0.0416 3.6-0.0676 7.19-0.0933 10.8-0.0168 1.25-0.0335 2.49-0.0508 3.78-0.00645 1.2-0.0129 2.4-0.0195 3.64-0.0105 1.1-0.0209 2.21-0.0317 3.35 0.233 3.12 0.815 5.26 2.23 8.05 5.07 4.19 10.4 6.71 17 7-0.147-0.573-0.294-1.15-0.446-1.74-0.526-2.15-0.985-4.29-1.42-6.46-2.55-12.5-2.55-12.5-6.13-24.8-0.392-1.2-0.784-2.39-1.19-3.62-0.402-1.18-0.402-1.18-0.812-2.38-3.73-0.575-7.21-1-11-1zm3 39c-2.14 4.28-1.19 9.99-1.19 14.7-0.00215 2.1-0.0202 4.19-0.0393 6.29-0.48 16.6-0.48 16.6 6.88 30.7 3.9 3.02 7.32 4.77 12.1 5.98 1.47 0.379 1.47 0.379 2.97 0.765 0.742 0.183 1.48 0.366 2.25 0.555-0.24-5.03-0.488-10.1-0.745-15.1-0.0857-1.71-0.169-3.41-0.25-5.12 0.376-17 0.376-17-4.86-32.1-2.84-2.28-5.64-2.8-9.14-3.72-1.67-0.989-3.34-1.99-5-3h-3zm22 35 1 2z" fill="#235F3C"/>
<path transform="translate(317,81)" d="m0 0c0.00497 1.13 0.00497 1.13 0.01 2.27 0.0813 18.3 0.173 36.5 0.277 54.8 0.0501 8.84 0.0965 17.7 0.134 26.5 0.033 7.7 0.0728 15.4 0.121 23.1 0.0252 4.08 0.047 8.15 0.0606 12.2 0.0129 3.84 0.035 7.68 0.064 11.5 0.00903 1.41 0.0148 2.81 0.0168 4.22-0.213 13.4-0.213 13.4 5.32 25.3 6.62 4.75 13 5.79 21 5 7.07-1.65 11.3-4.64 15.6-10.4 0.681-0.797 0.681-0.797 1.38-1.61h2c0.371-1.18 0.371-1.18 0.75-2.38 1.25-3.63 1.25-3.63 2.23-5.78 2.89-6.44 3.59-11.8 3.51-18.8 0.0038-1.05 0.00759-2.1 0.0115-3.18 0.00736-3.44-0.0139-6.88-0.0364-10.3-0.00239-2.41-0.00329-4.82-0.00278-7.22-0.00312-5.03-0.0196-10.1-0.0465-15.1-0.034-6.44-0.0416-12.9-0.0401-19.3-5.45e-4 -4.97-0.0115-9.94-0.026-14.9-0.00634-2.37-0.0103-4.75-0.0118-7.12-0.00436-3.32-0.0219-6.64-0.0432-9.96 9.06e-4 -0.971 0.00181-1.94 0.00275-2.94-0.0918-10.8-0.0918-10.8-4.61-20.3-4.58-4.47-8.58-5.9-14.7-7.62-0.99-0.99-0.99-0.99-2-2 0.33-0.99 0.66-1.98 1-3 1.86-0.0297 1.86-0.0297 3.75-0.0601 4.69-0.0773 9.37-0.166 14.1-0.257 2.01-0.0378 4.02-0.0727 6.03-0.104 20.6-0.247 20.6-0.247 41-3.2 2.13-0.374 2.13-0.374 4.13 0.626 1.04 3.12 1.12 5.26 1.11 8.53-0.00227 1.73-0.00227 1.73-0.00459 3.49-0.00674 1.26-0.0135 2.53-0.0204 3.83-0.00356 1.34-0.00664 2.69-0.00929 4.03-0.00656 2.9-0.0161 5.79-0.0279 8.69-0.0183 4.6-0.0279 9.19-0.0359 13.8-0.0241 13.1-0.0598 26.1-0.105 39.2-0.0247 7.22-0.042 14.4-0.0516 21.7-0.00543 3.81-0.0147 7.62-0.0334 11.4-1.88 25.3-1.88 25.3 5.18 48.3 4.87 3.34 9.25 4.79 15 6v5c-1.27 0.0146-2.54 0.0292-3.85 0.0442-4.8 0.0588-9.59 0.136-14.4 0.218-2.06 0.0329-4.12 0.061-6.18 0.084-11.2 0.128-22 0.465-32.9 2.71-3.85 0.773-6.85 1.13-10.6-0.0557-1-1-1-1-1.11-3.04 0.00786-1.31 0.00786-1.31 0.0159-2.65 0.00483-1.42 0.00483-1.42 0.00977-2.86 0.0126-1.49 0.0126-1.49 0.0254-3.01 0.00451-0.997 0.00902-1.99 0.0137-3.02 0.0118-2.47 0.0283-4.94 0.0488-7.42-1.32-0.33-2.64-0.66-4-1-0.124 0.578-0.248 1.16-0.375 1.75-2.25 8.08-9.49 13-16.5 17.1-16.9 8.75-37.1 9.11-55.2 4.12-8.89-3.28-17.4-10.8-21.5-19.4-4.6-14.7-3.8-31.5-3.84-46.7-0.00845-3.38-0.0291-6.75-0.0525-10.1-0.0557-8.37-0.0917-16.7-0.128-25.1-0.0313-7.12-0.0705-14.2-0.12-21.4-0.0199-3.31-0.0284-6.63-0.0363-9.94-0.013-2.04-0.0265-4.07-0.0406-6.11 9.82e-4 -0.909 0.00196-1.82 0.00298-2.75-0.0791-8.21-0.591-15.2-6.29-21.5v-2c-3.97-1.8-7.68-2.49-12-3v-2h-2c0.33-1.32 0.66-2.64 1-4 1.21-0.0198 2.42-0.0396 3.66-0.0601 4.57-0.0773 9.15-0.166 13.7-0.257 1.96-0.0378 3.93-0.0727 5.89-0.104 12.4-0.204 33.5-6.06 44.7-2.58zm53 150c-0.33 0.99-0.66 1.98-1 3h2c-0.33-0.99-0.66-1.98-1-3z" fill="#F9FCFE"/>
<path transform="translate(1572,89)" d="m0 0v2c0.741 0.251 1.48 0.503 2.25 0.762 8.02 3.6 14.4 12.5 17.7 20.4 3.7 9.73 6.57 18.8 6.94 29.3 0.0335 2.69 0.0335 2.69 1.14 5.57v9c-47 0.495-47 0.495-95 1-0.533 36-0.533 36 15.9 67.1 8.57 8.05 19.5 12.5 31.3 12.3 8.58-0.965 16.6-3.7 23.8-8.32h2c0.33-0.99 0.66-1.98 1-3 0.911-0.435 0.911-0.435 1.84-0.879 2.87-1.49 3.96-3.37 5.72-6.06 1.97-2.97 3.81-5.64 6.44-8.06 2.97 0.99 2.97 0.99 6 2-6.9 20-18.1 35.4-37 45.2-19.1 9.19-40.1 8.45-60 1.88-4.29-1.63-8.11-3.64-12-6.12-1.25-0.806-1.25-0.806-2.53-1.63-18.1-12.2-27.3-29.3-31.5-50.4-5.26-29.8-2.8-62.4 14.1-88.1 8.36-11.8 8.36-11.8 14.9-14.9 0.445-0.454 0.889-0.907 1.35-1.38 9.25-9.1 23.5-12.7 36-14.3 17.8-2.42 33.1-1.3 49.6 6.64zm-55.5 9c-6.11 9.05-8.63 19.4-10.5 30-0.133 0.74-0.266 1.48-0.402 2.24-1.56 10.1-1.56 10.1 0.402 19.8 7.24 0.0253 14.5 0.0428 21.7 0.0549 2.47 0.00504 4.93 0.0119 7.4 0.0205 3.54 0.0121 7.07 0.0178 10.6 0.0222 1.11 0.00516 2.22 0.0103 3.36 0.0156 1.02 7.55e-5 2.04 1.51e-4 3.09 2.29e-4 1.36 0.00333 1.36 0.00333 2.74 0.00673 2.05 0.109 2.05 0.109 3.06-1.12 0.504-9.53-0.0111-18.7-2-28-0.195-1.04-0.389-2.07-0.59-3.14-2.12-10.4-5.14-21.7-13.4-28.9-10.3-3.42-18.9 1.05-25.5 9z" fill="#F9FCFE"/>
<path transform="translate(0,83)" d="m0 0c1.42 0.107 1.42 0.107 2.88 0.217 9.5 0.676 18.9 0.91 28.5 0.859 2.41-0.013 4.83-0.0193 7.24-0.0241 5.1-0.0113 10.2-0.0306 15.3-0.051 5.97-0.0237 11.9-0.044 17.9-0.0559 2.38-0.00648 4.75-0.019 7.13-0.0317 1.44-0.00363 2.89-0.00698 4.33-0.01 1.26-0.00524 2.52-0.0105 3.82-0.0159 2.94 0.114 2.94 0.114 4.94 1.11-0.33 1.65-0.66 3.3-1 5-1.55 0.164-1.55 0.164-3.14 0.332-1.37 0.16-2.74 0.32-4.11 0.48-0.682 0.0703-1.36 0.141-2.07 0.213-3.99 0.484-6.91 0.946-9.68 3.97-3.07 9.29 3.26 19.5 7 27.7 1.75 3.94 3.21 7.96 4.7 12 1.14 2.85 2.37 5.62 3.64 8.41 2.62 5.71 5.06 11.5 7.47 17.3 0.429 1.03 0.859 2.07 1.3 3.13 3.73 9.01 7.38 18.1 11 27.1 0.669 1.68 1.35 3.35 2.03 5.03 0.367 0.899 0.734 1.8 1.11 2.73 0.339 0.823 0.677 1.65 1.03 2.49 0.748 2.06 0.748 2.06 0.748 4.06h4l0.805-3.47c1.12-4.48 2.67-8.72 4.32-13 3.24-8.61 6.19-17.3 9.03-26.1 1.8-5.48 3.77-10.8 5.95-16.2 1.22-3.1 2.18-6.25 3.08-9.46l0.98-3.42c2.86-11.7 3.51-23.5-2.79-34.1-3.91-5.6-8.32-7.66-14.9-9.06-0.825-0.0825-1.65-0.165-2.5-0.25v-2h-2c0.33-1.32 0.66-2.64 1-4 7.81-0.0253 15.6-0.0428 23.4-0.0549 2.66-0.00504 5.32-0.0119 7.98-0.0205 3.82-0.0121 7.63-0.0178 11.4-0.0222 1.8-0.00774 1.8-0.00774 3.63-0.0156 1.65-1.13e-4 1.65-1.13e-4 3.34-2.29e-4 0.975-0.00222 1.95-0.00444 2.95-0.00673 2.21 0.12 2.21 0.12 3.21 1.12 0.328 2.37 0.328 2.37 0 5-1.83 1.62-1.83 1.62-4.25 3-12.7 7.82-17.6 24.7-21.9 38.2-2.06 6.39-4.21 12.6-6.88 18.8-1.21 3.4-2.32 6.82-3.44 10.2-2.12 6.42-4.26 12.8-6.61 19.2-1.16 3.12-2.28 6.26-3.39 9.4l-1.28 3.58c-0.424 1.19-0.848 2.38-1.29 3.61-0.833 2.33-1.67 4.67-2.5 7l-1.25 3.5c-1.25 3.5-2.5 7-3.75 10.5l-1.25 3.51c-0.82 2.29-1.64 4.59-2.46 6.88-2.25 6.3-4.5 12.6-6.72 18.9-0.251 0.712-0.503 1.42-0.761 2.16-1.27 3.61-2.54 7.22-3.8 10.8-4.56 13-9.28 25.9-14.5 38.7h-2c-0.268 1.13-0.536 2.27-0.812 3.44-0.392 1.18-0.784 2.35-1.19 3.56-0.99 0.33-1.98 0.66-3 1-0.289 0.598-0.578 1.2-0.875 1.81-3.13 6.09-10 8.17-16.1 10.2-14 3.87-28 2.27-40.9-4.68-2.81-1.78-4.95-3.79-7.09-6.32-0.866-0.959-0.866-0.959-1.75-1.94-3.09-5.1-2.9-12.3-2.25-18.1 1.97-6.14 5.48-11.2 11.3-14.2 9.11-3.84 19-4.5 28.4-1.12 3.85 1.79 6.13 3.63 8.38 7.31 0.514 0.74 1.03 1.48 1.56 2.24 2.76 5.29 2.32 11 1.44 16.8-3.02 6.76-7.77 11.2-14 15 8.04-0.126 14.5-0.418 21.3-4.94 1.67-1.06 1.67-1.06 3.67-1.06 0.26-0.557 0.521-1.11 0.789-1.69 1.35-2.58 2.94-4.9 4.59-7.31 3.17-4.92 5.14-9.68 6.8-15.3 0.824-2.73 0.824-2.73 1.93-5.14 2.38-6.88 0.229-12-2.73-18.2-0.363-0.787-0.726-1.57-1.1-2.38-1.08-2.34-2.18-4.66-3.27-6.99-0.577-1.25-1.15-2.5-1.73-3.75-0.986-2.15-1.98-4.29-2.97-6.43-2.51-5.43-4.95-10.9-7.12-16.4-2.26-5.73-4.9-11.3-7.52-16.8-2.86-6.08-5.54-12.2-8.1-18.4-2-4.83-4.13-9.59-6.31-14.3-1.31-2.91-2.54-5.84-3.75-8.78-2.76-6.68-5.76-13.2-8.79-19.8-1.97-4.29-3.88-8.57-5.59-13-7.85-22.6-7.85-22.6-22.1-40.1-2.72-1.05-5.18-1.76-8.06-2.19v-7zm114 123 1 2 1-2h-2z" fill="#F9FCFE"/>
<path transform="translate(804 110)" d="m0 0c2.23 1.86 2.88 3.24 4.14 5.78 0.646 0.311 1.29 0.621 1.96 0.941 2.81 1.46 3.41 3.16 4.73 6 0.416 0.875 0.833 1.75 1.26 2.65 5.45 12.5 4.06 31.2-0.762 43.8-0.701 1.55-1.43 3.1-2.19 4.62-0.452 0.933-0.905 1.87-1.37 2.83-1.19 2.4-2.39 4.79-3.63 7.17h-2c-0.268 0.969-0.536 1.94-0.812 2.94-0.392 1.01-0.784 2.02-1.19 3.06-1.49 0.495-1.49 0.495-3 1-0.698 1.32-1.36 2.65-2 4-1.6 1.84-1.6 1.84-3.48 3.71-0.688 0.686-1.38 1.37-2.09 2.08-0.719 0.707-1.44 1.41-2.18 2.14-1.06 1.05-1.06 1.05-2.13 2.13-11 10.9-11 10.9-14.1 10.9 0.233 4.09 0.391 6.34 3.22 9.41 0.937 0.691 1.87 1.38 2.84 2.09 1 0.762 2 1.52 3.03 2.31 0.959 0.723 1.92 1.45 2.91 2.19 1.37 1.17 2.72 2.36 4.06 3.56 4.52 3.98 9.2 7.73 13.9 11.4 0.616 0.483 1.23 0.966 1.87 1.46 29.1 23.5 29.1 23.5 63.4 36.4 3.37 0.615 5.42 1.25 7.81 3.75 2.42 4.35 2.44 6.46 1.88 11.4-2.13 3.19-3.19 3.83-6.83 4.71-20.1 2.72-41.9-13.3-57.1-24.8-1.15-0.879-2.29-1.76-3.44-2.64-2.43-1.85-4.93-3.59-7.42-5.35-4.44-3.22-8.44-6.74-12.5-10.5-3.72-3.29-7.63-6.3-11.6-9.32-3.58-2.78-6.94-5.67-10.2-8.78-6.28-5.77-14.3-12.2-22.9-13.3 0.289 1.28 0.577 2.57 0.875 3.89 1.68 7.57 3.2 15.2 4.67 22.8 0.372 1.91 0.762 3.81 1.16 5.71 1.34 7.2 1.56 14.4 1.67 21.7 0.0261 1.01 0.0522 2.03 0.0791 3.07 0.0169 7.17 0.0169 7.17-2.21 10.5-3.74 2.32-6.87 3.14-11.2 2.39-6.62-4.1-8.38-11.3-10.2-18.4-0.272-1.18-0.544-2.35-0.824-3.56-0.328-1.21-0.656-2.41-0.993-3.66-1.11-4.45-1.57-8.86-1.94-13.4-0.157-1.76-0.315-3.51-0.473-5.27-0.237-2.71-0.47-5.43-0.697-8.14-1.52-18-5.07-35.1-9.72-52.6-4-16.4-6.41-38.8 0.566-54.7 2.47-3.5 4.37-5.37 8.25-7.19 2.44 0.125 2.44 0.125 5 1 1.89 0.526 1.89 0.526 3.81 1.06 1.05 0.309 2.1 0.619 3.19 0.938 0.0825-0.681 0.165-1.36 0.25-2.06 1.89-7.39 7.07-13.1 11.8-18.9 1.05-1.39 1.05-1.39 2.12-2.81 14.1-16.5 34.2-12.6 50.7-1.97zm-38.3 16.1c-14.2 15.9-15.4 43.3-17.4 63.5-0.0693 0.701-0.139 1.4-0.21 2.12-0.609 6.05-0.609 6.05-0.978 12.1 1.12 1.34 1.12 1.34 4 1.25 11.1-0.205 20.3-6.82 27.7-14.5 6.73-7.95 12.1-17.2 16.3-26.7 0.392-0.812 0.784-1.62 1.19-2.46 3.62-8.38 4.79-19.6 1.86-28.4-0.347-0.71-0.694-1.42-1.05-2.15-0.588-1.27-0.588-1.27-1.19-2.56-2.91-3.91-6.69-5.8-11.3-7.19-7.67-0.767-13-0.209-19 5.03zm-48.5 55.7 1 2zm1 7 1 2zm9 38 1 2zm4 41 1 2z" fill="#235F3C"/>
<path transform="translate(1076,99)" d="m0 0c0.99 0.33 1.98 0.66 3 1 0.249 2.1 0.473 4.21 0.688 6.31 0.128 1.17 0.255 2.34 0.387 3.55-0.0742 3.14-0.0742 3.14-1.39 4.96-1.39 0.977-2.85 1.87-4.31 2.74-2.49 1.22-2.49 1.22-3.38 3.44-0.0998 2.51-0.142 4.99-0.125 7.5 0.00338 0.723 0.00677 1.45 0.0103 2.19 0.0661 6.88 0.438 13.6 1.99 20.3 1.31 5.78 2.55 11.6 3.75 17.4 0.229 1.06 0.459 2.12 0.695 3.21 1.42 6.9 1.98 13.4 1.68 20.4-1.02-0.119-2.05-0.237-3.11-0.359-1.36-0.131-2.72-0.262-4.08-0.391-0.674-0.0812-1.35-0.162-2.04-0.246-3.71-0.326-5.52-0.166-8.7 1.86-2.96 3.06-3.2 4.63-3.14 8.77 0.00902 0.817 0.018 1.63 0.0273 2.48 0.0116 0.626 0.0232 1.25 0.0352 1.9 0.581 0.289 1.16 0.577 1.76 0.875 1.38 0.696 2.76 1.4 4.13 2.12 4.31 2.25 8.39 3.82 13.1 5v2h2c0.0251 0.797 0.0501 1.59 0.0759 2.42 0.116 3.61 0.239 7.22 0.362 10.8 0.0393 1.25 0.0786 2.51 0.119 3.8 0.0419 1.21 0.0838 2.41 0.127 3.65 0.0367 1.11 0.0733 2.22 0.111 3.36 0.174 2.49 0.369 4.59 1.21 6.93 4.74 3.73 10.2 6.37 16 8 1 1 1 1 1.06 3.56-0.0206 0.804-0.0412 1.61-0.0625 2.44-1.5-0.406-3-0.826-4.5-1.25-1.25-0.348-1.25-0.348-2.53-0.703-3.84-1.35-7.37-3.17-11-5.05-0.0501 4.48-0.086 8.96-0.11 13.4-0.00995 1.52-0.0235 3.04-0.041 4.56-0.608 16.7-0.608 16.7 5.15 32 4.51 4.42 10 6.33 16 8v2h2c1.38 1.63 2.72 3.29 4 5-4.04 0.0248-8.08 0.0429-12.1 0.0549-1.37 0.00501-2.74 0.0118-4.12 0.0205-1.98 0.0122-3.96 0.0173-5.94 0.0222-1.78 0.00786-1.78 0.00786-3.6 0.0159-3.23-0.114-3.23-0.114-5.68-0.611-3.38-0.667-6.71-0.645-10.1-0.635-1.08-0.00144-1.08-0.00144-2.18-0.0029-1.51-6.78e-4 -3.02 0.00115-4.53 0.00534-2.31 0.00537-4.63 3.34e-5 -6.94-0.00635-1.47 6.61e-4 -2.94 0.00194-4.41 0.00391-0.691-0.00202-1.38-0.00405-2.09-0.00613-3.03 0.0148-5.34 0.173-8.24 1.14-1.92 0.149-3.84 0.248-5.76 0.316-1.68 0.0628-1.68 0.0628-3.39 0.127-1.17 0.0393-2.33 0.0786-3.54 0.119-1.18 0.0432-2.36 0.0864-3.57 0.131-2.91 0.106-5.83 0.208-8.74 0.307-1.12-4.75-1.12-4.75 0-7 2.11-0.527 2.11-0.527 4.75-0.938 5.01-0.921 8.35-2.16 12-5.81 2.61-4.7 2.38-10.4 2.41-15.7 0.00979-1.25 0.0196-2.49 0.0297-3.78 0.0059-1.36 0.0117-2.73 0.0174-4.09 0.00959-1.45 0.0196-2.9 0.03-4.35 0.0269-3.92 0.048-7.84 0.068-11.8 0.0219-4.1 0.0493-8.2 0.0761-12.3 0.0498-7.76 0.0948-15.5 0.138-23.3 0.0495-8.84 0.104-17.7 0.16-26.5 0.114-18.2 0.221-36.3 0.323-54.5 0.779-0.327 1.56-0.654 2.36-0.99 1.51-0.656 1.51-0.656 3.06-1.33 1.51-0.645 1.51-0.645 3.05-1.3 2.81-1.2 2.81-1.2 3.88-4.33-0.382-3.43-1.26-5.83-2.78-8.93-2.85-6.42-3.92-10.6-1.31-17.4 4.1-6.44 8.75-8.24 15.8-10.8 0.969-0.371 1.94-0.743 2.94-1.12 3.82-1.09 7.65-1.71 11.6-2.31 2.72-0.459 2.72-0.459 5.49-2.56z" fill="#F9FCFE"/>
<path transform="translate(595,99)" d="m0 0c2.12 0.938 2.12 0.938 4 2-1.14 1.55-1.14 1.55-2.31 3.12-1.77 2.43-2.84 4.27-3.94 7.12-2.63 4.13-6.17 4.6-10.8 5.75-0.99 0.33-1.98 0.66-3 1-2.59 9.71-0.511 20.1 0.875 29.8 0.174 1.3 0.348 2.59 0.527 3.93 0.757 5.42 1.51 10.2 3.6 15.3 0.405 1.79 0.76 3.6 1.07 5.41 0.174 1.01 0.348 2.02 0.527 3.05 0.261 1.56 0.261 1.56 0.527 3.16 0.182 1.05 0.364 2.1 0.551 3.18 1.32 7.77 1.32 7.77 1.32 11.2-0.557-0.144-1.11-0.289-1.69-0.438-7.03-1.71-13.6-2.94-20.3 0.438-1.08 5.91-1.08 5.91-0.125 11.8 4.61 4.88 10.7 7.19 16.9 9.4 0.976 0.349 1.95 0.699 2.96 1.06 1.1 0.391 1.1 0.391 2.23 0.789 0.0251 0.736 0.0501 1.47 0.0759 2.23 0.116 3.34 0.239 6.68 0.362 10 0.0393 1.16 0.0786 2.32 0.119 3.51 0.0419 1.12 0.0838 2.23 0.127 3.38 0.0367 1.03 0.0733 2.05 0.111 3.11 0.257 3.45 0.257 3.45 1.21 6.75 3.57 2.35 6.74 3.9 10.8 5.38 3.9 1.95 4.74 3.62 6.25 7.62-6.69-0.446-12-3.07-18-6-0.108 11.3-0.0865 22.7 0.312 34 0.0225 0.912 0.045 1.82 0.0681 2.76 0.209 5.07 0.645 8.94 3.62 13.2 2.45 1.94 2.45 1.94 5.31 3.31 0.924 0.491 1.85 0.982 2.8 1.49 2.98 1.24 5.69 1.8 8.89 2.2v7h-89c-0.33-0.99-0.66-1.98-1-3 2-3 2-3 4.21-3.55 0.86-0.106 1.72-0.211 2.61-0.32 4.83-0.837 7.14-2.12 10.2-6.12 2.13-3.42 2.26-6.14 2.28-10.1 0.0112-1.26 0.0223-2.52 0.0338-3.82 0.00236-1.39 0.00454-2.79 0.00655-4.18 0.0093-1.47 0.0195-2.94 0.0304-4.41 0.0273-3.99 0.0425-7.97 0.0554-12 0.0156-4.17 0.0424-8.33 0.068-12.5 0.0468-7.89 0.0835-15.8 0.117-23.7 0.0382-8.98 0.0876-18 0.138-26.9 0.103-18.5 0.193-36.9 0.273-55.4 0.957-0.524 0.957-0.524 1.93-1.06 0.826-0.455 1.65-0.91 2.5-1.38 1.24-0.679 1.24-0.679 2.5-1.37 1.99-1.03 1.99-1.03 3.07-2.19-0.304-4.33-0.848-7.89-2.56-11.9-1.87-4.68-2.07-9.15-1.44-14.1 3.19-7.33 8.78-10.1 15.9-12.9 4.01-1.41 7.96-2.28 12.1-3.1 0.33-0.33 0.66-0.66 1-1 1.62-0.261 3.25-0.46 4.88-0.625 0.884-0.0954 1.77-0.191 2.68-0.289 2.45-0.0859 2.45-0.0859 5.45 0.914 1.19 3.56 1.19 3.56 2 7v-5h3v-3c0.66-0.33 1.32-0.66 2-1zm-4 5 1 2z" fill="#F9FCFE"/>
<path transform="translate(1343 84)" d="m0 0c0.809 0.00363 1.62 0.00726 2.45 0.011 0.923 7e-3 0.923 7e-3 1.87 0.0141 0.0022 1.17 0.0022 1.17 0.00444 2.36 0.0371 19 0.0961 38 0.179 57 0.0398 9.19 0.0722 18.4 0.0871 27.6 0.013 8.01 0.04 16 0.0836 24 0.0226 4.24 0.0383 8.48 0.0373 12.7-7.48e-4 4 0.0173 7.99 0.0493 12 0.00848 1.46 0.0103 2.92 0.00463 4.39-0.115 11.6-0.115 11.6 4.55 21.9 2.54 1.84 5.05 2.95 8 4 1.12 0.427 1.12 0.427 2.26 0.863 1.91 0.723 3.82 1.43 5.74 2.14 1 1 1 1 1 6h-89c-0.33-1.98-0.66-3.96-1-6 1.6-1.6 3.56-1.51 5.75-1.88 5.03-0.976 8.5-2.18 12-6.06 2.21-3.65 2.38-7.05 2.38-11.3 0.00426-1.05 0.00853-2.11 0.0129-3.19-4.53e-4 -1.15-9.06e-4 -2.3-0.00137-3.48 0.00336-1.22 0.00672-2.43 0.0102-3.68 0.00787-3.33 0.0112-6.66 0.0118-9.99 7.11e-4 -2.08 0.00285-4.17 0.0055-6.25 0.00925-7.28 0.0133-14.6 0.0125-21.8-6e-4 -6.77 0.00993-13.5 0.0257-20.3 0.0131-5.82 0.0184-11.6 0.0178-17.5-2.54e-4 -3.47 0.00255-6.95 0.0132-10.4 0.0116-3.88 0.00691-7.76 8.95e-4 -11.6 0.00843-1.71 0.00843-1.71 0.017-3.45-0.0336-8.55-0.619-17.1-5.42-24.4-3.77-3.41-8.96-3.92-13.8-4.66v-2c-0.66-0.33-1.32-0.66-2-1 0.33-0.99 0.66-1.98 1-3 0.855 0.00524 1.71 0.0105 2.59 0.0159 26.9 0.531 26.9 0.531 53.5-2.61 2.61-0.357 5-0.443 7.63-0.427z" fill="#F9FCFE"/>
<path transform="translate(970,102)" d="m0 0c2.73 3.1 3.87 5.41 4.75 9.44-1.15 5.45-4.24 7.52-8.75 10.6-2.93 1.66-5.88 3.27-8.84 4.87-5.64 3.16-9.2 7.14-13.2 12.1-0.978 0.93-0.978 0.93-1.98 1.88-4.36 4.57-7.07 10.6-10 16.1-0.33 0.62-0.661 1.24-1 1.88-4.89 9.34-8.51 19-11.9 29-0.381 1.13-0.763 2.26-1.16 3.42-2.24 6.84-3.9 13.6-4.97 20.7 5.54-0.361 9.39-2.04 14.3-4.61 4.78-2.44 9.73-4.42 14.7-6.39 1.22-0.494 2.44-0.987 3.7-1.5 1.25-0.482 2.49-0.963 3.74-1.44 1.13-0.442 2.27-0.884 3.43-1.34 3.59-0.828 4.96-0.483 8.13 1.28 1.81 1.5 1.81 1.5 3 3v2h2c0.371 7.55 0.371 7.55-1.25 9.5-1.94 1.66-3.68 2.51-6.04 3.48-1.28 0.533-1.28 0.533-2.58 1.08-0.909 0.373-1.82 0.745-2.76 1.13-7.02 2.94-14 5.94-20.9 9.19-0.687 0.321-1.37 0.642-2.08 0.973-3.6 1.71-7.04 3.55-10.4 5.65-0.908 0.516-1.82 1.03-2.75 1.56-2.37 1.24-2.37 1.24-3.25 3.44-0.641 6.05 0.133 10.6 3 16 0.271 0.614 0.541 1.23 0.82 1.86 4.15 8.17 13.1 13.9 21.3 17.5 5.28 1.59 9.46 1.95 14.9 0.664 0.688-0.0799 1.38-0.16 2.09-0.242 7.43-1.01 13.5-4.34 20.1-7.79 3.54-1.86 7.14-3.44 10.8-4.97 6.52 4.39 6.52 4.39 7.61 8.04 0.139 3.54-0.356 5.63-2.48 8.46-2.12 1.5-2.12 1.5-4.12 1.5-0.33 0.99-0.66 1.98-1 3-11.3 8.85-26.5 14.7-41 14-1.68-0.283-3.34-0.617-5-1-0.911-0.179-1.82-0.358-2.76-0.543-13.9-3.06-24.7-11-32.6-22.9-1.98-3.13-3.82-6.34-5.63-9.57-0.532-0.842-1.06-1.68-1.61-2.55-1.45-2.56-2.28-4.93-3.07-7.76-0.251-0.883-0.503-1.77-0.762-2.68-0.182-0.664-0.364-1.33-0.551-2.01-0.83 0.197-0.83 0.197-1.68 0.399-2.56 0.597-5.13 1.16-7.7 1.73l-2.64 0.629c-7.4 1.59-14 1.47-20.7-2.26-0.626-0.534-1.25-1.07-1.9-1.62-0.652-0.539-1.3-1.08-1.98-1.63-0.461-0.41-0.923-0.82-1.4-1.24 0.532-4.53 2.27-7.39 5-11 3.76-2.51 5.47-2.06 9.94-1.81 7.62 0.253 13.2-1.78 20.1-5.19 0.0501-0.71 0.1-1.42 0.152-2.15 0.234-3.26 0.479-6.52 0.723-9.79 0.0786-1.12 0.157-2.23 0.238-3.38 0.488-6.4 1.28-12.5 2.89-18.7 0.307-1.27 0.614-2.54 0.93-3.84 1.82-7.04 3.86-13.6 7.07-20.2 0.931-1.99 1.85-3.98 2.78-5.96 1.4-3.02 2.81-6.03 4.22-9.04h2c0.433-1.36 0.433-1.36 0.875-2.75 0.89-2.57 1.84-4.86 3.12-7.25h2c0.272-0.732 0.544-1.46 0.824-2.22 2.77-6.55 7.04-11.9 12.2-16.8 0.681-0.908 1.36-1.81 2.06-2.75 6.45-7.82 26.1-23.7 36.9-19.2zm-75 92 1 2z" fill="#235F3C"/>
<path transform="translate(1136 80.6)" d="m0 0c11.4 0.131 22.8 5.73 30.9 13.4 0.926 0.845 0.926 0.845 1.87 1.71 1.44 1.37 2.8 2.82 4.13 4.29v2c0.99 0.33 1.98 0.66 3 1 2.34 3.47 4.12 7.26 6 11 0.449 0.862 0.897 1.72 1.36 2.61 5.56 11.3 8.3 23.8 8.64 36.4 0.0205 0.657 0.0409 1.31 0.062 1.99 0.588 21.5-0.43 44-9.06 64-0.312 0.727-0.624 1.45-0.945 2.2-4.74 10.3-11.6 21.3-21.1 27.8-0.674 0.496-1.35 0.993-2.04 1.5-10.5 7.45-23.9 13.5-37.1 13-1.85-0.48-1.85-0.48-4.48-3.11-1.58-3.89-1.9-5.47-0.375-9.38 1.97-1.38 3.98-2.7 6-4 12.5-12.9 14.9-31.5 16.9-48.5 0.113-0.913 0.226-1.83 0.343-2.77 0.144-1.23 0.144-1.23 0.291-2.48 1.03-5.14 3.82-7.63 7.45-11.3 1.35-1.99 2.69-3.99 4-6 0.452-0.406 0.905-0.812 1.37-1.23 10.6-11.5 14.4-30.4 13.9-45.4-1.13-15.3-8.28-26.1-19.2-36.4-2.9-1.9-5.88-3.5-9-5v-2c-0.763-0.289-1.53-0.578-2.31-0.875-2.69-1.12-2.69-1.12-5.69-3.12 1.54-1.54 2.91-1.32 5.06-1.44z" fill="#F9FCFE"/>
<path transform="translate(643 78)" d="m0 0c0.8 0.052 1.6 0.104 2.42 0.157 10.7 0.906 20.1 4.58 28.1 11.8 0.75 0.67 1.5 1.34 2.27 2.03 5.41 5.11 9.25 10.4 12.7 17 0.551 1 0.551 1 1.11 2.02 1.04 1.97 1.98 3.95 2.89 5.98 0.339 0.75 0.678 1.5 1.03 2.27 12 29.5 8.26 68.4-3.1 97.5-1.98 4.62-4.36 8.94-6.93 13.3h-2c-0.104 0.571-0.209 1.14-0.316 1.73-2.55 8.48-10.5 13.8-17.7 18.3-1.09 0.701-2.19 1.4-3.31 2.12-10.6 5.7-20.9 7.86-32.7 8.88-2.02-3.04-2.32-4.19-2.62-7.69-0.0748-0.808-0.15-1.62-0.227-2.45-0.049-0.615-0.098-1.23-0.148-1.86 0.599-0.266 1.2-0.531 1.82-0.805 8.18-4.48 13.3-15.4 16.2-23.8 2.5-8.71 4.47-17.7 5.51-26.8 0.901-7.07 3.56-10.8 8.46-15.6 1.78-2.13 3.45-4.34 5.12-6.56 0.429-0.564 0.859-1.13 1.3-1.71 1.2-1.57 2.39-3.15 3.57-4.73 0.565-0.694 1.13-1.39 1.71-2.1 1.49-2.2 2.11-4.15 2.79-6.71 0.866-3.12 1.77-5.79 3.12-8.75 1.69-4.22 2.14-7.92 2.38-12.4 0.0529-0.931 0.106-1.86 0.16-2.82 0.47-15.6-5.06-27.6-15.2-39.2-8.32-8.32-19.9-12.8-31-16 3.68-3.75 7.53-3.34 12.4-3z" fill="#F9FCFE"/>
<path transform="translate(1320 -.0859)" d="m0 0c2.23-0.0389 4.45 0.0034 6.68 0.0859 0.753 0.0168 1.51 0.0335 2.28 0.0508 5.92 0.355 10.2 2.06 14.7 5.95 2.23 2.53 4.15 5.18 6 8 0.66 0.99 1.32 1.98 2 3 1.71 8.53 1.07 15.6-3.12 23.2-3.53 5.21-7.68 7.99-13.8 9.56-11 2.01-23.2 2.74-33-3.5-4.55-3.33-8.3-6.79-10.1-12.2-1.27-17.3-1.27-17.3 3.72-23.6 0.423-0.473 0.846-0.946 1.28-1.43 0.433-0.742 0.866-1.48 1.31-2.25 6-6.22 13.9-6.53 22-6.84z" fill="#F9FCFE"/>
<path transform="translate(119,84)" d="m0 0c7.81-0.0253 15.6-0.0428 23.4-0.0549 2.66-0.00504 5.32-0.0119 7.98-0.0205 3.82-0.0121 7.63-0.0178 11.4-0.0222 1.8-0.00774 1.8-0.00774 3.63-0.0156 1.65-1.13e-4 1.65-1.13e-4 3.34-2.29e-4 0.975-0.00222 1.95-0.00444 2.95-0.00673 2.21 0.12 2.21 0.12 3.21 1.12 0.328 2.38 0.328 2.38 0 5-1.83 1.62-1.83 1.62-4.25 3-12.7 7.82-17.6 24.7-21.9 38.2-2.06 6.39-4.21 12.6-6.88 18.8-1.21 3.4-2.32 6.82-3.44 10.2-2.97 9.01-6.02 18-9.56 26.8h-2c-0.99 3.63-1.98 7.26-3 11h-2c0.66-3.63 1.32-7.26 2-11h-2c0.414-1.24 0.828-2.48 1.25-3.75 1.22-3.67 2.44-7.35 3.65-11 0.678-2.05 1.36-4.11 2.04-6.16 0.335-1.02 0.669-2.04 1.01-3.09 1.87-5.66 3.91-11.2 6.16-16.7 1.22-3.1 2.17-6.24 3.07-9.44 0.324-1.13 0.647-2.26 0.98-3.42 2.86-11.7 3.51-23.5-2.79-34.1-3.91-5.6-8.32-7.66-14.9-9.06-0.825-0.0825-1.65-0.165-2.5-0.25v-2h-2c0.33-1.32 0.66-2.64 1-4z" fill="#F9FCFE"/>
<path transform="translate(1332 95.9)" d="m0 0c1.24 0.0174 1.24 0.0174 2.5 0.0352 0.826 0.00902 1.65 0.018 2.5 0.0273 0.638 0.0116 1.28 0.0232 1.93 0.0352v8h4v100h-1v-5c-1.48 0.495-1.48 0.495-3 1-0.33 2.97-0.66 5.94-1 9h-1v-10h-7v-6h2v-15h-2c-0.145-4.59-0.287-9.17-0.427-13.8-0.0477-1.55-0.0962-3.11-0.146-4.66-0.907-28.6-0.907-28.6 0.573-31.6h6c0.33-3.3 0.66-6.6 1-10h-5v-12h-2v-2h-4v-4h-2v-2c1.21-0.217 1.21-0.217 2.44-0.438 2.55-0.56 3.14-1.54 5.63-1.66z" fill="#FBFDFF"/>
<path transform="translate(385,190)" d="m0 0c2.97 0.33 5.94 0.66 9 1v6c-0.804 0.124-1.61 0.248-2.44 0.375-1.27 0.309-1.27 0.309-2.56 0.625-0.33 0.66-0.66 1.32-1 2h6c0.33 2.31 0.66 4.62 1 7h17v2h-5v10c-4 1-4 1-6 1-2.06 0.328-2.06 0.328-4 1-0.33 0.66-0.66 1.32-1 2h-6v-6h-5c-0.33-4.62-0.66-9.24-1-14 1.32 0.33 2.64 0.66 4 1v-3h-4c0.33-3.63 0.66-7.26 1-11z" fill="#FBFDFF"/>
<path transform="translate(95,269)" d="m0 0h2c1.19 4.88 0.748 7.64-1.19 12.2-0.461 1.12-0.923 2.25-1.4 3.4-0.467 1.1-0.933 2.21-1.41 3.35-0.774 1.94-1.55 3.87-2.31 5.81-0.562 1.4-1.12 2.79-1.69 4.19h-2c-0.268 1.13-0.536 2.27-0.812 3.44-0.392 1.18-0.784 2.35-1.19 3.56-1.48 0.495-1.48 0.495-3 1-0.289 0.598-0.578 1.2-0.875 1.81-3.12 6.06-10 8.2-16.1 10.2-2.36 0.507-4.59 0.79-7 1v-2c1.32-0.66 2.64-1.32 4-2-0.99-0.66-1.98-1.32-3-2 1.01-0.248 2.02-0.495 3.06-0.75 2.85-0.799 5.21-1.87 7.75-3.38 3.19-1.88 3.19-1.88 5.19-1.88 0.26-0.557 0.521-1.11 0.789-1.69 1.35-2.58 2.94-4.9 4.59-7.31 3.17-4.92 5.09-9.67 6.78-15.2 1.04-3.39 2.38-6.53 3.84-9.75h2c0.66-1.32 1.32-2.64 2-4z" fill="#F6F9FA"/>
<path transform="translate(1505,148)" d="m0 0c0.33 0.66 0.66 1.32 1 2 17.5-0.33 35-0.66 53-1v7c-7.37 0.0253-14.7 0.0428-22.1 0.0549-2.51 0.00504-5.02 0.0119-7.53 0.0205-3.6 0.0121-7.2 0.0178-10.8 0.0222-1.69 0.00774-1.69 0.00774-3.42 0.0156-1.04 7.55e-5 -2.08 1.51e-4 -3.15 2.29e-4 -0.919 0.00222-1.84 0.00444-2.79 0.00673-2.21-0.12-2.21-0.12-4.21-1.12v-7z" fill="#F8FBFC"/>
<path transform="translate(642,108)" d="m0 0c6.77 2.83 10.6 7.16 13.4 13.9 1.17 3.99 0.998 8.01 0.921 12.1 0.00322 0.872 0.00645 1.74 0.00977 2.64-0.0614 7.38-1.89 12.8-5.32 19.3h-1c-0.124-1.3-0.247-2.6-0.375-3.94-0.206-2.02-0.415-4.04-0.625-6.06-0.134-1.31-0.268-2.61-0.406-3.96-1.24-11.6-3.14-22.9-6.59-34z" fill="#F9FCFE"/>
<path transform="translate(1048,224)" d="m0 0h21v2h2v13h3v3c-0.66 0.33-1.32 0.66-2 1 0.66 0.33 1.32 0.66 2 1v3h-8c-0.33-0.99-0.66-1.98-1-3h4v-2h-4c-0.66-2.64-1.32-5.28-2-8h-11v-5h-4v-5z" fill="#FBFDFF"/>
<path transform="translate(1132,108)" d="m0 0c7.22 2.06 10.4 6.56 14 13 1.46 4.73 1.22 9.53 1.25 14.4 0.0206 0.942 0.0412 1.88 0.0625 2.85 0.0285 5.05 0.0295 8.63-3.31 12.7-0.66 0.66-1.32 1.32-2 2-0.098-0.706-0.196-1.41-0.297-2.14-2.64-20.1-2.64-20.1-8.97-39.2-0.734-1.68-0.734-1.68-0.734-3.68z" fill="#F9FCFE"/>
<path transform="translate(525 83)" d="m0 0c1.6 0.0423 3.21 0.0904 4.81 0.143 1.26 0.0354 1.26 0.0354 2.55 0.0715 2.7 0.0768 5.4 0.161 8.1 0.245 1.83 0.0532 3.65 0.106 5.48 0.158 4.49 0.129 8.97 0.265 13.5 0.404-5.65 3.77-11.4 7.31-17.6 10.2-3.48 1.34-3.48 1.34-4.44 3.75h-2c-0.0619-0.619-0.124-1.24-0.188-1.88-0.614-2.31-0.614-2.31-2.88-3.19-1.67-0.532-3.33-1.05-5.01-1.55-2.09-0.676-4-1.33-5.93-2.39-1.06-2.62-1.06-2.62-1-5 1-1 1-1 4.6-1.02z" fill="#F5F9FA"/>
<path transform="translate(140,144)" d="m0 0c1.02 3.05 1.04 4.61 0.75 7.75-0.067 0.82-0.134 1.64-0.203 2.48-0.551 2.79-1.52 5.13-2.68 7.71-2.15 5.1-3.67 10.5-5.35 15.8-0.296 0.909-0.592 1.82-0.896 2.76-0.264 0.825-0.527 1.65-0.799 2.5-1.06 2.65-2.82 4.04-4.82 6.04-0.677 2.2-0.677 2.2-1.12 4.62-0.168 0.817-0.335 1.63-0.508 2.48-0.121 0.626-0.242 1.25-0.367 1.9h-2c0.66-3.63 1.32-7.26 2-11h-2c0.621-1.85 0.621-1.85 1.25-3.73 1.25-3.74 2.46-7.5 3.65-11.3 0.678-2.11 1.36-4.22 2.04-6.32 0.502-1.61 0.502-1.61 1.01-3.24 0.335-1.03 0.669-2.06 1.01-3.12 0.295-0.927 0.59-1.85 0.894-2.81 1.3-2.86 2.74-4.51 5.14-6.51h2c0.33-1.98 0.66-3.96 1-6z" fill="#F5F8F9"/>
<path transform="translate(1015 86.9)" d="m0 0c1.25-0.0029 1.25-0.0029 2.53-0.00586 0.894 0.00451 1.79 0.00902 2.71 0.0137 0.901 0.00193 1.8 0.00387 2.73 0.00586 7.05 0.0453 14 0.403 21 1.12-0.567 0.246-1.13 0.492-1.72 0.746-3.52 1.93-6.16 4.73-9.06 7.48-2.22 1.78-3.39 2.62-6.22 2.78-1.89-0.961-1.89-0.961-3.81-2.38-3.84-2.6-6.59-3.34-11.2-3.62-0.66-1.65-1.32-3.3-2-5 1.53-1.53 2.89-1.13 5.02-1.13z" fill="#F8FBFC"/>
<path transform="translate(1039,260)" d="m0 0c2.97 0.33 5.94 0.66 9 1-0.0116 0.759-0.0232 1.52-0.0352 2.3-0.00902 0.994-0.018 1.99-0.0273 3.01-0.0116 0.986-0.0232 1.97-0.0352 2.99-0.0256 2.8-0.0256 2.8 1.1 5.7h2v-2h2c0.66 0.66 1.32 1.32 2 2h3v6c-1.07 0.0735-1.07 0.0735-2.15 0.148-0.919 0.0748-1.84 0.15-2.79 0.227-1.37 0.104-1.37 0.104-2.78 0.211-0.754 0.137-1.51 0.273-2.29 0.414-0.33 0.66-0.66 1.32-1 2-3-1-3-1-6-3-0.293-2.02-0.293-2.02-0.188-4.38 0.0271-0.771 0.0541-1.54 0.082-2.34 0.0348-0.755 0.0696-1.51 0.105-2.29v-4-6h-2v-2z" fill="#FBFDFF"/>
<path transform="translate(1576,120)" d="m0 0h1v5h3c0.33-1.65 0.66-3.3 1-5h1v5h4c-0.186 0.578-0.371 1.16-0.562 1.75-0.623 2.2-0.623 2.2 0.188 4.06 0.607 3.54-1.09 6-2.62 9.19-0.289-0.619-0.578-1.24-0.875-1.88-1.06-2.26-1.06-2.26-3.12-4.12-0.33 3.63-0.66 7.26-1 11-1.8-3.61-2.47-6.08-3-10h-6v-2h6v-3h-6v-2h6c-0.0206-0.949-0.0412-1.9-0.0625-2.88 0.0625-3.12 0.0625-3.12 1.06-5.12z" fill="#FBFDFF"/>
<path transform="translate(143,124)" d="m0 0c0.66 0.99 1.32 1.98 2 3 0.99-0.99 1.98-1.98 3-3 1.37 10.6-3.14 20.8-8 30v-8c-0.0825 0.619-0.165 1.24-0.25 1.88-0.75 2.12-0.75 2.12-2.8 3.26-0.645 0.286-1.29 0.572-1.95 0.867 2.29-9.46 4.85-18.8 8-28z" fill="#F6FAFB"/>
<path transform="translate(684,177)" d="m0 0c1.65 0.33 3.3 0.66 5 1 0.33 0.99 0.66 1.98 1 3 0.99 0.66 1.98 1.32 3 2-1.65 0.33-3.3 0.66-5 1 0.66 0.33 1.32 0.66 2 1v3c-1.56 0.34-3.12 0.671-4.69 1-1.31 0.278-1.31 0.278-2.64 0.562-2.61 0.427-5.03 0.514-7.68 0.438 0.33-1.65 0.66-3.3 1-5-0.99-0.33-1.98-0.66-3-1h2v-3c4.46-0.495 4.46-0.495 9-1v-3z" fill="#FBFDFF"/>
<path transform="translate(1174,180)" d="m0 0h1c0.114 6.77-0.12 13.3-1 20-1.28 0.124-2.56 0.248-3.88 0.375-3.47 0.315-3.47 0.315-6.12 2.62-1-5.75-1-5.75-1-8-0.0206-0.804-0.0412-1.61-0.0625-2.44 0.0625-2.56 0.0625-2.56 1.06-5.56 2.97 0.495 2.97 0.495 6 1v2c0.99-0.33 1.98-0.66 3-1-0.0206-1.11-0.0412-2.23-0.0625-3.38 0.0625-3.62 0.0625-3.62 1.06-5.62z" fill="#FBFDFF"/>
<path transform="translate(123,186)" d="m0 0 2 2c-0.99 3.3-1.98 6.6-3 10h2c0.0374-0.615 0.0748-1.23 0.113-1.86 0.0657-0.808 0.131-1.62 0.199-2.45 0.058-0.801 0.116-1.6 0.176-2.43 0.594-2.62 1.47-3.57 3.51-5.26-1.3 8.39-4.01 16.1-7 24-5.88-0.875-5.88-0.875-7-2-0.66-0.99-1.32-1.98-2-3h4c0.248-1.11 0.495-2.23 0.75-3.38 3.1-12.5 3.1-12.5 6.25-15.6z" fill="#F7FAFB"/>
<path transform="translate(364,230)" d="m0 0c2.97 0.495 2.97 0.495 6 1-0.66 1.32-1.32 2.64-2 4h-2c-0.124 0.577-0.248 1.16-0.375 1.75-1.7 6.11-5.53 9.66-10.6 13.2-3.5 0.938-3.5 0.938-6 1 0.619-0.887 1.24-1.77 1.88-2.69 2.15-3.08 2.15-3.08 3.06-5.88 1.42-3.25 3.42-5.12 6.06-7.44 0.99-0.33 1.98-0.66 3-1 0.733-2.02 0.733-2.02 1-4z" fill="#F8FBFC"/>
<path transform="translate(73,84)" d="m0 0c2.79-0.0269 5.58-0.0468 8.38-0.0625 1.19-0.0126 1.19-0.0126 2.41-0.0254 5.99-0.0254 5.99-0.0254 8.22 1.09-0.33 1.65-0.66 3.3-1 5-2.58 0.39-5.16 0.763-7.75 1.12-1.09 0.168-1.09 0.168-2.21 0.34-3.94 0.537-6.7 0.907-10-1.46 1.32-0.99 2.64-1.98 4-3l-2-1v-2z" fill="#F4F8F9"/>
<path transform="translate(78,185)" d="m0 0h3l1 4c0.33-1.32 0.66-2.64 1-4h3c1.12 5.62 1.12 5.62 0 9h4v3c-0.578-0.186-1.16-0.371-1.75-0.562-2.46-0.478-3.89-0.195-6.25 0.562-0.33-0.66-0.66-1.32-1-2h-5v5c-0.124-0.639-0.248-1.28-0.375-1.94-0.206-0.681-0.412-1.36-0.625-2.06-0.66-0.33-1.32-0.66-2-1h2v-6h3v-4z" fill="#FBFDFF"/>
<path transform="translate(393,146)" d="m0 0h6v19h-6v-19z" fill="#FAFDFF"/>
<path transform="translate(52,135)" d="m0 0h6v6c-0.99 0.495-0.99 0.495-2 1 0.66 0.33 1.32 0.66 2 1v6c-6.15 0.879-6.15 0.879-8 1-1-1-1-1-1.1-3.29 0.0116-0.917 0.0232-1.83 0.0352-2.78 0.00902-0.919 0.018-1.84 0.0273-2.79 0.0116-0.71 0.0232-1.42 0.0352-2.15h3v-4z" fill="#FBFDFF"/>
<path transform="translate(1552,149)" d="m0 0c0.66 0.66 1.32 1.32 2 2 1.32 0.697 2.65 1.37 4 2-1 1-1 1-3.06 1.12-0.904-0.00222-1.81-0.00444-2.74-0.00673-1.02-7.55e-5 -2.04-1.51e-4 -3.09-2.29e-4 -1.11-0.00516-2.22-0.0103-3.36-0.0156-1.13-0.00141-2.26-0.00283-3.43-0.00429-3.63-0.00562-7.26-0.0182-10.9-0.0309-2.45-0.00501-4.9-0.00958-7.36-0.0137-6.03-0.0111-12.1-0.0278-18.1-0.0488 0.33-0.66 0.66-1.32 1-2 1.26-0.0198 2.51-0.0396 3.81-0.0601 4.66-0.076 9.31-0.165 14-0.257 2.02-0.0383 4.03-0.0732 6.05-0.104 2.9-0.0456 5.79-0.104 8.69-0.164 0.903-0.0116 1.81-0.0231 2.74-0.035 0.841-0.0199 1.68-0.0397 2.55-0.0602 0.739-0.0133 1.48-0.0266 2.24-0.0404 2.28-0.181 2.28-0.181 4.96-2.28z" fill="#EBEFF0"/>
<path transform="translate(1546,83)" d="m0 0c-0.99 0.66-1.98 1.32-3 2 0.99 1.48 0.99 1.48 2 3-2.37 0.196-4.75 0.382-7.12 0.562-0.665 0.0561-1.33 0.112-2.02 0.17-4.13 0.304-7.81 0.12-11.9-0.732 0-2 0-2 1.56-4.07 3.2-2.53 5.39-2.59 9.44-2.8 1.22-0.0799 2.43-0.16 3.69-0.242 3.14 0.111 4.71 0.44 7.31 2.12z" fill="#F3F6F7"/>
<path transform="translate(1155,215)" d="m0 0h6v3h2v-3h3v3h3v2h2v3h-3v-3h-2v3c-2.53 2.36-3.47 3-7 3v-3h-4v-3h4v-2h-4v-3z" fill="#FBFDFF"/>
<path transform="translate(1505,148)" d="m0 0c0.33 0.66 0.66 1.32 1 2 14.2-0.33 28.4-0.66 43-1v2c0.66 0.33 1.32 0.66 2 1-14.5 0.33-29 0.66-44 1v2h-2v-7z" fill="#F3F6F7"/>
<path transform="translate(1052,238)" d="m0 0h11v6h-8v3h3v6h-3v-4h-3v-11z" fill="#FBFDFF"/>
<path transform="translate(1143,126)" d="m0 0h1c0.133 0.638 0.266 1.28 0.402 1.93 0.177 0.826 0.353 1.65 0.535 2.5 0.174 0.824 0.348 1.65 0.527 2.5 0.343 2.04 0.343 2.04 1.54 3.07 0.544 5.65 0.725 10.4-3 15-0.66 0.66-1.32 1.32-2 2-0.133-0.869-0.266-1.74-0.402-2.63-0.265-1.73-0.265-1.73-0.535-3.49-0.174-1.14-0.348-2.27-0.527-3.45-0.491-3.15-1.01-6.29-1.54-9.43h2c0.33 0.99 0.66 1.98 1 3 0.33-3.63 0.66-7.26 1-11z" fill="#F7FAFB"/>
<path transform="translate(300,167)" d="m0 0 2 1v3h3c0.33-1.32 0.66-2.64 1-4 0.227 0.639 0.454 1.28 0.688 1.94 1.17 2.33 1.17 2.33 3.94 2.81 0.784 0.0825 1.57 0.165 2.38 0.25v6c-4.29-0.33-8.58-0.66-13-1v-10z" fill="#FCFDFF"/>
<path transform="translate(556,272)" d="m0 0h9v2h2v3h-3v-3h-2v4h-3v12h-3c-0.196-2.06-0.382-4.12-0.562-6.19-0.104-1.15-0.209-2.3-0.316-3.48-0.11-3.02 0.139-5.42 0.879-8.33z" fill="#FCFDFF"/>
<path transform="translate(591,246)" d="m0 0c12.2 4.33 12.2 4.33 14.8 8.25 1.25 2.75 1.25 2.75 1.25 3.75-6.49-0.423-11.3-2.91-17-6 0-3 0-3 1-6z" fill="#ECF0F1"/>
<path transform="translate(287,95)" d="m0 0h2v5h-2v10h-6v-5h2v-2c-0.619 0.206-1.24 0.412-1.88 0.625-0.701 0.124-1.4 0.248-2.12 0.375-0.66-0.66-1.32-1.32-2-2 0.99-1.32 1.98-2.64 3-4v2h3v-3h4v-2z" fill="#FBFDFF"/>
<path transform="translate(294,103)" d="m0 0h9v6h-2c0.278 0.959 0.278 0.959 0.562 1.94 0.591 4.14 0.0202 7.95-0.562 12.1h-2c-0.33-4.62-0.66-9.24-1-14h-4v-6z" fill="#FBFDFF"/>
<path transform="translate(1083,249)" d="m0 0c1.8 0.809 1.8 0.809 4 2 2.61 1.06 5.23 2.08 7.86 3.1 2.14 0.902 2.14 0.902 3.14 1.9 0.0406 1.67 0.0427 3.33 0 5-10.9-2.8-10.9-2.8-15-7-1.31-2.25-1.31-2.25-2-4 0.66-0.33 1.32-0.66 2-1z" fill="#ECF0F1"/>
<path transform="translate(1066,261)" d="m0 0h9c0.369 4.55 0.369 4.55-1.5 6.81-0.495 0.392-0.99 0.784-1.5 1.19 0.99 0.33 1.98 0.66 3 1-3.27 0.969-5.39 1-9 1v-10z" fill="#FBFDFF"/>
<path transform="translate(548,230)" d="m0 0h4c0 4 0 4-1.5 5.75-0.495 0.412-0.99 0.825-1.5 1.25h8c-0.33 2.31-0.66 4.62-1 7-3 1-3 1-8-1v-13z" fill="#FBFDFF"/>
<path transform="translate(140,144)" d="m0 0c1.04 3.11 1.03 4.84 0.75 8.06-0.067 0.878-0.134 1.76-0.203 2.66-0.547 2.28-0.547 2.28-3.55 4.28-1.23 2.41-1.23 2.41-2.19 5.12-0.516 1.37-0.516 1.37-1.04 2.76-0.254 0.699-0.508 1.4-0.77 2.12-1-2-1-2-0.5-5.44 0.763-3.52 0.763-3.52-0.5-6.56 1.34-2.9 2.15-4.63 5.12-5.94 0.619-0.351 1.24-0.701 1.88-1.06 0.816-3.06 0.816-3.06 1-6z" fill="#F2F5F6"/>
<path transform="translate(1132,108)" d="m0 0c6.54 2.09 9.3 5.3 13 11-0.33 0.66-0.66 1.32-1 2-0.578-0.165-1.15-0.33-1.75-0.5-2.52-0.645-2.52-0.645-6.25-0.5-0.671-1.62-1.34-3.25-2-4.88-0.371-0.905-0.743-1.81-1.12-2.74-0.875-2.38-0.875-2.38-0.875-4.38z" fill="#F9FCFD"/>
<path transform="translate(643 78.4)" d="m0 0c3.08 0.771 4.44 2.08 6.34 4.59 0.99 0.66 1.98 1.32 3 2-7.77 0.518-13.8-1.26-21-4 3.99-3.55 6.57-3.26 11.7-2.59z" fill="#F9FCFD"/>
<path transform="translate(551 83.9)" d="m0 0c0.779 0.00451 1.56 0.00902 2.36 0.0137 1.9 0.0117 3.8 0.0296 5.7 0.0488-9.87 6.58-9.87 6.58-17 6 0.99-0.99 1.98-1.98 3-3-3.3-0.33-6.6-0.66-10-1v-1c5.36-0.905 10.5-1.12 15.9-1.06z" fill="#F9FCFD"/>
<path transform="translate(1093,98)" d="m0 0c0.66 0.99 1.32 1.98 2 3-0.543 0.436-1.09 0.871-1.64 1.32-4.26 3.54-7.29 6.39-9.36 11.7-1.32-0.33-2.64-0.66-4-1 0.25-2.31 0.25-2.31 1-5 1.31-1.04 2.64-2.03 4-3 0.66-1.03 1.32-2.06 2-3.12 2-2.88 2-2.88 4.25-3.75 0.578-0.0413 1.15-0.0825 1.75-0.125z" fill="#EBEFF0"/>
<path transform="translate(399,96)" d="m0 0h13v8h-2v-4l-2 1c-0.33 0.99-0.66 1.98-1 3h-2v-4c-2.97-0.495-2.97-0.495-6-1v-3z" fill="#FBFDFF"/>
<path transform="translate(1027,315)" d="m0 0c-1.32 0.33-2.64 0.66-4 1v2c-1.05-0.0206-2.1-0.0412-3.19-0.0625-3.14 0.0515-5.78 0.328-8.81 1.06 0.33-1.98 0.66-3.96 1-6 6.2-1.07 9.52-0.933 15 2z" fill="#F1F4F5"/>
<path transform="translate(364,230)" d="m0 0c2.97 0.495 2.97 0.495 6 1-0.66 1.32-1.32 2.64-2 4h-2c-0.103 0.577-0.206 1.16-0.312 1.75-0.785 2.57-1.99 4.19-3.69 6.25-0.33-0.99-0.66-1.98-1-3h-3c0.812-2.44 0.812-2.44 2-5 0.99-0.33 1.98-0.66 3-1 0.733-2.02 0.733-2.02 1-4z" fill="#EDF0F1"/>
<path transform="translate(1309,160)" d="m0 0 4 1c0.135 2.1 0.232 4.21 0.312 6.31 0.058 1.17 0.116 2.34 0.176 3.55-0.161 1.04-0.322 2.07-0.488 3.14-2.47 1.49-2.47 1.49-5 3 0.33-5.61 0.66-11.2 1-17z" fill="#FBFDFF"/>
<path transform="translate(595,99)" d="m0 0c2.12 0.938 2.12 0.938 4 2-1.14 1.55-1.14 1.55-2.31 3.12-2.26 3.15-4.05 6.35-5.69 9.88h-2c0.33-3.63 0.66-7.26 1-11h3v-3c0.66-0.33 1.32-0.66 2-1zm-4 5 1 2z" fill="#EBEFF0"/>
<path transform="translate(119,84)" d="m0 0c6.55-0.37 6.55-0.37 8.69 1.38 0.433 0.536 0.866 1.07 1.31 1.62 2.1 1.18 2.1 1.18 4 2v1h-13v-2h-2c0.33-1.32 0.66-2.64 1-4z" fill="#F5F8F9"/>
<path transform="translate(1490,148)" d="m0 0c2 3 2 3 2 7h4c-0.33-2.31-0.66-4.62-1-7 2.15 3.23 2.2 4.28 2 8-0.99 0.495-0.99 0.495-2 1-0.99-0.33-1.98-0.66-3-1 0.33 2.31 0.66 4.62 1 7h-3v-2h-2v2h-3v-5h3v2h3c-0.776-3.07-0.776-3.07-3-5h3c-0.33-2.31-0.66-4.62-1-7z" fill="#FBFDFF"/>
<path transform="translate(1279,87)" d="m0 0h12c-0.33 1.65-0.66 3.3-1 5-1.62 0.054-3.25 0.0928-4.88 0.125-0.905 0.0232-1.81 0.0464-2.74 0.0703-2.38-0.195-2.38-0.195-4.38-2.2 0.33-0.99 0.66-1.98 1-3z" fill="#EAEDEF"/>
<path transform="translate(1596 211)" d="m0 0c0.949 0.351 1.9 0.701 2.88 1.06-0.66 1.98-1.32 3.96-2 6-0.99-0.33-1.98-0.66-3-1-0.99 0.99-1.98 1.98-3 3-1.12-2.25-1.12-2.25-2-5 0.75-2.25 0.75-2.25 2-4 2-1 2-1 5.12-0.0625z" fill="#F6FAFB"/>
<path transform="translate(385,153)" d="m0 0c2-0.0425 4-0.0408 6 0 1 1 1 1 1.06 4.56-0.0206 1.13-0.0412 2.27-0.0625 3.44-2.31-0.33-4.62-0.66-7-1v-7z" fill="#FBFDFF"/>
<path transform="translate(72,312)" d="m0 0c-0.495 0.454-0.99 0.908-1.5 1.38-1.73 1.5-1.73 1.5-1.5 3.62-3.88 1.19-6.92 2-11 2v-2c1.32-0.66 2.64-1.32 4-2-0.99-0.66-1.98-1.32-3-2 4.79-1.63 8.06-2.21 13-1z" fill="#ECF0F1"/>
<path transform="translate(532,310)" d="m0 0c0.33 0.99 0.66 1.98 1 3-4.12 1.29-7.67 2.26-12 2-0.33-0.66-0.66-1.32-1-2 2-3 2-3 5.44-3.75 3.56-0.25 3.56-0.25 6.56 0.75z" fill="#F3F6F7"/>
<path transform="translate(665,198)" d="m0 0h3v2c0.66-0.66 1.32-1.32 2-2h3c0.66 0.66 1.32 1.32 2 2h4c-0.33 0.99-0.66 1.98-1 3-3.63 0.33-7.26 0.66-11 1v-5c-0.66-0.33-1.32-0.66-2-1z" fill="#FBFDFF"/>
<path transform="translate(652,127)" d="m0 0h1c0.133 0.808 0.266 1.62 0.402 2.45 0.177 1.07 0.353 2.14 0.535 3.24 0.174 1.06 0.348 2.11 0.527 3.2 0.338 1.96 0.719 3.92 1.16 5.86 0.459 2.76-0.162 3.93-1.62 6.25-0.33-0.66-0.66-1.32-1-2-0.66 0.99-1.32 1.98-2 3 0.33-7.26 0.66-14.5 1-22z" fill="#F9FCFD"/>
<path transform="translate(1290,252)" d="m0 0c-0.312 1.94-0.312 1.94-1 4-3.47 1.16-6.36 1.07-10 1 0.33-1.65 0.66-3.3 1-5 6.62-1.12 6.62-1.12 10 0z" fill="#F3F6F7"/>
<path transform="translate(1134 80.9)" d="m0 0c1.37 0.0174 1.37 0.0174 2.78 0.0352 0.919 0.00902 1.84 0.018 2.79 0.0273 0.71 0.0116 1.42 0.0232 2.15 0.0352 0.33 0.99 0.66 1.98 1 3l-2 1c0.66 0.33 1.32 0.66 2 1-0.33 0.66-0.66 1.32-1 2h-3v-2c-0.763-0.289-1.53-0.578-2.31-0.875-2.69-1.12-2.69-1.12-5.69-3.12 1-1 1-1 3.29-1.1z" fill="#EBEFF0"/>
<path transform="translate(249,84)" d="m0 0c0.99 0.33 1.98 0.66 3 1 2.38 0.523 4.56 1 7 1 0.33 0.99 0.66 1.98 1 3-1 1-1 1-3.07 1.1-0.824-0.0116-1.65-0.0232-2.5-0.0352-0.826-0.00902-1.65-0.018-2.5-0.0273-0.638-0.0116-1.28-0.0232-1.93-0.0352v-2h-2c0.33-1.32 0.66-2.64 1-4z" fill="#F3F6F7"/>
<path transform="translate(1143,120)" d="m0 0c0.99 0.33 1.98 0.66 3 1 1.27 3.17 1.1 6.38 1.06 9.75-0.00902 0.985-0.018 1.97-0.0273 2.98-0.0116 0.748-0.0232 1.5-0.0352 2.27-2-1-2-1-2.63-2.86-0.941-4.46-1.6-8.56-1.37-13.1z" fill="#FAFDFF"/>
<path transform="translate(607,309)" d="m0 0h3v6c-8.57-0.714-8.57-0.714-12-4h9v-2z" fill="#EAF0F0"/>
<path transform="translate(1308,116)" d="m0 0c2.47 0.495 2.47 0.495 5 1-0.888 3.7-1.95 7.35-3 11h-2v-12z" fill="#FBFDFF"/>
<path transform="translate(650,141)" d="m0 0h1c0.33 1.65 0.66 3.3 1 5 0.66-1.32 1.32-2.64 2-4 1.35 6.4 1.35 6.4-0.312 9.25-0.557 0.577-1.11 1.16-1.69 1.75-0.66 0.99-1.32 1.98-2 3-1.33-10.6-1.33-10.6 0-15z" fill="#EBEFF0"/>
<path transform="translate(39,106)" d="m0 0h2v13h-5c0.33-0.66 0.66-1.32 1-2h2v-3h-3v-2h3v-6z" fill="#FCFDFF"/>
<path transform="translate(292,95)" d="m0 0h2v2c0.577-0.165 1.15-0.33 1.75-0.5 2.46-0.546 4.73-0.5 7.25-0.5v6c-0.33-0.66-0.66-1.32-1-2h-3c-0.66 0.66-1.32 1.32-2 2v-2c-1.32-0.33-2.64-0.66-4-1-0.33-1.32-0.66-2.64-1-4z" fill="#FCFDFF"/>
<path transform="translate(556,261)" d="m0 0h4v10c-1.32-0.33-2.64-0.66-4-1v-9z" fill="#FCFDFF"/>
<path transform="translate(1144,137)" d="m0 0h1v7h2c-0.289 0.557-0.578 1.11-0.875 1.69-1.17 2.4-2.16 4.83-3.12 7.31-2.33-3.63-2.16-6.77-2-11 0.66 0.66 1.32 1.32 2 2 0.33-2.31 0.66-4.62 1-7z" fill="#EBEFF0"/>
<path transform="translate(385,103)" d="m0 0h6v6h-6v-6z" fill="#FCFDFF"/>
<path transform="translate(0,86)" d="m0 0c6.4-0.492 6.4-0.492 9.44 2 0.773 0.99 0.773 0.99 1.56 2-4.02 0.841-7.02 1.05-11 0v-4z" fill="#F5F8F9"/>
<path transform="translate(565,224)" d="m0 0h9v4h-9v-4z" fill="#FBFDFF"/>
<path transform="translate(349,84)" d="m0 0h8c0.33 1.32 0.66 2.64 1 4h-10c0.33-1.32 0.66-2.64 1-4z" fill="#F3F6F7"/>
<path transform="translate(638 78.2)" d="m0 0c1.39 0.402 1.39 0.402 2.81 0.812 0.33 0.66 0.66 1.32 1 2 0.99 0.66 1.98 1.32 3 2-5.22 0.18-9.07-0.0291-14-2 2.58-2.48 3.53-3.03 7.19-2.81z" fill="#EBEFF0"/>
<path transform="translate(431,249)" d="m0 0c5.75-0.125 5.75-0.125 8 1v4c-2.64-0.33-5.28-0.66-8-1v-4z" fill="#F3F7F8"/>
<path transform="translate(1094,314)" d="m0 0c3.05-0.294 5.96-0.445 9 0 2.56 2.5 2.56 2.5 4 5-1.42-0.115-2.83-0.243-4.25-0.375-0.789-0.0696-1.58-0.139-2.39-0.211-2.45-0.429-4.21-1.2-6.36-2.41v-2z" fill="#F4F7F8"/>
<path transform="translate(1011,87)" d="m0 0h8v4h-8v-4z" fill="#F4F7F8"/>
<path transform="translate(133,154)" d="m0 0c0.99 0.33 1.98 0.66 3 1 0.346 5.65-0.566 9.03-3 14-1-2-1-2-0.5-5.44 0.763-3.52 0.763-3.52-0.5-6.56 0.33-0.99 0.66-1.98 1-3z" fill="#EDF1F2"/>
<path transform="translate(547,84)" d="m0 0h12c-0.99 0.66-1.98 1.32-3 2-0.784 0.536-1.57 1.07-2.38 1.62-2.84 1.49-4.48 1.64-7.62 1.38 1-2 1-2 4-3-0.99-0.66-1.98-1.32-3-2z" fill="#D7E1DE"/>
<path transform="translate(1019,89)" d="m0 0c4.88 1.75 4.88 1.75 6 4h-13v-2h7v-2z" fill="#F9FCFD"/>
<path transform="translate(642,108)" d="m0 0c2.94 1.25 2.94 1.25 6 3 0.875 2.19 0.875 2.19 1 4-0.66-0.33-1.32-0.66-2-1-0.33 0.99-0.66 1.98-1 3-2-1-2-1-2.63-2.85-0.162-0.731-0.325-1.46-0.492-2.21-0.168-0.733-0.335-1.47-0.508-2.22-0.121-0.566-0.242-1.13-0.367-1.71z" fill="#ECF0F1"/>
<path transform="translate(1557,122)" d="m0 0h1c1.33 5.97 1.09 11.9 1 18h-2c0.0206-1.03 0.0412-2.06 0.0625-3.12 0.0434-3.77 0.0434-3.77-0.625-7-0.45-2.96-0.198-5 0.562-7.88z" fill="#F5F8F9"/>
<path transform="translate(1362,251)" d="m0 0c2.94 0.75 2.94 0.75 6 2 0.875 2.12 0.875 2.12 1 4-2.64-0.33-5.28-0.66-8-1 0.99-0.66 1.98-1.32 3-2-0.99-0.66-1.98-1.32-3-2 0.33-0.33 0.66-0.66 1-1z" fill="#F1F5F6"/>
<path transform="translate(555,172)" d="m0 0h9v3c-2.89 0.826-4.89 1-8 1-0.33-1.32-0.66-2.64-1-4z" fill="#FBFDFF"/>
<path transform="translate(1132,108)" d="m0 0c3.44 1.25 3.44 1.25 7 3 0.938 2.19 0.938 2.19 1 4-0.99-0.66-1.98-1.32-3-2-0.33 0.66-0.66 1.32-1 2-2-1-2-1-3.12-4.06-0.289-0.969-0.578-1.94-0.875-2.94z" fill="#ECF0F1"/>
<path transform="translate(527,86)" d="m0 0c2.47 1.15 4.05 2.05 6 4-4.72 0.925-7.67 1.23-12-1v-1h6v-2z" fill="#F9FCFD"/>
<path transform="translate(521,83)" d="m0 0c2.97 0.495 2.97 0.495 6 1v4h-7c0.33-1.65 0.66-3.3 1-5z" fill="#F4F8F9"/>
<path transform="translate(1530,80)" d="m0 0h11v1h-11v-1z" fill="#EBEFF0"/>
<path transform="translate(1545,235)" d="m0 0h10v1h-10v-1z" fill="#EEF1F3"/>
<path transform="translate(599,316)" d="m0 0h6v1h-6v-1z" fill="#060A08"/>
<path transform="translate(1556,133)" d="m0 0h1v5h-1v-5z" fill="#EBEFF0"/>
<path transform="translate(1321,85)" d="m0 0h5v1h-5v-1z" fill="#F1F4F6"/>
<path transform="translate(648,142)" d="m0 0 1 4z" fill="#EBEFF0"/>
</svg>
