<?xml version="1.0" encoding="UTF-8"?>
<svg version="1.1" xmlns="http://www.w3.org/2000/svg" width="1900" height="380">
<path d="M0 0 C2.1671921 0.01844314 4.33395756 0.02050738 6.5012207 0.02026367 C12.20883232 0.0358304 17.86673086 0.05187897 23.53833008 0.7800293 C27.04437936 1.1727933 28.97718689 0.90827849 32.33911133 0.20581055 C53.59928109 -1.17079222 71.70883586 1.71954951 88.21411133 15.89331055 C100.2133512 27.57209594 107.59107551 42.27651046 112.15161133 58.20581055 C112.44406738 59.21744263 112.44406738 59.21744263 112.74243164 60.24951172 C116.20344415 73.25882901 116.71772795 86.46022737 116.65161133 99.83081055 C116.6483786 101.01285568 116.6483786 101.01285568 116.64508057 102.21878052 C116.49545417 136.41273729 109.01080172 170.32135557 85.08911133 196.01831055 C74.39591372 206.16362347 60.93585438 213.02832176 46.71411133 216.51831055 C46.02148193 216.69015869 45.32885254 216.86200684 44.61523438 217.0390625 C39.44341189 218.20989121 34.63853839 218.3463651 29.33911133 218.20581055 C29.54407227 219.44975586 29.7490332 220.69370117 29.96020508 221.9753418 C30.23253897 223.65629924 30.50466304 225.33729068 30.77661133 227.01831055 C30.91131836 227.83235352 31.04602539 228.64639648 31.18481445 229.48510742 C32.97453646 240.61630526 33.56478661 251.62346242 33.65161133 262.89331055 C33.68061523 264.15981445 33.70961914 265.42631836 33.73950195 266.73120117 C33.78892175 274.00351394 33.52720278 279.14004587 29.33911133 285.20581055 C26.15932156 287.10515593 23.85135862 287.47716551 20.15161133 287.45581055 C19.27118164 287.4609668 18.39075195 287.46612305 17.48364258 287.47143555 C14.89000004 287.25234525 12.73146847 286.84178574 10.2277832 286.21508789 C5.44571178 285.13325955 0.86557367 284.86152201 -4.02416992 284.79174805 C-4.89623581 284.7723819 -5.7683017 284.75301575 -6.66679382 284.73306274 C-9.43556234 284.67390821 -12.20438305 284.62736883 -14.97338867 284.58081055 C-16.7865563 284.54252589 -18.59970779 284.50346856 -20.4128418 284.46362305 C-40.09303703 284.05185063 -59.73408581 284.20694316 -79.41088867 284.70581055 C-81.39135201 284.7542096 -83.37182076 284.80238764 -85.35229492 284.8503418 C-90.12189208 284.96629816 -94.89140718 285.08519412 -99.66088867 285.20581055 C-99.66088867 281.90581055 -99.66088867 278.60581055 -99.66088867 275.20581055 C-98.86424805 275.09624023 -98.06760742 274.98666992 -97.24682617 274.8737793 C-87.75177069 273.59866809 -87.75177069 273.59866809 -79.91088867 268.45581055 C-76.97418442 263.16974289 -76.40689153 257.79148741 -76.36654663 251.83665466 C-76.35551657 250.77435146 -76.35551657 250.77435146 -76.34426367 249.69058758 C-76.32237062 247.33552419 -76.31453389 244.98063776 -76.30688477 242.62548828 C-76.29434255 240.92977347 -76.28104782 239.23406409 -76.26705933 237.5383606 C-76.22515589 231.98874681 -76.20428253 226.43913293 -76.18432617 220.8894043 C-76.17622668 218.97554023 -76.1679927 217.06167672 -76.15962601 215.1478138 C-76.12157455 206.16169374 -76.09309249 197.17560616 -76.07640207 188.18942112 C-76.05682676 177.82256474 -76.00408875 167.45655896 -75.92340028 157.09000248 C-75.86311518 149.06944441 -75.83346866 141.04913068 -75.82684004 133.02835041 C-75.82213782 128.2402249 -75.80420328 123.4530109 -75.75391769 118.66512871 C-75.70740295 114.16425821 -75.69886726 109.66490113 -75.71944046 105.16385269 C-75.72043238 103.51344457 -75.7077546 101.86296243 -75.68032837 100.21278191 C-75.21629912 91.57805431 -75.21629912 91.57805431 -78.43376541 83.94348335 C-80.44867825 82.43041845 -82.41554017 81.33120263 -84.66088867 80.20581055 C-92.04808546 71.77756093 -93.53314759 62.12767302 -93.66088867 51.20581055 C-92.8789335 40.33084142 -88.15713409 31.7437331 -81.66088867 23.20581055 C-87.05106698 17.50762205 -93.11597222 16.58270183 -100.66088867 15.20581055 C-100.66088867 11.90581055 -100.66088867 8.60581055 -100.66088867 5.20581055 C-98.40184692 5.22937622 -98.40184692 5.22937622 -96.09716797 5.25341797 C-90.4183504 5.30841883 -84.73955547 5.34241154 -79.06054688 5.37060547 C-76.61975117 5.38553437 -74.17898152 5.40588482 -71.73828125 5.43212891 C-57.76526904 5.57842815 -44.40586211 5.24420991 -30.66870117 2.59112549 C-20.38710391 0.61800646 -10.43091085 -0.09165584 0 0 Z M-16.66088867 26.20581055 C-16.66088867 28.84581055 -16.66088867 31.48581055 -16.66088867 34.20581055 C-14.40842986 31.51739196 -12.77874909 29.5593918 -11.66088867 26.20581055 C-13.31088867 26.20581055 -14.96088867 26.20581055 -16.66088867 26.20581055 Z M-7.22729492 31.05737305 C-11.7242825 37.16672647 -11.7242825 37.16672647 -13.66088867 44.20581055 C-12.89776367 44.90706055 -12.13463867 45.60831055 -11.34838867 46.33081055 C-4.31100463 53.85917487 -3.697489 65.49646645 -3.50575256 75.35035706 C-3.20654191 86.88009884 -0.85354623 97.61642609 2.00439453 108.75537109 C2.78975247 111.81958302 3.54766342 114.88968874 4.30200195 117.96166992 C4.79069253 119.91973816 5.28086903 121.87743629 5.77270508 123.8347168 C5.99985703 124.74911026 6.22700897 125.66350372 6.46104431 126.60560608 C6.67789383 127.44506271 6.89474335 128.28451935 7.11816406 129.14941406 C7.30612045 129.88708511 7.49407684 130.62475616 7.68772888 131.38478088 C8.26995426 133.42174666 8.26995426 133.42174666 10.33911133 135.20581055 C23.50338811 128.99531109 35.64726855 122.36093155 45.33911133 111.20581055 C46.1615332 110.29444336 46.98395508 109.38307617 47.83129883 108.4440918 C55.28128346 99.19543486 55.52174926 91.73653035 54.33911133 80.20581055 C54.25016602 79.24578125 54.1612207 78.28575195 54.06958008 77.29663086 C52.115482 55.46657799 52.115482 55.46657799 44.33911133 35.20581055 C33.28480786 27.68888419 2.11711009 19.63902278 -7.22729492 31.05737305 Z M48.52661133 140.64331055 C40.21752371 148.05838241 32.28116301 154.37269714 21.73754883 158.2331543 C19.2072797 159.07795181 19.2072797 159.07795181 17.33911133 161.20581055 C17.67238617 168.82236004 19.55329455 176.19385755 21.29541016 183.59228516 C21.78083211 185.66130082 22.25271049 187.73311709 22.72387695 189.80541992 C23.03101239 191.1252695 23.33892646 192.44493818 23.64770508 193.7644043 C23.92412842 194.95348389 24.20055176 196.14256348 24.48535156 197.36767578 C25.12562354 200.30794924 25.12562354 200.30794924 27.33911133 202.20581055 C45.90395776 187.41369951 50.57994396 165.78705589 53.33911133 143.20581055 C53.39635192 141.20662984 53.43007948 139.20374067 53.33911133 137.20581055 C51.39900413 137.20581055 49.85961087 139.41118665 48.52661133 140.64331055 Z M-16.66088867 164.20581055 C-16.85981881 168.63468395 -17.00433789 173.0611436 -17.1003418 177.49316406 C-17.14038513 178.99785688 -17.19484251 180.50224204 -17.2644043 182.00585938 C-17.88002146 190.73661565 -17.88002146 190.73661565 -15.0378418 198.72705078 C-11.54514723 201.91615848 -7.78958702 204.05042344 -3.16088867 205.14331055 C-2.30495117 205.35858398 -1.44901367 205.57385742 -0.56713867 205.7956543 C0.06192383 205.93100586 0.69098633 206.06635742 1.33911133 206.20581055 C-1.06921677 192.30631695 -4.89973278 178.78887702 -8.66088867 165.20581055 C-11.30088867 164.87581055 -13.94088867 164.54581055 -16.66088867 164.20581055 Z M-16.66088867 207.20581055 C-16.73570676 213.1099173 -16.78980323 219.01374087 -16.82568359 224.91821289 C-16.84066009 226.9218426 -16.86104848 228.92544016 -16.88720703 230.92895508 C-17.72361294 249.47676155 -17.72361294 249.47676155 -10.97338867 266.20581055 C-5.66850907 271.58947549 -0.03628322 273.30052746 7.33911133 274.20581055 C7.63192661 259.61009517 7.82665038 245.15222811 5.96411133 230.64331055 C5.8380249 229.6584668 5.71193848 228.67362305 5.58203125 227.65893555 C4.83546564 221.1340931 4.83546564 221.1340931 2.33911133 215.20581055 C-0.58827387 213.6223047 -0.58827387 213.6223047 -4.03588867 212.58081055 C-8.16032304 211.19358544 -11.25383274 209.89722916 -14.66088867 207.20581055 C-15.32088867 207.20581055 -15.98088867 207.20581055 -16.66088867 207.20581055 Z " fill="#28613D" transform="translate(716.660888671875,92.794189453125)"/>
<path d="M0 0 C4.76504646 0.90665482 9.17987556 1.18745399 14.05786133 1.06787109 C29.85107094 0.79732361 44.89136415 6.11607235 56.80786133 16.56787109 C58.30996676 18.04489964 59.79135687 19.54346791 61.24536133 21.06787109 C61.86540039 21.68017578 62.48543945 22.29248047 63.12426758 22.92333984 C79.78397584 40.402989 86.29606859 67.45212186 86.44848633 90.98583984 C86.45554596 91.71683899 86.46260559 92.44783813 86.46987915 93.20098877 C86.7359212 128.87897551 82.70397385 165.11517106 58.24536133 193.06787109 C57.67430664 193.73818359 57.10325195 194.40849609 56.51489258 195.09912109 C44.03685583 208.6555067 25.28668133 216.78126526 7.24536133 219.06787109 C4.57214353 219.14181567 1.92062905 219.1139964 -0.75463867 219.06787109 C-0.66899658 219.63070801 -0.58335449 220.19354492 -0.49511719 220.7734375 C1.17566477 231.84504733 2.83726924 242.86388824 3.24536133 254.06787109 C3.27259277 254.79135742 3.29982422 255.51484375 3.32788086 256.26025391 C4.00635044 276.76795716 4.00635044 276.76795716 -1.5735321 283.1473999 C-6.47900638 286.10889202 -11.17286991 285.59224965 -16.796875 285.52197266 C-18.01680145 285.52255676 -19.23672791 285.52314087 -20.49362183 285.52374268 C-23.83038655 285.52143653 -27.16615626 285.5014045 -30.50274491 285.47344685 C-33.99274137 285.44840848 -37.48275168 285.44608929 -40.9728241 285.44134521 C-47.57786289 285.42892252 -54.18263624 285.39611073 -60.78755826 285.35594726 C-68.30865438 285.31120736 -75.82976331 285.28923697 -83.35095942 285.26916552 C-98.81900613 285.22737726 -114.28678814 285.15703924 -129.75463867 285.06787109 C-129.75463867 282.09787109 -129.75463867 279.12787109 -129.75463867 276.06787109 C-128.32571289 275.79523438 -128.32571289 275.79523438 -126.86791992 275.51708984 C-125.61366211 275.26572266 -124.3594043 275.01435547 -123.06713867 274.75537109 C-121.82577148 274.51173828 -120.5844043 274.26810547 -119.30541992 274.01708984 C-115.89566414 273.10557097 -113.57118691 272.16878094 -110.75463867 270.06787109 C-107.39827002 263.59487441 -106.63239095 257.99450616 -106.59642029 250.78495789 C-106.59148231 250.06198055 -106.58654433 249.33900321 -106.58145672 248.59411746 C-106.5661282 246.17741193 -106.55773374 243.76073288 -106.54931641 241.34399414 C-106.53973423 239.60928618 -106.52972395 237.87458053 -106.51931763 236.13987732 C-106.49229933 231.43372677 -106.47127311 226.72756622 -106.45131564 222.02138114 C-106.42943713 217.1019482 -106.40205756 212.18254597 -106.3752594 207.26313782 C-106.32535775 197.94892174 -106.28040953 188.63468859 -106.23723704 179.32043916 C-106.18784307 168.71590978 -106.13293294 158.11141121 -106.07755744 147.50691164 C-105.9637762 125.69392683 -105.85692875 103.88091261 -105.75463867 82.06787109 C-106.94077759 81.61891479 -106.94077759 81.61891479 -108.15087891 81.16088867 C-113.39627907 78.95895182 -115.80832276 74.22255963 -118.02416992 69.17724609 C-121.95483134 57.89916456 -122.79763373 45.15073232 -117.75463867 34.06787109 C-116.43172727 31.91907433 -115.07385817 29.86628332 -113.54760742 27.85693359 C-112.51203877 26.0469838 -112.51203877 26.0469838 -113.39135742 23.97802734 C-116.09671239 20.1874297 -120.54052884 18.49468745 -125.02416992 17.63037109 C-126.93087114 17.41049924 -128.84264402 17.23558992 -130.75463867 17.06787109 C-131.75463867 16.06787109 -131.75463867 16.06787109 -131.85229492 14.00146484 C-131.84069336 13.17775391 -131.8290918 12.35404297 -131.81713867 11.50537109 C-131.80811523 10.67908203 -131.7990918 9.85279297 -131.78979492 9.00146484 C-131.77819336 8.36337891 -131.7665918 7.72529297 -131.75463867 7.06787109 C-129.89838867 7.11500244 -129.89838867 7.11500244 -128.00463867 7.16308594 C-96.16049336 8.06539559 -96.16049336 8.06539559 -65.14868164 1.79882812 C-45.0199155 -4.3469526 -20.48016524 -3.9252726 0 0 Z M-46.75463867 25.06787109 C-46.82669379 26.75396075 -46.83849935 28.44287769 -46.81713867 30.13037109 C-46.80811523 31.04947266 -46.7990918 31.96857422 -46.78979492 32.91552734 C-46.77819336 33.62580078 -46.7665918 34.33607422 -46.75463867 35.06787109 C-43.83902227 31.52747975 -41.2533605 27.9051939 -38.75463867 24.06787109 C-43.07783953 23.56420608 -43.07783953 23.56420608 -46.75463867 25.06787109 Z M-37.59057617 33.21240234 C-39.90222885 36.13723988 -41.56951363 38.51249597 -42.75463867 42.06787109 C-42.13959473 42.62740479 -41.52455078 43.18693848 -40.89086914 43.76342773 C-34.09429119 51.09518765 -34.15592239 61.6979778 -33.62963867 71.13037109 C-32.67174174 85.06399451 -29.97939963 98.38411613 -26.69213867 111.94287109 C-26.46645203 112.88317169 -26.24076538 113.82347229 -26.00823975 114.79226685 C-25.36127977 117.46795573 -24.70073768 120.13974116 -24.03198242 122.81005859 C-23.833069 123.61691605 -23.63415558 124.4237735 -23.42921448 125.25508118 C-22.37649108 129.57545832 -22.37649108 129.57545832 -19.75463867 133.06787109 C-6.46829255 126.82015014 -6.46829255 126.82015014 5.24536133 118.06787109 C6.05231445 117.35244141 6.85926758 116.63701172 7.69067383 115.89990234 C12.48781275 111.40350149 16.63502175 106.58778147 20.37036133 101.19287109 C21.11543945 100.12294922 21.86051758 99.05302734 22.62817383 97.95068359 C26.76616652 89.99526225 24.10108199 78.77973836 22.99536133 70.25537109 C22.8611377 69.21292236 22.72691406 68.17047363 22.58862305 67.09643555 C21.46530423 58.84278983 19.90312136 50.98337381 17.24536133 43.06787109 C16.91020508 42.00826172 16.57504883 40.94865234 16.22973633 39.85693359 C14.78851773 35.99000201 13.60489845 33.01751032 10.15942383 30.61083984 C7.54423582 29.48097706 5.01187781 28.7462361 2.24536133 28.06787109 C1.2630957 27.78556641 0.28083008 27.50326172 -0.73120117 27.21240234 C-15.25407226 23.37447239 -27.0684886 20.92170856 -37.59057617 33.21240234 Z M17.37036133 138.56787109 C9.78304106 145.55144233 2.25661263 151.88068519 -7.66088867 155.18115234 C-10.02825828 156.18375104 -11.15329191 157.06360667 -12.75463867 159.06787109 C-13.54926894 166.79388023 -10.48724522 175.43090517 -8.7434082 182.95703125 C-8.24948208 185.09014076 -7.76506146 187.22525029 -7.28198242 189.36083984 C-6.01368369 195.88406214 -6.01368369 195.88406214 -3.75463867 202.06787109 C4.24280684 199.37895527 8.70214671 192.55858963 12.49536133 185.31787109 C17.06455171 175.46323886 19.49024934 165.49911739 21.49536133 154.88037109 C21.67083496 153.96594238 21.84630859 153.05151367 22.02709961 152.109375 C23.11131207 146.03844163 23.45511624 140.22983781 23.24536133 134.06787109 C21.10587704 134.06787109 18.77495557 137.24683628 17.37036133 138.56787109 Z M-46.75463867 162.06787109 C-46.95308423 167.08472753 -47.0978706 172.0992809 -47.1940918 177.11914062 C-47.2342132 178.82462367 -47.2887282 180.52983337 -47.3581543 182.234375 C-48.12217231 191.8292025 -48.12217231 191.8292025 -45.03271484 200.50683594 C-42.97835043 202.06441471 -41.1396849 203.11046666 -38.75463867 204.06787109 C-37.86776367 204.52162109 -36.98088867 204.97537109 -36.06713867 205.44287109 C-33.53689954 206.12671951 -31.36400503 206.11114417 -28.75463867 206.06787109 C-29.26131421 198.47509633 -30.72433661 191.36169587 -32.62963867 184.00537109 C-32.88616211 182.98121094 -33.14268555 181.95705078 -33.40698242 180.90185547 C-34.94431236 174.85682692 -36.70696609 168.95952783 -38.75463867 163.06787109 C-41.39463867 162.73787109 -44.03463867 162.40787109 -46.75463867 162.06787109 Z M-46.75463867 208.06787109 C-46.82925356 214.29343091 -46.88345958 220.51872566 -46.91943359 226.74462891 C-46.93444354 228.8589329 -46.95485787 230.97320616 -46.98095703 233.08740234 C-47.01768501 236.1408653 -47.03444341 239.19391367 -47.04760742 242.24755859 C-47.06309128 243.18026581 -47.07857513 244.11297302 -47.0945282 245.07394409 C-47.09670995 253.74131203 -45.71532319 262.11823031 -39.55541992 268.59912109 C-34.23045532 272.94225925 -28.45409154 274.23756223 -21.75463867 275.06787109 C-21.44715058 265.17700409 -21.96469664 255.37414553 -22.62963867 245.50537109 C-22.70811035 244.29985596 -22.78658203 243.09434082 -22.86743164 241.85229492 C-23.45644987 233.5150302 -24.46852033 225.32506643 -25.75463867 217.06787109 C-26.7678418 216.66955078 -27.78104492 216.27123047 -28.82495117 215.86083984 C-30.17656938 215.3258243 -31.52812876 214.79066013 -32.87963867 214.25537109 C-33.54479492 213.99433594 -34.20995117 213.73330078 -34.89526367 213.46435547 C-35.55268555 213.20332031 -36.21010742 212.94228516 -36.88745117 212.67333984 C-37.48444824 212.43768311 -38.08144531 212.20202637 -38.6965332 211.95922852 C-41.43903334 210.77146244 -44.09006912 209.4199668 -46.75463867 208.06787109 Z " fill="#28603D" transform="translate(1330.754638671875,94.93212890625)"/>
<path d="M0 0 C0.00496522 1.27523482 0.00496522 1.27523482 0.01003075 2.57623196 C0.09149551 23.32842254 0.18366338 44.080542 0.28752708 64.83263302 C0.33750208 74.86846859 0.38394583 84.90429662 0.421875 94.94018555 C0.45496978 103.69448653 0.49489546 112.44872615 0.54279006 121.20295912 C0.56788253 125.83186097 0.5897132 130.46072303 0.60334396 135.089674 C0.61632287 139.46042982 0.63854161 143.83104791 0.66738319 148.20172691 C0.676337 149.79261521 0.68212003 151.3835256 0.68421364 152.97443771 C0.69684569 161.12672226 0.97725841 169.17217478 1.87539673 177.27980042 C1.95002463 177.98299784 2.02465253 178.68619526 2.10154188 179.41070169 C2.7670152 184.82579325 4.12893853 189.08457106 8 193 C14.93375607 198.11777234 22.76604064 197.57446228 31 197 C39.9648283 195.10056944 46.74086711 189.53747239 52.01171875 182.19921875 C58.52559897 171.67049413 60.45514939 161.71374281 60.38818359 149.45117188 C60.39344055 148.24803848 60.39869751 147.04490509 60.40411377 145.80531311 C60.41497439 142.53867538 60.41254279 139.27240878 60.40297651 136.00577736 C60.39531249 132.56630374 60.40244405 129.12685265 60.40713501 125.68737793 C60.41257313 119.91442499 60.40545233 114.14158768 60.39111328 108.36865234 C60.37479044 101.72080769 60.38008034 95.07323919 60.3965925 88.42540121 C60.41026312 82.68915004 60.41209995 76.95298137 60.40427649 71.21671915 C60.39963043 67.80320118 60.39888955 64.38981246 60.40888596 60.9763031 C60.41654869 57.1669579 60.40482794 53.3581347 60.38818359 49.54882812 C60.39729263 47.88080894 60.39729263 47.88080894 60.40658569 46.17909241 C60.33083257 36.76762317 59.14803903 27.45216852 53 20 C49.69287236 16.99558428 46.58287562 16.22240388 42.25 15.3125 C41.07953125 15.06113281 39.9090625 14.80976562 38.703125 14.55078125 C37.81109375 14.36902344 36.9190625 14.18726562 36 14 C36 10.7 36 7.4 36 4 C37.49031738 4.01571045 38.98063477 4.0314209 40.51611328 4.04760742 C46.15586736 4.10276415 51.79559877 4.13665521 57.43554688 4.16479492 C59.85583532 4.1796895 62.27609775 4.20001193 64.69628906 4.22631836 C79.50087891 4.38296443 93.78895901 3.8855372 108.40109253 1.38594055 C112.25487948 0.81364905 116.12638312 0.41349746 120 0 C120.00496522 1.32714917 120.00496522 1.32714917 120.01003075 2.68110943 C120.0913945 24.24972505 120.18353041 45.81827147 120.28752708 67.38679028 C120.33756252 77.81733433 120.38400621 88.24787089 120.421875 98.6784668 C120.45490624 107.77405833 120.49479829 116.86959003 120.54279006 125.96511537 C120.56794478 130.77721361 120.5897581 135.58927273 120.60334396 140.40141869 C120.61626505 144.93959872 120.63842557 149.47764383 120.66738319 154.01574898 C120.67638106 155.6728201 120.68213075 157.3299129 120.68421364 158.98700714 C120.12440075 177.94736964 120.12440075 177.94736964 127 195 C130.84488669 198.71396761 134.10017596 199.77573382 139.3125 200.75 C140.56675781 200.99234375 141.82101562 201.2346875 143.11328125 201.484375 C144.06589844 201.65453125 145.01851562 201.8246875 146 202 C146 205.3 146 208.6 146 212 C144.585979 211.98428955 143.17195801 211.9685791 141.71508789 211.95239258 C136.33803279 211.89702432 130.96100122 211.86327207 125.58374023 211.83520508 C123.28096241 211.82035669 120.97821157 211.80007285 118.67553711 211.77368164 C103.20222867 211.60111686 88.21041029 212.40708284 72.88719177 214.61405945 C68.93312437 215.14261282 64.9648385 215.55946239 61 216 C60.67 206.1 60.34 196.2 60 186 C57.69 189.3 55.38 192.6 53 196 C44.19375391 205.99170229 33.62370659 211.14946749 21 215 C19.84757812 215.35384766 19.84757812 215.35384766 18.671875 215.71484375 C1.73891333 220.14197304 -19.39501643 219.14640327 -35 211 C-47.75011379 202.93006393 -53.67785924 192.41294686 -57 178 C-57.56625244 174.52541401 -57.90060814 171.06034365 -58.17041016 167.55126953 C-58.25018412 166.56888369 -58.32995808 165.58649784 -58.41214943 164.57434273 C-59.23953744 153.36723283 -59.28073383 142.15963533 -59.27439499 130.92724228 C-59.27341049 127.0739626 -59.28658936 123.22094753 -59.30337524 119.3677063 C-59.34973062 108.4316856 -59.37435897 97.49568548 -59.38085938 86.55957031 C-59.38503224 79.82206818 -59.41018985 73.08489456 -59.44618607 66.34747696 C-59.4559273 63.80160377 -59.45834736 61.25569077 -59.45301437 58.70980453 C-58.48715903 37.74830626 -58.48715903 37.74830626 -66.9375 19.375 C-71.86102104 15.79033117 -78.11957858 15.00807224 -84 14 C-84 10.7 -84 7.4 -84 4 C-82.51491943 4.01571045 -81.02983887 4.0314209 -79.49975586 4.04760742 C-73.87302295 4.10281679 -68.24631271 4.13667341 -62.61938477 4.16479492 C-60.20593207 4.17967796 -57.79250538 4.19999085 -55.37915039 4.22631836 C-38.39042204 4.40671085 -21.75648073 3.79148439 -5.05834961 0.40307617 C-3 0 -3 0 0 0 Z " fill="#FFFFFF" transform="translate(378,94)"/>
<path d="M0 0 C0.99402832 0.06058594 1.98805664 0.12117188 3.01220703 0.18359375 C39.19601284 2.36059873 74.81095829 1.91406382 111 0 C111 3.3 111 6.6 111 10 C108.92138672 10.23783203 108.92138672 10.23783203 106.80078125 10.48046875 C104.97121065 10.71502908 103.1417909 10.95076824 101.3125 11.1875 C100.40048828 11.28869141 99.48847656 11.38988281 98.54882812 11.49414062 C94.27823589 12.0687294 91.4656719 12.70221955 87.79296875 15.05078125 C85.24787543 19.2371548 86.0655116 22.31698279 87 27 C87.87995239 29.89337751 89.01499465 32.63397612 90.21875 35.40625 C90.54827667 36.19167679 90.87780334 36.97710358 91.21731567 37.78633118 C92.30079801 40.36224112 93.40042057 42.93092547 94.5 45.5 C95.26995912 47.323288 96.03865409 49.1471103 96.80615234 50.97143555 C98.4020467 54.76216482 100.00335256 58.55053942 101.60839844 62.33740234 C104.97583889 70.29471958 108.2730182 78.28097864 111.57254028 86.26663208 C113.31702447 90.48648606 115.06655853 94.70424286 116.81640625 98.921875 C117.15911057 99.74796768 117.50181488 100.57406036 117.85490417 101.42518616 C123.88545993 115.95752944 129.94232493 130.47894473 136 145 C141.47631822 131.29127137 146.47987245 117.43177801 151.37109375 103.50463867 C152.62481879 99.93801552 153.88637701 96.37422776 155.1484375 92.81054688 C168.61253668 59.07071515 168.61253668 59.07071515 165.19921875 24.1328125 C163.51728973 21.141499 161.69627373 19.11850079 159 17 C158.175 16.29875 157.35 15.5975 156.5 14.875 C151.2922738 12.08514668 145.76564644 11.12917705 140 10 C140 6.7 140 3.4 140 0 C163.43 0 186.86 0 211 0 C211 3.3 211 6.6 211 10 C210.35933594 10.27972656 209.71867188 10.55945313 209.05859375 10.84765625 C194.53278149 17.58018622 188.50331597 29.8335913 183.14328003 44.36260986 C181.47308547 49.04101962 179.85860513 53.73763204 178.25 58.4375 C177.52097004 60.53630761 176.7904622 62.63460237 176.05859375 64.73242188 C174.90243335 68.04692843 173.74718729 71.36172368 172.59631348 74.67807007 C168.56191906 86.29977509 164.41819819 97.88168141 160.26757812 109.46228027 C158.14870701 115.37589773 156.03502442 121.29136721 153.921875 127.20703125 C153.50748169 128.36705658 153.09308838 129.52708191 152.6661377 130.72225952 C148.8603185 141.38141409 145.07641185 152.04827021 141.30075073 162.71813965 C140.25827246 165.66412251 139.21525456 168.60991383 138.17211914 171.55566406 C135.02758871 180.43715656 131.88642648 189.31980942 128.75418091 198.2056427 C127.32592617 202.25487911 125.89430128 206.30291915 124.46203613 210.35073853 C123.7955642 212.23673975 123.13052893 214.12324948 122.46716309 216.01034546 C119.06564859 225.6853746 115.56060591 235.30754813 111.78515625 244.84375 C111.46582626 245.65700745 111.14649628 246.47026489 110.81748962 247.3081665 C105.80421712 259.80111604 99.01258255 271.93104022 86.4375 277.875 C84.64651767 278.63610096 82.83164218 279.3427487 81 280 C80.01386719 280.36609375 79.02773437 280.7321875 78.01171875 281.109375 C72.28235495 282.68446319 66.26815707 282.36876385 60.375 282.375 C59.18003906 282.39949219 57.98507813 282.42398437 56.75390625 282.44921875 C44.02363223 282.49059559 32.6513471 279.62163738 23 271 C16.1123344 263.4679582 14.40393531 256.88006481 14.69921875 246.73046875 C15.29275862 239.36903267 17.75783062 234.88621228 22.9375 229.6875 C31.54630438 222.61699018 42.15735548 221.01015183 53 222 C61.32208447 222.96125343 67.7100289 226.23758006 73.375 232.4375 C78.2973828 238.68411078 78.85119125 245.25521051 78 253 C75.57446261 262.138376 71.04833175 268.13356685 63 273 C73.01320746 272.96449217 81.19781553 270.73625285 89.0625 264.31640625 C96.84416204 256.23945793 100.88515226 244.9215858 104.5 234.5 C104.76756104 233.7467041 105.03512207 232.9934082 105.31079102 232.21728516 C105.54854248 231.49589355 105.78629395 230.77450195 106.03125 230.03125 C106.24330078 229.39767578 106.45535156 228.76410156 106.67382812 228.11132812 C107.57602873 222.271335 104.96626558 217.14180231 102.6328125 211.95703125 C102.28664886 211.17305466 101.94048523 210.38907806 101.58383179 209.5813446 C100.43729981 206.98883507 99.28113145 204.40074114 98.125 201.8125 C97.311185 199.97685672 96.49804624 198.14091349 95.68554688 196.3046875 C93.98435914 192.46276177 92.2793834 188.6225514 90.57128906 184.78369141 C88.10920141 179.24892115 85.65798567 173.70940234 83.2109375 168.16796875 C82.82192764 167.28707077 82.43291779 166.40617279 82.03211975 165.49858093 C81.24782681 163.72246912 80.46357077 161.94634101 79.67935181 160.17019653 C78.49098761 157.47959485 77.3016727 154.78941536 76.11206055 152.09936523 C70.7025147 139.86580065 65.31237003 127.62383751 59.9375 115.375 C59.57001648 114.53757263 59.20253296 113.70014526 58.82391357 112.83734131 C55.82670403 106.0066792 52.83084951 99.17542305 49.83538818 92.34399414 C48.65463566 89.65118076 47.47381897 86.95839554 46.29296875 84.265625 C45.90455307 83.37984772 45.51613739 82.49407043 45.11595154 81.58145142 C42.10588651 74.71829769 39.08974287 67.85782787 36.0717926 60.99813843 C34.12580033 56.57196103 32.18969633 52.14171203 30.2663269 47.70565796 C29.43875421 45.79907294 28.6075813 43.89410583 27.77490234 41.98974609 C26.8022688 39.7638697 25.83579305 37.53528535 24.87744141 35.30322266 C20.25175172 24.76721919 15.69426118 16.22391558 4.6875 11.75 C3.12820566 11.15815105 1.56671151 10.57192576 0 10 C0 6.7 0 3.4 0 0 Z " fill="#FFFFFF" transform="translate(0,98)"/>
<path d="M0 0 C13.39886734 12.39098794 18.51747898 30.83329039 21.015625 48.3203125 C21.015625 55.9103125 21.015625 63.5003125 21.015625 71.3203125 C-15.614375 71.3203125 -52.244375 71.3203125 -89.984375 71.3203125 C-90.44218448 115.68550876 -90.44218448 115.68550876 -69.40234375 153.234375 C-65.30778286 156.76667793 -60.90751741 159.13625371 -55.984375 161.3203125 C-55.27925781 161.65933594 -54.57414062 161.99835938 -53.84765625 162.34765625 C-43.35801799 166.6833734 -29.37271046 165.20729288 -18.984375 161.3203125 C-5.29980157 155.30170988 3.77203917 146.63963769 12.015625 134.3203125 C14.655625 134.6503125 17.295625 134.9803125 20.015625 135.3203125 C21.78902881 140.64052394 18.33248473 145.4614953 16.015625 150.3203125 C4.90855976 171.80184931 -10.41100594 187.83842113 -33.28515625 196.58203125 C-51.73294523 202.22931359 -73.74616167 201.39971694 -91.984375 195.3203125 C-93.14710937 194.94648438 -94.30984375 194.57265625 -95.5078125 194.1875 C-107.50228665 189.96566877 -116.96129241 183.17741866 -125.984375 174.3203125 C-126.67273437 173.65644531 -127.36109375 172.99257813 -128.0703125 172.30859375 C-147.6215685 152.02319968 -152.58618451 122.33983102 -152.37548828 95.26806641 C-152.35937342 92.82007194 -152.37547919 90.37372729 -152.39453125 87.92578125 C-152.41483601 73.45426471 -151.16779862 58.57678458 -146.171875 44.8828125 C-145.91325684 44.14603271 -145.65463867 43.40925293 -145.38818359 42.65014648 C-141.45476423 31.73973219 -136.13984164 22.44570517 -128.984375 13.3203125 C-128.49195313 12.67320313 -127.99953125 12.02609375 -127.4921875 11.359375 C-114.11725404 -5.34040067 -92.44888459 -14.09338251 -71.984375 -17.6796875 C-71.241875 -17.81246094 -70.499375 -17.94523437 -69.734375 -18.08203125 C-44.3965666 -21.69464846 -19.66182763 -16.64288559 0 0 Z M-75.0703125 0.8125 C-87.79208855 17.4806229 -90.984375 41.90576732 -90.984375 62.3203125 C-70.854375 62.3203125 -50.724375 62.3203125 -29.984375 62.3203125 C-29.86228759 47.55173059 -29.86228759 47.55173059 -31.234375 33.0703125 C-31.36932373 32.14629639 -31.50427246 31.22228027 -31.64331055 30.27026367 C-33.57553336 17.72559441 -36.24925744 4.05543006 -45.546875 -5.2421875 C-56.54953267 -11.73093433 -66.7555639 -8.16477836 -75.0703125 0.8125 Z " fill="#FFFFFF" transform="translate(1878.984375,114.6796875)"/>
<path d="M0 0 C10.17230432 6.95078281 15.65337801 17.09990197 18 29 C18.40683668 32.90788677 18.47840163 36.76062426 18.4375 40.6875 C18.42847656 41.73623291 18.41945313 42.78496582 18.41015625 43.86547852 C17.95755942 64.34391337 10.06718759 82.35240412 -3 98 C-3.45391113 98.5578418 -3.90782227 99.11568359 -4.37548828 99.69042969 C-13.44098715 110.8295347 -23.25530328 120.64319656 -35 129 C-33.45427224 132.81628832 -31.11228755 134.97025743 -28.0625 137.6875 C-27.57378418 138.12392822 -27.08506836 138.56035645 -26.58154297 139.01000977 C-22.43899089 142.68039857 -18.17182452 146.19041375 -13.86328125 149.6640625 C-11.34605476 151.71767974 -8.87459384 153.81540427 -6.41381836 155.93603516 C1.43742338 162.68482322 9.64872284 168.88630572 18 175 C18.5995752 175.44230957 19.19915039 175.88461914 19.81689453 176.34033203 C37.68007114 189.49716236 58.51434314 204.65389787 80.9375 207.9375 C84.7567541 208.54226063 85.72522124 208.73830594 88.625 211.5 C91.1939389 216.170798 91.64586779 219.67620407 91 225 C88.86731283 228.9241444 86.24524081 230.93872479 82.03125 232.4921875 C65.31617121 236.6709572 47.4202209 224.94216383 33.5625 216.75 C10.46819497 202.7697845 -10.81405377 185.37870558 -31.25 167.8125 C-31.82588867 167.31903076 -32.40177734 166.82556152 -32.99511719 166.31713867 C-35.68934275 164.00445418 -38.3663163 161.67699983 -41.01171875 159.30859375 C-48.44148336 152.81126956 -56.19100425 148.3082247 -65 144 C-64.86948242 144.63164062 -64.73896484 145.26328125 -64.60449219 145.9140625 C-62.14504126 157.87104286 -59.77563918 169.83604051 -57.75 181.875 C-57.58725586 182.82890625 -57.42451172 183.7828125 -57.25683594 184.765625 C-53.19747341 209.38035828 -53.19747341 209.38035828 -56.0625 218.3125 C-59.51442888 223.10065942 -62.90913143 226.30304381 -68.5625 228.1875 C-72.20805692 227.98865144 -73.97220778 227.31269879 -76.59375 224.75390625 C-88.9125219 209.38966019 -90.42097423 183.04303286 -91.63671875 164.21484375 C-91.68634766 163.45178925 -91.73597656 162.68873474 -91.78710938 161.90255737 C-91.83722168 161.13001617 -91.88733398 160.35747498 -91.93896484 159.56152344 C-93.0886629 141.89454228 -96.11920123 126.29887462 -101.07373047 109.28808594 C-105.18134253 94.70682097 -106.36281504 80.38506089 -106.4375 65.3125 C-106.44394531 64.58857056 -106.45039062 63.86464111 -106.45703125 63.11877441 C-106.51676887 52.1836782 -106.57739301 39.65987772 -99 31 C-95.64569966 28.09293971 -94.03621049 26.98115981 -89.5625 27.0625 C-85.78145705 28.0575113 -82.53326048 29.34153079 -79 31 C-78.9175 30.32195312 -78.835 29.64390625 -78.75 28.9453125 C-77.79338792 25.18861713 -76.00526946 22.14931079 -74 18.875 C-73.59918213 18.21701416 -73.19836426 17.55902832 -72.78540039 16.88110352 C-65.28533455 4.82329409 -56.15662471 -6.28824369 -42.09375 -10.58203125 C-27.66570128 -13.46225739 -12.20849099 -7.39079051 0 0 Z M-47.78515625 23.203125 C-63.51888034 46.47487125 -67 84.53645704 -67 112 C-55.98469439 113.00139142 -46.27180255 107.84987286 -38 101 C-24.58972219 89.62088303 -16.85049556 73.88103419 -10 58 C-9.6395459 57.20408447 -9.2790918 56.40816895 -8.90771484 55.58813477 C-7.25686802 50.88113444 -7.63092034 46.00302765 -7.625 41.0625 C-7.58826172 39.4547168 -7.58826172 39.4547168 -7.55078125 37.81445312 C-7.51999145 29.52686422 -8.83957391 26.23567433 -14.625 20.3125 C-20.58218452 15.67248191 -28.35306485 14.38624099 -35.74609375 14.65234375 C-41.05300505 15.47091412 -44.59820633 19.08961775 -47.78515625 23.203125 Z " fill="#27603C" transform="translate(956,131)"/>
<path d="M0 0 C1.65322266 0.01740234 1.65322266 0.01740234 3.33984375 0.03515625 C4.44457031 0.04417969 5.54929687 0.05320312 6.6875 0.0625 C7.54214844 0.07410156 8.39679688 0.08570312 9.27734375 0.09765625 C6.5551893 2.90230023 3.83162558 5.47074078 0.77734375 7.91015625 C-1.97460994 10.17786058 -3.46279543 12.25318364 -5.09765625 15.41015625 C-7.10292049 18.9160487 -7.10292049 18.9160487 -9.85546875 19.72265625 C-11.4229456 19.84681283 -12.99444786 19.92816472 -14.56640625 19.96484375 C-17.55616774 20.14899573 -19.39275608 21.27742174 -21.72265625 23.09765625 C-27.80419234 35.26072843 -21.44158158 56.82105434 -18.91015625 69.47265625 C-18.54827038 71.3564145 -18.18824136 73.24053042 -17.83007812 75.125 C-16.65880396 81.25902251 -15.45399355 87.38629996 -14.24664307 93.51330566 C-13.81362304 95.7202735 -13.38657552 97.92831726 -12.9609375 100.13671875 C-12.72028564 101.3685791 -12.47963379 102.60043945 -12.23168945 103.86962891 C-11.787175 106.68851147 -11.61605267 109.25332479 -11.72265625 112.09765625 C-15.65672845 111.69068326 -19.09854767 111.30985317 -22.84765625 110.03515625 C-26.19501003 108.94362784 -28.2283997 108.52716538 -31.72265625 109.09765625 C-35.18911641 111.0024586 -38.1035929 113.15818564 -39.33984375 117.03125 C-39.64131784 121.57996196 -38.30513512 124.99290632 -35.453125 128.5 C-30.37157669 133.19154235 -23.98392728 135.15292035 -17.3828125 136.73828125 C-16.31812744 136.99641602 -15.25344238 137.25455078 -14.15649414 137.52050781 C-13.35332764 137.7109668 -12.55016113 137.90142578 -11.72265625 138.09765625 C-11.73220337 139.73963989 -11.73220337 139.73963989 -11.74194336 141.41479492 C-11.75640498 145.48745316 -11.72499957 149.55870476 -11.67993164 153.63110352 C-11.66681511 155.39147144 -11.66603655 157.15197723 -11.67797852 158.91235352 C-11.69301714 161.44815165 -11.66327746 163.9801389 -11.625 166.515625 C-11.63925522 167.29914841 -11.65351044 168.08267181 -11.66819763 168.88993835 C-11.58231429 172.15215183 -11.516529 174.2545087 -9.22059631 176.69294739 C-5.50572977 179.41921597 -1.70541849 181.06917782 2.71484375 182.41015625 C3.76542969 182.73628906 4.81601563 183.06242188 5.8984375 183.3984375 C6.68347656 183.62917969 7.46851563 183.85992187 8.27734375 184.09765625 C8.60734375 187.39765625 8.93734375 190.69765625 9.27734375 194.09765625 C2.09114723 192.1471172 -4.11817404 189.51659005 -10.72265625 186.09765625 C-10.79728901 192.18080011 -10.85148537 198.26367237 -10.88745117 204.34716797 C-10.90245817 206.41297046 -10.92287025 208.47874153 -10.94897461 210.54443359 C-10.98571586 213.52839963 -11.00246389 216.51194132 -11.015625 219.49609375 C-11.03110886 220.40692719 -11.04659271 221.31776062 -11.06254578 222.25619507 C-11.06453501 229.9830022 -9.75163841 236.87515517 -5.59765625 243.47265625 C-1.40196342 247.30350623 3.19938818 249.11018927 8.56640625 250.83203125 C14.03294599 252.62108062 14.03294599 252.62108062 15.52734375 255.53515625 C15.77484375 256.38078125 16.02234375 257.22640625 16.27734375 258.09765625 C18.25734375 260.07765625 18.25734375 260.07765625 20.27734375 262.09765625 C-17.67265625 262.09765625 -55.62265625 262.09765625 -94.72265625 262.09765625 C-94.72265625 259.12765625 -94.72265625 256.15765625 -94.72265625 253.09765625 C-93.29373047 252.82501953 -93.29373047 252.82501953 -91.8359375 252.546875 C-89.95455078 252.16982422 -89.95455078 252.16982422 -88.03515625 251.78515625 C-86.79378906 251.54152344 -85.55242187 251.29789063 -84.2734375 251.046875 C-80.86368172 250.13535613 -78.53920449 249.1985661 -75.72265625 247.09765625 C-72.37351789 240.63860369 -71.60053655 235.0466597 -71.56443787 227.85270691 C-71.55949989 227.13381312 -71.55456191 226.41491933 -71.5494743 225.67424089 C-71.53414664 223.27135491 -71.52575155 220.86849555 -71.51733398 218.46557617 C-71.50775174 216.74072029 -71.49774145 215.01586674 -71.48733521 213.29101562 C-71.46031764 208.6117238 -71.43929103 203.93242193 -71.41933322 199.25309539 C-71.39745425 194.36168956 -71.37007491 189.47031462 -71.34327698 184.57893372 C-71.29337594 175.31784168 -71.2484275 166.05673249 -71.20525461 156.79560691 C-71.15586012 146.25153576 -71.10095019 135.70749559 -71.04557502 125.16345441 C-70.93179472 103.4748839 -70.82494707 81.7862838 -70.72265625 60.09765625 C-70.0471875 59.91589844 -69.37171875 59.73414063 -68.67578125 59.546875 C-67.78375 59.29550781 -66.89171875 59.04414063 -65.97265625 58.78515625 C-65.0909375 58.54152344 -64.20921875 58.29789063 -63.30078125 58.046875 C-60.61861929 57.05935173 -58.83629813 56.01180833 -56.72265625 54.09765625 C-54.80734037 48.91503681 -56.03140334 45.98006366 -58.16015625 40.97265625 C-60.89998731 34.26585853 -62.19943623 28.29100387 -60.72265625 21.09765625 C-56.26275335 12.55065967 -47.26276414 8.79348699 -38.53515625 5.97265625 C-20.71184579 0.82648914 -20.71184579 0.82648914 -11.72265625 1.09765625 C-11.22765625 5.55265625 -11.22765625 5.55265625 -10.72265625 10.09765625 C-10.22894531 9.45957031 -9.73523437 8.82148437 -9.2265625 8.1640625 C-8.58589844 7.33777344 -7.94523437 6.51148437 -7.28515625 5.66015625 C-6.64707031 4.83644531 -6.00898437 4.01273437 -5.3515625 3.1640625 C-2.94053684 0.10547119 -2.94053684 0.10547119 0 0 Z " fill="#FEFEFE" transform="translate(1295.72265625,117.90234375)"/>
<path d="M0 0 C1.56529115 0.11196973 3.12982098 0.24694897 4.6875 0.4375 C3.82125 1.38625 2.955 2.335 2.0625 3.3125 C-2.1340556 8.18688406 -5.43927215 13.69104429 -8.3125 19.4375 C-10.203125 19.74609375 -10.203125 19.74609375 -12.5625 19.875 C-16.52627783 20.24049939 -19.15292071 20.85238967 -22.3125 23.4375 C-27.56937224 31.63522335 -23.8955895 44.910317 -22.3125 53.875 C-22.09827393 55.13111084 -21.88404785 56.38722168 -21.66333008 57.68139648 C-19.43370346 70.52680072 -16.69579974 83.27424042 -13.90429688 96.00756836 C-13.73275589 96.7977536 -13.5612149 97.58793884 -13.38447571 98.40206909 C-13.06236464 99.88355683 -12.7359748 101.36412348 -12.40446472 102.84353638 C-11.62517925 106.43578796 -11.13298661 109.75947995 -11.3125 113.4375 C-15.45525134 112.57212527 -19.50358593 111.72299908 -23.5 110.3125 C-26.72348226 109.30963885 -28.95532192 109.01785274 -32.3125 109.4375 C-36.53731746 111.7133823 -36.53731746 111.7133823 -39.3125 115.4375 C-39.69070122 119.9759146 -39.75996243 122.48664234 -37.8125 126.625 C-32.41698234 132.69495736 -26.75496751 134.75756309 -19.015625 136.5859375 C-18.27393066 136.76600342 -17.53223633 136.94606934 -16.76806641 137.1315918 C-14.95077728 137.57201372 -13.1318007 138.00546273 -11.3125 138.4375 C-11.32204712 139.88987061 -11.32204712 139.88987061 -11.33178711 141.37158203 C-11.34628089 144.98402207 -11.31477598 148.59488293 -11.26977539 152.20703125 C-11.25668244 153.76654674 -11.2558587 155.32621763 -11.26782227 156.88574219 C-11.6038425 165.66722375 -11.6038425 165.66722375 -8.8984375 173.75415039 C-5.57195846 176.75118006 -1.71620937 178.36272147 2.5625 179.625 C5.4296875 180.48046875 5.4296875 180.48046875 7.6875 181.4375 C8.8452506 184.91075181 8.75616652 187.79817448 8.6875 191.4375 C6.47557144 190.69817046 4.26809022 189.94552894 2.0625 189.1875 C0.83273437 188.76984375 -0.39703125 188.3521875 -1.6640625 187.921875 C-5.27190649 186.45401556 -8.11559047 184.6370999 -11.3125 182.4375 C-11.24304847 188.34203097 -11.15481128 194.24589211 -11.05004883 200.14990234 C-11.01703819 202.15340671 -10.98893412 204.15699875 -10.96606445 206.16064453 C-11.46471037 224.38703882 -11.46471037 224.38703882 -5.125 240.9375 C0.46694336 245.90811632 6.46334571 247.88946694 13.6875 249.4375 C14.6775 253.0675 15.6675 256.6975 16.6875 260.4375 C15.33817383 260.40720703 13.98884766 260.37691406 12.59863281 260.34570312 C7.49190976 260.23165179 2.38512566 260.1205537 -2.72167969 260.01025391 C-4.91310305 259.96253071 -7.10451016 259.91405398 -9.29589844 259.86474609 C-30.90938452 259.37938367 -52.45093831 259.38958054 -74.0625 259.9375 C-76.04296334 259.98589905 -78.02343209 260.03407709 -80.00390625 260.08203125 C-84.77350341 260.19798762 -89.54301851 260.31688357 -94.3125 260.4375 C-94.3125 257.1375 -94.3125 253.8375 -94.3125 250.4375 C-93.51585937 250.32792969 -92.71921875 250.21835937 -91.8984375 250.10546875 C-82.40338202 248.83035754 -82.40338202 248.83035754 -74.5625 243.6875 C-71.60853944 238.370371 -71.05997056 232.97862179 -71.0340271 226.99000549 C-71.0282347 226.27348641 -71.0224423 225.55696732 -71.01647437 224.81873554 C-70.99957086 222.43583241 -70.99660627 220.05312409 -70.99365234 217.67016602 C-70.98434749 215.95486481 -70.97417799 214.23956812 -70.96321106 212.52427673 C-70.93595982 207.8802208 -70.92077611 203.23619513 -70.90778303 198.59208035 C-70.89213115 193.73403541 -70.86534748 188.87605205 -70.8397522 184.01805115 C-70.79300084 174.82432236 -70.75623909 165.63058194 -70.72307932 156.43679518 C-70.6848322 145.96762827 -70.63542881 135.49852326 -70.58509517 125.02940857 C-70.4818295 103.49881812 -70.39255165 81.96818846 -70.3125 60.4375 C-69.62542969 60.19515625 -68.93835938 59.9528125 -68.23046875 59.703125 C-67.32941406 59.36796875 -66.42835938 59.0328125 -65.5 58.6875 C-64.60667969 58.36265625 -63.71335937 58.0378125 -62.79296875 57.703125 C-60.02407183 56.2903335 -58.87463675 55.10020414 -57.3125 52.4375 C-56.76594718 47.82285518 -57.76141119 44.97148015 -59.8125 40.875 C-62.63820436 34.3385287 -63.71740269 28.48974177 -62.3125 21.4375 C-58.65158013 13.88066879 -50.81700214 10.29098417 -43.3125 7.4375 C-32.80391099 3.96973582 -22.40532966 1.65656845 -11.3125 1.4375 C-10.8175 4.4075 -10.8175 4.4075 -10.3125 7.4375 C-9.69375 6.2825 -9.075 5.1275 -8.4375 3.9375 C-5.97355534 0.38799132 -4.27098849 -0.04240698 0 0 Z " fill="#FEFEFE" transform="translate(711.3125,117.5625)"/>
<path d="M0 0 C0.00238835 0.94606613 0.00477671 1.89213226 0.00723743 2.86686707 C0.06605021 25.89415685 0.14194409 48.92134216 0.23571491 71.94851685 C0.28066709 83.08432061 0.32008315 94.22009244 0.34643555 105.35595703 C0.36942024 115.06276358 0.40282366 124.769469 0.44870156 134.47619534 C0.4726273 139.61511673 0.49136038 144.75393801 0.49761391 149.89291382 C0.50366763 154.73235005 0.5236781 159.57153014 0.55427551 164.41087151 C0.56305108 166.18453123 0.56677931 167.95822443 0.56500816 169.73190498 C0.5633496 172.15978018 0.5801036 174.58687991 0.60127258 177.01464844 C0.59642501 177.71117114 0.59157743 178.40769384 0.58658296 179.1253233 C0.67255531 185.12882984 2.18256496 190.31019614 5.5625 195.3125 C11.18039135 199.20180939 18.3113012 200.27296752 25 201 C25 204.3 25 207.6 25 211 C23.97567871 210.96970703 22.95135742 210.93941406 21.89599609 210.90820312 C-13.78553126 209.86615023 -49.31886942 210.00370525 -85 211 C-85 207.7 -85 204.4 -85 201 C-83.98679687 200.84144531 -82.97359375 200.68289063 -81.9296875 200.51953125 C-71.77130355 199.0866783 -71.77130355 199.0866783 -64 193 C-60.28486061 185.5108973 -60.57318066 177.62778862 -60.61181641 169.45922852 C-60.60774445 168.00616055 -60.60239909 166.55309569 -60.59588623 165.10003662 C-60.58227964 161.17639143 -60.58748386 157.25298449 -60.59702349 153.32933545 C-60.60465624 149.20872212 -60.59756435 145.08812823 -60.59286499 140.96751404 C-60.58741731 134.04853684 -60.59457241 127.12965592 -60.60888672 120.21069336 C-60.62520489 112.23140698 -60.61992684 104.25235071 -60.6034075 96.27306992 C-60.58975669 89.40228078 -60.58789068 82.53156058 -60.59572351 75.66076225 C-60.60038116 71.56593843 -60.60107791 67.47122245 -60.59111404 63.37640572 C-60.58239434 59.52424575 -60.58855668 55.67237993 -60.60579681 51.82025146 C-60.6097354 50.41346155 -60.60867313 49.00664651 -60.60200882 47.59986687 C-60.55726208 37.18749071 -61.09009409 27.33253359 -68 19 C-71.70680803 16.37353567 -74.8379695 15.45171864 -79.3125 14.8125 C-80.38113281 14.65394531 -81.44976563 14.49539062 -82.55078125 14.33203125 C-83.35902344 14.22246094 -84.16726563 14.11289063 -85 14 C-85 10.7 -85 7.4 -85 4 C-83.18133423 4.01571045 -83.18133423 4.01571045 -81.32592773 4.03173828 C-42.88441677 4.59797038 -42.88441677 4.59797038 -4.88671875 -0.51171875 C-2 -1 -2 -1 0 0 Z " fill="#FFFFFF" transform="translate(1603,98)"/>
<path d="M0 0 C4.72393949 3.59430178 6.50340394 7.14457268 7.5 12.875 C6.7499622 17.56273627 4.52892311 20.0472276 1 23 C-4.64121892 26.82235319 -10.6470144 30.12374411 -16.58984375 33.44921875 C-44.68362138 50.36644832 -56.70882408 93.94230611 -64.39013672 123.41699219 C-65.1434611 126.60761347 -65.6376556 129.743487 -66 133 C-65.48429443 132.74420166 -64.96858887 132.48840332 -64.43725586 132.22485352 C-54.02498241 127.09020609 -43.5386424 122.23337813 -32.75 117.9375 C-31.3422229 117.3652771 -31.3422229 117.3652771 -29.90600586 116.78149414 C-24.44227523 114.64996105 -18.9454776 112.73764376 -13 113 C-9.6875 114.6875 -9.6875 114.6875 -7 117 C-6.21625 117.53625 -5.4325 118.0725 -4.625 118.625 C-2.37133846 121.91881302 -2.51649079 124.64775521 -2.46875 128.5625 C-3.19361166 131.88833584 -4.32775067 132.89549694 -7 135 C-9.53185835 136.37972056 -12.00726425 137.62459738 -14.625 138.8125 C-15.37281738 139.16014404 -16.12063477 139.50778809 -16.89111328 139.8659668 C-22.13762309 142.26510532 -27.46280823 144.32384808 -32.875 146.3125 C-42.86189591 150.01309968 -52.07128024 155.21468196 -61 161 C-61.7317041 161.47211914 -62.4634082 161.94423828 -63.21728516 162.43066406 C-65.40076669 164.00238129 -65.40076669 164.00238129 -65.4375 167.5625 C-64.77061159 178.9621238 -59.5047839 188.13961741 -51.125 195.75 C-49.76601673 196.85335878 -48.39066773 197.93685402 -47 199 C-46.30003906 199.55816406 -45.60007812 200.11632812 -44.87890625 200.69140625 C-39.18201089 204.90568713 -34.00817584 206.35109483 -27 207 C-26.19820312 207.09410156 -25.39640625 207.18820312 -24.5703125 207.28515625 C-10.86011624 208.16170978 2.48733884 199.54774148 14 193 C14.33 192.67 14.66 192.34 15 192 C21.69478357 191.19200888 21.69478357 191.19200888 25.05078125 193.26953125 C28.88877338 196.53540033 30.71020658 198.4983432 31.6875 203.5625 C31.62732376 206.59319432 31.15651825 207.80092285 29.26171875 210.2109375 C14.15242048 224.30635487 -4.88816138 233.70671158 -25.75 234.3125 C-43.13150999 233.52093218 -57.56093408 227.02427241 -69.625 214.4375 C-77.27231064 205.49287774 -90 188.21148592 -90 176 C-90.64960693 176.15670166 -91.29921387 176.31340332 -91.96850586 176.47485352 C-94.95475894 177.18604313 -97.94585355 177.87436656 -100.9375 178.5625 C-102.46987305 178.9327832 -102.46987305 178.9327832 -104.03320312 179.31054688 C-113.01466384 181.34787503 -121.7178677 181.62719131 -130 177 C-133.35423543 174.32149647 -134.8703267 171.80685608 -135.5625 167.5 C-134.69492524 162.10175704 -132.50412483 159.20805428 -128.28125 155.81640625 C-124.40453067 153.67036519 -122.49032639 153.75246668 -118.125 154.125 C-109.14175305 154.42830725 -102.12192229 151.58602614 -94 148 C-93.96036133 147.34741211 -93.92072266 146.69482422 -93.87988281 146.02246094 C-91.15018932 102.96569337 -78.0664138 66.76725886 -51.35205078 32.74853516 C-50.14454511 31.18693249 -48.98838597 29.58593554 -47.83984375 27.98046875 C-39.61110938 16.89783806 -27.54133307 9.54709933 -15.4375 3.25 C-14.8077124 2.91460205 -14.1779248 2.5792041 -13.52905273 2.23364258 C-8.74138566 -0.11553816 -5.2075233 -0.47639803 0 0 Z " fill="#27603C" transform="translate(1152,120)"/>
<path d="M0 0 C17.4213344 0.06648571 33.67558188 5.72085597 46.21484375 18.05078125 C47.25318359 19.13939453 47.25318359 19.13939453 48.3125 20.25 C49.24255859 21.16845703 49.24255859 21.16845703 50.19140625 22.10546875 C66.85111451 39.58511791 73.36320726 66.63425076 73.515625 90.16796875 C73.52268463 90.8989679 73.52974426 91.62996704 73.53701782 92.38311768 C73.80305987 128.06110441 69.77111253 164.29729997 45.3125 192.25 C44.74144531 192.9203125 44.17039062 193.590625 43.58203125 194.28125 C31.02473823 207.92374118 12.40816194 215.77684458 -5.6875 218.25 C-7.31144748 218.3120775 -8.93755297 218.33712041 -10.5625 218.3125 C-11.34367187 218.30347656 -12.12484375 218.29445313 -12.9296875 218.28515625 C-13.79980469 218.26775391 -13.79980469 218.26775391 -14.6875 218.25 C-17.53056096 205.63391699 -17.53056096 205.63391699 -16.6875 201.25 C-14.88083852 199.59884862 -12.93781451 198.31105901 -10.91015625 196.94140625 C2.27912486 186.90457194 5.87676753 165.67420496 8.3125 150.25 C8.80385513 146.43100593 9.23777935 142.60650794 9.54199219 138.76782227 C10.18279821 131.74926446 13.15859544 128.23553025 17.9375 123.3125 C35.53380486 104.17939995 43.28039195 82.15239044 42.38183594 56.29394531 C42.32473623 54.61071031 42.30218576 52.92633958 42.2890625 51.2421875 C41.74623759 38.25614535 32.58220438 27.09039144 23.5 18.5625 C16.03838513 12.09126538 8.12741881 7.94983594 -1.0234375 4.328125 C-3.31445709 3.40096751 -5.49753937 2.39168564 -7.6875 1.25 C-5.77974115 -0.65775885 -2.53715304 0.03129068 0 0 Z " fill="#FEFEFE" transform="translate(1343.6875,95.75)"/>
<path d="M0 0 C15.54560036 11.5459085 24.58239243 28.73198142 29.8125 47 C30.0074707 47.67442139 30.20244141 48.34884277 30.40332031 49.04370117 C33.86433282 62.05301846 34.37861662 75.25441682 34.3125 88.625 C34.30926727 89.80704514 34.30926727 89.80704514 34.30596924 91.01296997 C34.15634284 125.20692675 26.67169039 159.11554502 2.75 184.8125 C-11.07227113 197.92656289 -30.83100067 207.22268253 -50.0625 207.25 C-51.361875 207.1675 -52.66125 207.085 -54 207 C-54.75807764 204.01506931 -55.39886609 201.02021312 -56 198 C-56.2475 196.845 -56.495 195.69 -56.75 194.5 C-55.6698648 189.45936908 -52.53086359 187.72826922 -48.671875 184.49609375 C-38.65445962 175.13771886 -34.81934009 160.77550966 -32.828125 147.65234375 C-32.72742706 146.99306885 -32.62672913 146.33379395 -32.52297974 145.65454102 C-32.01726865 142.30918415 -31.55184612 138.96853746 -31.13818359 135.60986328 C-29.96753728 127.33438447 -28.24923624 122.59192862 -22 117 C-21.21753906 116.17113281 -20.43507813 115.34226562 -19.62890625 114.48828125 C-18.94699219 113.77027344 -18.26507812 113.05226563 -17.5625 112.3125 C-2.6390434 95.71396153 5.17257688 75.16364297 5.1875 53.0625 C5.20586914 51.63647461 5.20586914 51.63647461 5.22460938 50.18164062 C5.25636199 34.82395816 -1.43626093 22.96362825 -12 12 C-24.60814147 1.05779915 -39.22349191 -3.63220117 -55 -8 C-55 -8.66 -55 -9.32 -55 -10 C-35.73351043 -14.30396342 -16.35635 -10.71669867 0 0 Z " fill="#FEFEFE" transform="translate(799,104)"/>
<path d="M0 0 C1.08152344 -0.02449219 2.16304687 -0.04898438 3.27734375 -0.07421875 C14.66025628 -0.11541144 22.3804443 3.08848852 30.61328125 10.93359375 C36.30379833 17.43555568 38.10096873 25.06749294 37.625 33.5625 C36.85284497 41.99900864 34.22972232 48.3574313 28.0625 54.25 C17.55659807 62.68655761 4.64747879 63.22227963 -8.25 62.375 C-17.94043637 60.90815206 -25.89344604 56.92513097 -32 49.17578125 C-36.98997344 41.98710076 -37.93480062 33.7536767 -36.84765625 25.21484375 C-35.16612478 17.3444805 -32.44090653 11.42788801 -25.84765625 6.625 C-17.17990777 1.20276937 -10.11688672 0.01188823 0 0 Z " fill="#FFFFFF" transform="translate(1570.25,-0.375)"/>
<path d="M0 0 C5.99882406 1.07461928 10.99324654 5.41719025 14.66015625 10.13671875 C21.00389568 20.14244188 20.89515824 34.2601459 18.42285156 45.66162109 C16.80375662 51.03071378 14.50343843 55.99312314 12 61 C11.34 61 10.68 61 10 61 C9.95512451 60.27111572 9.91024902 59.54223145 9.86401367 58.79125977 C8.56981055 38.32737797 6.19220256 19.55561204 0 0 Z " fill="#FAFBFB" transform="translate(761,128)"/>
<path d="M0 0 C19.47 0 38.94 0 59 0 C55.74651973 2.16898685 52.98789709 2.99732218 49.25 4.125 C43.50050381 5.94899271 38.19044395 8.2110549 32.875 11.0625 C32.26043945 11.39072754 31.64587891 11.71895508 31.01269531 12.05712891 C27.37922058 14.06425794 24.16495021 16.31874973 21 19 C20.57332031 18.60167969 20.14664063 18.20335938 19.70703125 17.79296875 C13.7106139 12.71146869 7.64182382 11.32799987 0 10 C0 6.7 0 3.4 0 0 Z " fill="#FDFDFD" transform="translate(616,98)"/>
<path d="M0 0 C8.54445441 2.670142 13.58196735 8.12223636 17.87109375 15.73046875 C22.58991089 25.21708729 20.82195324 39.63889353 17.93359375 49.46484375 C16.56924493 53.16970728 14.92295398 56.55194459 13 60 C12.67 60 12.34 60 12 60 C11.93006836 59.24605957 11.86013672 58.49211914 11.78808594 57.71533203 C9.40574101 30.24684308 9.40574101 30.24684308 0.953125 4.1875 C0 2 0 2 0 0 Z " fill="#FAFBFB" transform="translate(1343,127)"/>
<path d="M0 0 C15.51 0 31.02 0 47 0 C43.99203236 3.00796764 41.64491895 4.31145286 37.875 6.1875 C31.75044182 9.39723486 26.88786717 13.13739313 22 18 C19.5329537 16.82671259 17.61315792 15.69807448 15.4375 14 C11.38245363 11.6407003 7.89019703 11.05836853 3.29296875 10.39453125 C1 10 1 10 0 9 C0 6.03 0 3.06 0 0 Z " fill="#FCFDFC" transform="translate(1199,102)"/>
</svg>
